<svg id="about" xmlns="http://www.w3.org/2000/svg" width="28.028" height="28.028" viewBox="0 0 28.028 28.028">
  <path id="Path_595" data-name="Path 595" d="M14.014,28.028A14.014,14.014,0,0,1,4.1,4.1,14.014,14.014,0,0,1,23.923,23.923a13.922,13.922,0,0,1-9.909,4.1Zm0-26.276A12.262,12.262,0,1,0,26.276,14.014,12.276,12.276,0,0,0,14.014,1.752Z" fill="#fff"/>
  <path id="Path_596" data-name="Path 596" d="M180.379,110.89a.876.876,0,0,1-.876-.876,8.223,8.223,0,0,1,2.424-5.853,5.146,5.146,0,0,0,1.517-3.663,2.75,2.75,0,0,0-2.747-2.747h-.2a2.75,2.75,0,0,0-2.747,2.747v.319a.876.876,0,1,1-1.752,0V100.5a4.5,4.5,0,0,1,4.5-4.5h.2a4.5,4.5,0,0,1,4.5,4.5,6.886,6.886,0,0,1-2.03,4.9,6.482,6.482,0,0,0-1.911,4.614A.876.876,0,0,1,180.379,110.89Z" transform="translate(-166.365 -90.745)" fill="#fff"/>
  <path id="Path_597" data-name="Path 597" d="M240.891,401.752a.876.876,0,0,1,0-1.752h0a.876.876,0,1,1,0,1.752Z" transform="translate(-226.876 -378.103)" fill="#fff"/>
</svg>
