<svg xmlns="http://www.w3.org/2000/svg" xmlns:xlink="http://www.w3.org/1999/xlink" width="369" height="112.001" viewBox="0 0 369 112.001">
  <defs>
    <filter id="Subtraction_6" x="0" y="12" width="369" height="100.001" filterUnits="userSpaceOnUse">
      <feOffset dy="2" input="SourceAlpha"/>
      <feGaussianBlur stdDeviation="7" result="blur"/>
      <feFlood flood-opacity="0.122"/>
      <feComposite operator="in" in2="blur"/>
      <feComposite in="SourceGraphic"/>
    </filter>
    <filter id="Ellipse_118" x="249" y="0" width="101" height="101" filterUnits="userSpaceOnUse">
      <feOffset dy="2" input="SourceAlpha"/>
      <feGaussianBlur stdDeviation="7" result="blur-2"/>
      <feFlood flood-opacity="0.122"/>
      <feComposite operator="in" in2="blur-2"/>
      <feComposite in="SourceGraphic"/>
    </filter>
  </defs>
  <g id="Group_18391" data-name="Group 18391" transform="translate(-3 -567)">
    <g transform="matrix(1, 0, 0, 1, 3, 567)" filter="url(#Subtraction_6)">
      <path id="Subtraction_6-2" data-name="Subtraction 6" d="M-4123-684h-327v-48a10.012,10.012,0,0,1,10-10h240.567A33.353,33.353,0,0,0-4205-723.5a33.284,33.284,0,0,0,2.633,13.039,33.385,33.385,0,0,0,7.179,10.648,33.4,33.4,0,0,0,10.648,7.179A33.291,33.291,0,0,0-4171.5-690a33.289,33.289,0,0,0,13.04-2.633,33.4,33.4,0,0,0,10.648-7.179,33.4,33.4,0,0,0,7.179-10.648A33.285,33.285,0,0,0-4138-723.5a33.35,33.35,0,0,0-5.568-18.5H-4133a10.012,10.012,0,0,1,10,10v48Z" transform="translate(4471 773)" fill="#fff"/>
    </g>
    <g transform="matrix(1, 0, 0, 1, 3, 567)" filter="url(#Ellipse_118)">
      <circle id="Ellipse_118-2" data-name="Ellipse 118" cx="29.5" cy="29.5" r="29.5" transform="translate(270 19)" fill="#3876ba"/>
    </g>
  </g>
</svg>
