<svg xmlns="http://www.w3.org/2000/svg" width="47.898" height="43.205" viewBox="0 0 47.898 43.205">
  <g id="add" transform="translate(-0.583 -2.29)">
    <g id="Group_709" data-name="Group 709" transform="translate(0.583 2.29)">
      <path id="Path_4283" data-name="Path 4283" d="M43.555,37.125c0-9.511,4.927-16.043,4.927-20.626S45.847,2.29,24.763,2.29.583,15.239.583,20.28C.583,43.886,43.555,53.97,43.555,37.125Z" transform="translate(-0.583 -2.29)" fill="#efefef"/>
    </g>
    <g id="Group_710" data-name="Group 710" transform="translate(9.063 8.423)">
      <path id="Path_4284" data-name="Path 4284" d="M29.439,6.75H9.5A2.758,2.758,0,0,0,6.75,9.5V34.939a2.758,2.758,0,0,0,2.75,2.75H29.439a2.758,2.758,0,0,0,2.75-2.75V9.5A2.758,2.758,0,0,0,29.439,6.75Z" transform="translate(-6.75 -6.75)" fill="#f3f3f1"/>
    </g>
    <g id="Group_711" data-name="Group 711" transform="translate(24.189 8.423)">
      <circle id="Ellipse_166" data-name="Ellipse 166" cx="7.907" cy="7.907" r="7.907" fill="#feca2e"/>
    </g>
    <g id="Group_712" data-name="Group 712" transform="translate(9.063 8.423)">
      <path id="Path_4285" data-name="Path 4285" d="M9.844,34.939V9.5a2.758,2.758,0,0,1,2.75-2.75H9.5A2.758,2.758,0,0,0,6.75,9.5V34.939a2.758,2.758,0,0,0,2.75,2.75h3.094A2.758,2.758,0,0,1,9.844,34.939Z" transform="translate(-6.75 -6.75)" fill="#d5dbe1"/>
    </g>
    <g id="Group_713" data-name="Group 713" transform="translate(24.189 8.423)">
      <path id="Path_4286" data-name="Path 4286" d="M20.844,14.657A7.907,7.907,0,0,1,27.2,6.9a7.907,7.907,0,1,0,0,15.505A7.907,7.907,0,0,1,20.844,14.657Z" transform="translate(-17.75 -6.75)" fill="#d9ab21"/>
    </g>
    <g id="Group_714" data-name="Group 714" transform="translate(12.157 28.018)">
      <path id="Path_4287" data-name="Path 4287" d="M11.063,29.251H9V22.031A1.032,1.032,0,0,1,10.031,21H11.75a2.75,2.75,0,1,1,0,5.5h-.688Zm0-4.813h.688a.688.688,0,0,0,0-1.375h-.688Z" transform="translate(-9 -21)"/>
    </g>
    <g id="Group_715" data-name="Group 715" transform="translate(8.032 7.392)">
      <path id="Path_4288" data-name="Path 4288" d="M29.72,39H9.781A3.785,3.785,0,0,1,6,35.221V9.781A3.785,3.785,0,0,1,9.781,6H20.562V8.063H9.781A1.721,1.721,0,0,0,8.063,9.781V35.221a1.721,1.721,0,0,0,1.719,1.719H29.72a1.721,1.721,0,0,0,1.719-1.719V27.08H33.5v8.141A3.785,3.785,0,0,1,29.72,39Z" transform="translate(-6 -6)"/>
    </g>
    <g id="Group_716" data-name="Group 716" transform="translate(19.033 28.018)">
      <path id="Path_4289" data-name="Path 4289" d="M17.094,29.251H15.031A1.032,1.032,0,0,1,14,28.219V22.031A1.032,1.032,0,0,1,15.031,21h2.063A2.409,2.409,0,0,1,19.5,23.406v3.438A2.409,2.409,0,0,1,17.094,29.251Zm-1.031-2.063h1.031a.344.344,0,0,0,.344-.344V23.406a.344.344,0,0,0-.344-.344H16.063Z" transform="translate(-14 -21)"/>
    </g>
    <g id="Group_717" data-name="Group 717" transform="translate(25.908 28.018)">
      <path id="Path_4290" data-name="Path 4290" d="M21.063,29.251H19V23.406A2.409,2.409,0,0,1,21.406,21H24.5v2.063H21.406a.344.344,0,0,0-.344.344Z" transform="translate(-19 -21)"/>
    </g>
    <g id="Group_718" data-name="Group 718" transform="translate(25.908 31.456)">
      <path id="Path_4291" data-name="Path 4291" d="M19,23.5h5.5v2.063H19Z" transform="translate(-19 -23.5)"/>
    </g>
    <g id="Group_719" data-name="Group 719" transform="translate(23.158 7.392)">
      <path id="Path_4292" data-name="Path 4292" d="M25.938,23.876a8.938,8.938,0,1,1,8.938-8.938A8.948,8.948,0,0,1,25.938,23.876Zm0-15.814a6.875,6.875,0,1,0,6.875,6.875A6.883,6.883,0,0,0,25.938,8.063Z" transform="translate(-17 -6)"/>
    </g>
    <g id="Group_720" data-name="Group 720" transform="translate(31.065 12.548)">
      <path id="Path_4293" data-name="Path 4293" d="M22.75,9.75h2.063v7.563H22.75Z" transform="translate(-22.75 -9.75)"/>
    </g>
    <g id="Group_721" data-name="Group 721" transform="translate(28.314 15.298)">
      <path id="Path_4294" data-name="Path 4294" d="M20.75,11.75h7.563v2.063H20.75Z" transform="translate(-20.75 -11.75)"/>
    </g>
    <g id="Group_722" data-name="Group 722" transform="translate(43.366 9.217)">
      <path id="Path_4295" data-name="Path 4295" d="M0,0H1.375V2.75H0Z" transform="translate(0 0.972) rotate(-45)" fill="#a4afc1"/>
    </g>
    <g id="Group_723" data-name="Group 723" transform="translate(37.769 3.614)">
      <path id="Path_4296" data-name="Path 4296" d="M0,0H1.375V2.75H0Z" transform="translate(0 0.972) rotate(-45)" fill="#a4afc1"/>
    </g>
    <g id="Group_724" data-name="Group 724" transform="translate(43.363 3.865)">
      <path id="Path_4297" data-name="Path 4297" d="M0,0H2.75V1.375H0Z" transform="translate(0 1.944) rotate(-45)" fill="#a4afc1"/>
    </g>
  </g>
</svg>
