<svg xmlns="http://www.w3.org/2000/svg" xmlns:xlink="http://www.w3.org/1999/xlink" width="51" height="51" viewBox="0 0 51 51">
  <defs>
    <filter id="Ellipse_125" x="0" y="0" width="51" height="51" filterUnits="userSpaceOnUse">
      <feOffset dy="3" input="SourceAlpha"/>
      <feGaussianBlur stdDeviation="3" result="blur"/>
      <feFlood flood-opacity="0.161"/>
      <feComposite operator="in" in2="blur"/>
      <feComposite in="SourceGraphic"/>
    </filter>
  </defs>
  <g id="Group_18392" data-name="Group 18392" transform="translate(-31 -381)">
    <g transform="matrix(1, 0, 0, 1, 31, 381)" filter="url(#Ellipse_125)">
      <circle id="Ellipse_125-2" data-name="Ellipse 125" cx="16.5" cy="16.5" r="16.5" transform="translate(9 6)" fill="#feca2e"/>
    </g>
    <g id="placeholder" transform="translate(46 389)">
      <path id="Path_625" data-name="Path 625" d="M18.941,10.407A1.577,1.577,0,0,0,17.4,11.666H14.377l.472-.63a3.148,3.148,0,1,0-5.036,0l.472.63H4.116A1.574,1.574,0,0,0,1,11.98v8.813a1.576,1.576,0,0,0,1.574,1.574H18.941a1.576,1.576,0,0,0,1.574-1.574V11.98A1.576,1.576,0,0,0,18.941,10.407ZM17.367,19.22H16.108V17.961h1.259Zm0-1.889H16.108a.63.63,0,0,0-.63.63V19.22a.63.63,0,0,0,.63.63h1.259v.63H16.108a.63.63,0,0,0-.63.63v.63h-.63V18.275a.945.945,0,0,0-.944-.944H11.072a.945.945,0,0,0-.944.944v3.462H9.5V17.646a.314.314,0,0,0-.315-.315H6.98a.314.314,0,0,0-.315.315v.248a7.156,7.156,0,0,1-1.12,3.843H4.754a7.149,7.149,0,0,0,1.282-4.092.314.314,0,0,0-.315-.315H4.148V16.7h.944a.945.945,0,0,0,.944-.944v-.893a.629.629,0,0,1,.431-.6l1.541-.514a1.258,1.258,0,0,0,.861-1.194V12.3H9.5v.528a1.572,1.572,0,0,1-1.076,1.493L7.1,14.757a.629.629,0,0,0-.431.6v.4a.945.945,0,0,0,.944.944h6.3a.945.945,0,0,0,.944-.944V12.3h.63v3.462a.945.945,0,0,0,.944.944h.944ZM14.22,21.738H10.757V18.275a.315.315,0,0,1,.315-.315h2.833a.315.315,0,0,1,.315.315Zm-5.351,0H6.284a7.777,7.777,0,0,0,1.011-3.777H8.869ZM4.148,16.072V12.3H8.239v.264a.629.629,0,0,1-.431.6l-1.541.514a1.258,1.258,0,0,0-.861,1.194v.893a.315.315,0,0,1-.315.315Zm13.22,0h-.944a.315.315,0,0,1-.315-.315V12.3h1.259ZM12.331,6.63a2.518,2.518,0,0,1,2.014,4.029l-2.014,2.686-2.014-2.686A2.518,2.518,0,0,1,12.331,6.63Zm.944,7.239c0,.341-.432.63-.944.63s-.944-.288-.944-.63a.537.537,0,0,1,.242-.412l.45.6a.315.315,0,0,0,.5,0l.45-.6A.537.537,0,0,1,13.275,13.869Zm-2.025-.917a1.155,1.155,0,0,0-.493.917,1.445,1.445,0,0,0,1.574,1.259,1.445,1.445,0,0,0,1.574-1.259,1.155,1.155,0,0,0-.493-.917l.493-.657h.315v3.462a.315.315,0,0,1-.315.315H7.61a.315.315,0,0,1-.315-.315v-.4l1.326-.442a2.2,2.2,0,0,0,1.506-2.09V12.3h.63ZM1.63,11.98a.944.944,0,1,1,1.889,0v7.555a1.571,1.571,0,0,0-1.889,0Zm0,8.813a.944.944,0,1,1,1.889,0,.315.315,0,0,0,.63,0V17.961H5.4a6.525,6.525,0,0,1-1.214,3.5l-.2.279H2.574a.945.945,0,0,1-.944-.944Zm17.312.944H16.108v-.63h1.574A.314.314,0,0,0,18,20.794a.944.944,0,1,1,.944.944Zm.944-2.2a1.571,1.571,0,0,0-1.889,0V11.98a.944.944,0,1,1,1.889,0Z" transform="translate(0 0)" fill="#fff"/>
      <path id="Path_626" data-name="Path 626" d="M33.574,13.148A1.574,1.574,0,1,0,32,11.574,1.576,1.576,0,0,0,33.574,13.148Zm0-2.518a.944.944,0,1,1-.944.944A.945.945,0,0,1,33.574,10.63Z" transform="translate(-21.243 -2.741)" fill="#fff"/>
    </g>
  </g>
</svg>
