<?xml version="1.0" encoding="iso-8859-1"?>
<!-- Generator: Adobe Illustrator 18.0.0, SVG Export Plug-In . SVG Version: 6.00 Build 0)  -->
<!DOCTYPE svg PUBLIC "-//W3C//DTD SVG 1.1//EN" "http://www.w3.org/Graphics/SVG/1.1/DTD/svg11.dtd">
<svg version="1.1" id="Capa_1" xmlns="http://www.w3.org/2000/svg" xmlns:xlink="http://www.w3.org/1999/xlink" x="0px" y="0px"
	 viewBox="0 0 294.516 294.516" style="enable-background:new 0 0 294.516 294.516;" xml:space="preserve">
<g>
	<path d="M291.587,189.687l-38.895-38.894c-7.717-7.717-21.766-13.535-32.677-13.535h-102c-13.785,0-25,11.215-25,25v3
		c0,13.785,11.215,25,25,25h26.857l-5.322,5.322c-3.635,3.635-11.878,6.386-16.971,5.657L36.779,188.98
		c-11.286-1.613-24.866,2.239-31.584,8.957c-4.174,4.174-5.958,9.734-4.894,15.254c1.248,6.48,6.191,12.009,13.564,15.168
		l87.925,37.682c9.627,4.126,24.546,5.32,34.704,2.781l36.896-9.225c8.631-2.158,21.762-6.676,29.894-10.286l9.745-4.326
		c3.603-1.599,9.748-0.316,12.408,2.589l35.204,38.438c1.973,2.154,4.671,3.246,7.378,3.246c2.412,0,4.832-0.868,6.751-2.625
		c4.073-3.73,4.351-10.057,0.621-14.129l-35.205-38.438c-8.403-9.176-23.897-12.408-35.272-7.36l-9.745,4.326
		c-7.002,3.108-19.197,7.305-26.63,9.163l-36.896,9.225c-5.906,1.477-16.378,0.636-21.974-1.762l-87.202-37.372
		c3.061-1.206,7.561-2.065,11.486-1.507l85.801,12.258c11.289,1.618,25.88-3.252,33.94-11.313l11.787-11.787
		c8.213-8.213,6.409-15.596,5.252-18.389c-1.157-2.793-5.102-9.289-16.717-9.289h-36c-2.71,0-5-2.29-5-5v-3c0-2.71,2.29-5,5-5h102
		c5.58,0,14.589,3.731,18.535,7.678l38.893,38.894c3.906,3.904,10.236,3.904,14.143,0
		C295.492,199.924,295.492,193.592,291.587,189.687z"/>
	<path d="M38.934,92.758c0.562,0,1.118-0.023,1.672-0.059c-1.406,4.673-2.172,9.62-2.172,14.744
		c0,20.592,13.636,22.815,19.499,22.815c4.354,0,9.017-1.002,13.953-2.063c5.459-1.173,11.646-2.502,17.799-2.502
		c6.153,0,12.339,1.329,17.797,2.502c4.936,1.06,9.599,2.063,13.952,2.063c0.001,0,0.002,0,0.003,0
		c5.862,0,19.497-2.225,19.497-22.815c0-5.124-0.765-10.071-2.172-14.744c0.554,0.035,1.11,0.059,1.672,0.059
		c14.612,0,26.5-11.888,26.5-26.5c0-13.455-10.323-33-26.5-33c-14.702,0-24.566,16.143-26.244,29.186
		c-2.67-1.459-5.487-2.678-8.417-3.648c6.323-4.848,10.411-12.473,10.411-21.037c0-13.251-10.323-32.5-26.5-32.5
		s-26.5,19.249-26.5,32.5c0,8.565,4.088,16.189,10.411,21.037c-2.93,0.972-5.747,2.189-8.417,3.649
		C63.5,49.401,53.636,33.258,38.934,33.258c-16.177,0-26.5,19.545-26.5,33C12.434,80.87,24.321,92.758,38.934,92.758z M140.434,53.3
		c2.309,0.926,6.5,7.938,6.5,12.958c0,3.584-2.916,6.5-6.5,6.5s-6.5-2.916-6.5-6.5C133.934,61.238,138.125,54.226,140.434,53.3z
		 M89.684,25.276c2.064,0.626,6.5,7.176,6.5,12.482c0,3.584-2.916,6.5-6.5,6.5s-6.5-2.916-6.5-6.5
		C83.184,32.451,87.619,25.902,89.684,25.276z M120.934,110.239c-2.253-0.127-5.744-0.843-9.251-1.597
		c-6.112-1.313-13.721-2.948-21.998-2.948c-8.277,0-15.887,1.635-22,2.948c-3.507,0.754-6.998,1.469-9.251,1.597
		c0-17.231,14.02-34.045,31.251-34.045C106.915,76.194,120.934,93.007,120.934,110.239z M38.934,53.3
		c2.309,0.926,6.5,7.938,6.5,12.958c0,3.584-2.916,6.5-6.5,6.5s-6.5-2.916-6.5-6.5C32.434,61.238,36.625,54.226,38.934,53.3z"/>
</g>
<g>
</g>
<g>
</g>
<g>
</g>
<g>
</g>
<g>
</g>
<g>
</g>
<g>
</g>
<g>
</g>
<g>
</g>
<g>
</g>
<g>
</g>
<g>
</g>
<g>
</g>
<g>
</g>
<g>
</g>
</svg>
