<svg xmlns="http://www.w3.org/2000/svg" width="23" height="23" viewBox="0 0 23 23">
  <g id="Group_1113" data-name="Group 1113" transform="translate(-225 -573)">
    <circle id="Ellipse_103" data-name="Ellipse 103" cx="11.5" cy="11.5" r="11.5" transform="translate(225 573)" fill="#0d2c57"/>
    <path id="Icon_awesome-apple" data-name="Icon awesome-apple" d="M9.429,9.131a2.714,2.714,0,0,1,1.453-2.465,3.123,3.123,0,0,0-2.462-1.3c-1.032-.081-2.16.6-2.573.6A19.9,19.9,0,0,0,3.627,5.4C2.005,5.424.281,6.692.281,9.27A7.245,7.245,0,0,0,.7,11.631c.372,1.067,1.715,3.683,3.116,3.64.733-.017,1.25-.52,2.2-.52.924,0,1.4.52,2.221.52,1.413-.02,2.628-2.4,2.983-3.468A2.882,2.882,0,0,1,9.429,9.131ZM7.784,4.358a2.738,2.738,0,0,0,.7-2.108A3.082,3.082,0,0,0,6.508,3.265a2.781,2.781,0,0,0-.744,2.09A2.441,2.441,0,0,0,7.784,4.358Z" transform="translate(230.719 575.75)" fill="#fff"/>
  </g>
</svg>
