<svg xmlns="http://www.w3.org/2000/svg" width="21.905" height="21.906" viewBox="0 0 21.905 21.906">
  <g id="blind" transform="translate(-0.001)">
    <path id="Path_4347" data-name="Path 4347" d="M21.744,13.935l-1.8-1.426V10.953a.428.428,0,0,0-.128-.3.433.433,0,0,0-.307-.123,1.93,1.93,0,0,0-1.729,1.141l-.231.519-.827,1.353a1.742,1.742,0,0,1-1.478.829h-2.77a2.7,2.7,0,0,0-1.938.819,3.251,3.251,0,0,1-2.356.772l.06-.363a5.377,5.377,0,0,0-.179-2.489l-.84-2.648V8.733a7.014,7.014,0,0,0,3.338.836H11.6a1.369,1.369,0,0,0,.479-.086l2.239,2.239a.428.428,0,1,0,.605-.605L12.745,8.944a1.358,1.358,0,0,0,.218-.793,1.376,1.376,0,0,0-1.391-1.32H10.8c0-.015,0-.029,0-.044a.514.514,0,0,1,.513-.513h.78a.428.428,0,1,0,0-.856h-.78A1.37,1.37,0,0,0,9.946,6.786a2.578,2.578,0,0,1-2.037-1.98,2.081,2.081,0,0,0-.227-.572A2.149,2.149,0,1,0,5.351,3.28,2.078,2.078,0,0,0,4.04,4.361a10.468,10.468,0,0,0-1.066,4.59v1.574a5.564,5.564,0,0,0,.466,2.224l-.495,2.706L.913,18.069h0c-.007.009-.014.02-.021.03l-.005.007h0L.095,19.391a.631.631,0,0,0,.205.867l2.566,1.584a.428.428,0,0,0,.589-.139,2.125,2.125,0,0,0,.261-1.616,2.155,2.155,0,0,0-.166-.46l.924-1.04-.144,1.126v0c0,.009,0,.017,0,.026s0,.013,0,.02,0,0,0,0v1.711a.428.428,0,0,0,.428.428H7.973a.428.428,0,0,0,.428-.428,2.137,2.137,0,0,0-.851-1.706l.488-2.967c.128.012.255.018.382.018a4.1,4.1,0,0,0,1.392-.244c-.011.058-.02.118-.027.178l-.5,4.271a.787.787,0,0,0,.781.878h1.009a.428.428,0,0,0,.4-.287l.18-.513.083.255a.785.785,0,0,0,.748.544h.8a.786.786,0,0,0,.758-1l-.48-1.732h1.789l-.5,1.723a.787.787,0,0,0,.755,1.006H16.4a.784.784,0,0,0,.749-.548l.028-.088.146.247a.789.789,0,0,0,.678.388h.806a.786.786,0,0,0,.734-1.069l-.931-2.423a2.964,2.964,0,0,0,.667-1.394l0-.01v-.005L19.5,15.8h.707a1.643,1.643,0,0,0,1.536-1.044l.13-.328A.428.428,0,0,0,21.744,13.935ZM7.175.856A1.292,1.292,0,1,1,5.883,2.148,1.293,1.293,0,0,1,7.175.856Zm-3.346,8.1a9.61,9.61,0,0,1,.979-4.213A1.211,1.211,0,0,1,7.075,5a3.421,3.421,0,0,0,2.969,2.662c.147.014.3.022.446.024h1.083a.53.53,0,0,1,.536.494.513.513,0,0,1-.513.532h-1.04A6.15,6.15,0,0,1,7.04,7.622l0,0a6.294,6.294,0,0,1-.862-.72.428.428,0,0,0-.605.605,7.166,7.166,0,0,0,.794.685V10.1H3.829Zm-.939,11.9-1.949-1.2.449-.728.918.567a1.286,1.286,0,0,1,.581,1.364Zm.142-1.929-1.149-.705,1.8-2.319a.427.427,0,0,0,.083-.186l.334-1.83a5.508,5.508,0,0,0,.63.7l.226.212-.291,2.287Zm2.151,2.128v-.856H6.262a1.286,1.286,0,0,1,1.21.856Zm.058-1.711L5.5,17.325v0l.336-2.636A.429.429,0,0,0,5.7,14.32l-.385-.361a4.726,4.726,0,0,1-1.468-3.006H6.477l.765,2.413a4.517,4.517,0,0,1,.151,2.091l-.639,3.882Zm11.822-4.867L18.6,16.006l-.09.5H16.354V14.97A2.617,2.617,0,0,0,17.063,14.472ZM13.2,21.051h-.66l-.412-1.268c.086-.239.162-.45.22-.606h.332Zm-1.145-2.729a.428.428,0,0,0-.392.257c-.107.246-.654,1.8-.89,2.472h-.628l.493-4.193a1.844,1.844,0,0,1,.5-1.059l0,0a1.846,1.846,0,0,1,1.336-.571h2.77a2.5,2.5,0,0,0,.256-.013v3.111Zm4.3,2.729H15.7l.632-2.174v0l0-.007,0-.008c0-.012.006-.023.008-.035s0-.011,0-.016,0-.02,0-.03,0-.012,0-.019,0-.008,0-.012V17.357h1.929a2.1,2.1,0,0,1-.446.634l-.025.024a2.137,2.137,0,0,1-.468.334.427.427,0,0,0-.208.249Zm1.691,0-.514-.875.37-1.159L17.923,19l.787,2.048Zm2.906-6.609a.792.792,0,0,1-.741.5H19.146a.427.427,0,0,0-.288.112l-1.28-1.28.714-1.168a.418.418,0,0,0,.026-.049l.242-.545a1.071,1.071,0,0,1,.526-.534v1.235a.428.428,0,0,0,.162.336l1.716,1.357Zm0,0" transform="translate(0)" fill="#fff"/>
    <path id="Path_4348" data-name="Path 4348" d="M436.895,311.516a.428.428,0,1,0,.3-.125A.431.431,0,0,0,436.895,311.516Zm0,0" transform="translate(-418.081 -298.068)" fill="#fff"/>
    <path id="Path_4349" data-name="Path 4349" d="M360.318,286.067a.428.428,0,1,0-.3-.125A.43.43,0,0,0,360.318,286.067Zm0,0" transform="translate(-344.492 -273.008)" fill="#fff"/>
  </g>
</svg>
