<svg xmlns="http://www.w3.org/2000/svg" width="32.304" height="45.368" viewBox="0 0 32.304 45.368">
  <g id="border-collie-head" transform="translate(-136.677 0)">
    <g id="Group_750" data-name="Group 750" transform="translate(136.677 0)">
      <path id="Path_4305" data-name="Path 4305" d="M213.648.468a13.223,13.223,0,0,0-.507,8.474,16.746,16.746,0,0,1,3.221-2.351,18.954,18.954,0,0,1,4.263-1.754,14.166,14.166,0,0,0-6-4.784A.764.764,0,0,0,213.648.468Z" transform="translate(-209.055 -0.001)" fill="#707070"/>
      <path id="Path_4306" data-name="Path 4306" d="M572.083,4.859a19.169,19.169,0,0,1,4.177,1.725,16.822,16.822,0,0,1,3.3,2.428,13.266,13.266,0,0,0-.483-8.55.773.773,0,0,0-.98-.411A14.173,14.173,0,0,0,572.083,4.859Z" transform="translate(-551.274 0)" fill="#707070"/>
      <path id="Path_4307" data-name="Path 4307" d="M168.216,141.43a.483.483,0,0,0,.765-.406c-.435-14.5-10.94-17.086-14.773-17.55a2.36,2.36,0,0,1,1.157,2.046,4.943,4.943,0,0,1-.325,1.84c-1.41,3.909-.793,10.481,1.553,13.4s1.525,8.187-3.742,8.187-6.084-5.267-3.737-8.187,2.968-9.492,1.558-13.4a4.941,4.941,0,0,1-.325-1.84,2.336,2.336,0,0,1,1.171-2.055c-3.771.44-14.4,2.963-14.84,17.559a.482.482,0,0,0,.483.5.494.494,0,0,0,.282-.091,5.683,5.683,0,0,0,1.787-1.773,37.581,37.581,0,0,0-.349,7.221.478.478,0,0,0,.483.444.473.473,0,0,0,.416-.244,8.283,8.283,0,0,1,2.012-2.61,7.83,7.83,0,0,0,1.692,7.064,28.057,28.057,0,0,1,4.746,8.182.481.481,0,0,0,.9.01l.951-2.461a22.778,22.778,0,0,0,1.023,5.362.468.468,0,0,0,.449.306.482.482,0,0,0,.435-.272l.832-1.716.836,1.716a.482.482,0,0,0,.435.272.475.475,0,0,0,.449-.306,23.034,23.034,0,0,0,1.032-5.367l.951,2.461a.481.481,0,0,0,.9-.01,28.057,28.057,0,0,1,4.746-8.182,7.83,7.83,0,0,0,1.692-7.064,8.283,8.283,0,0,1,2.012,2.609.481.481,0,0,0,.9-.2,37.58,37.58,0,0,0-.349-7.222A5.7,5.7,0,0,0,168.216,141.43Zm-23.2-7.666a1.73,1.73,0,1,1,1.73,1.73A1.73,1.73,0,0,1,145.013,133.764Zm13.913,1.73a1.73,1.73,0,1,1,1.73-1.73A1.73,1.73,0,0,1,158.925,135.494Z" transform="translate(-136.677 -117.564)" fill="#707070"/>
      <ellipse id="Ellipse_170" data-name="Ellipse 170" cx="2.786" cy="1.998" rx="2.786" ry="1.998" transform="translate(13.363 25.4)" fill="#707070"/>
    </g>
  </g>
</svg>
