<svg xmlns="http://www.w3.org/2000/svg" width="48.45" height="38.668" viewBox="0 0 48.45 38.668">
  <g id="border-collie-dog-head" transform="translate(0.001 -94.94)">
    <g id="Group_751" data-name="Group 751" transform="translate(-0.001 94.94)">
      <path id="Path_4308" data-name="Path 4308" d="M5.015,105.862a14.056,14.056,0,0,1,3.292-.716,20.8,20.8,0,0,1,2.844-5.759,15.782,15.782,0,0,1,2.545-2.771,12.222,12.222,0,0,0-8.412-1.422c-3.9.9-4.976,4.564-5.275,6.671a.77.77,0,0,0,1.092.8,6.759,6.759,0,0,1,4.276-.562,13.225,13.225,0,0,0-1.35,2.746A.778.778,0,0,0,5.015,105.862Z" transform="translate(0.001 -94.94)" fill="#707070"/>
      <path id="Path_4309" data-name="Path 4309" d="M392.861,577.474a2.225,2.225,0,0,0,1.231,1.813,5.63,5.63,0,0,0,2.766.7,5.762,5.762,0,0,0,2.761-.7,2.219,2.219,0,0,0,1.226-1.813c0-1.381-1.772-2.509-3.987-2.509S392.861,576.093,392.861,577.474Z" transform="translate(-372.623 -550.237)" fill="#707070"/>
      <path id="Path_4310" data-name="Path 4310" d="M687.256,102.868a.774.774,0,0,0,1.092-.8c-.3-2.107-1.375-5.77-5.275-6.671a12.228,12.228,0,0,0-8.412,1.422,15.407,15.407,0,0,1,2.545,2.771,20.655,20.655,0,0,1,2.844,5.759,13.8,13.8,0,0,1,3.292.716.773.773,0,0,0,.989-1,12.855,12.855,0,0,0-1.35-2.746A6.627,6.627,0,0,1,687.256,102.868Z" transform="translate(-639.906 -95.129)" fill="#707070"/>
      <path id="Path_4311" data-name="Path 4311" d="M141.264,130.435a.772.772,0,0,0,.773-.871,152.41,152.41,0,0,0-4.312-21.028c-.17-.618-.68-2.1-.747-2.277a16.78,16.78,0,0,0-3.441-5.6,12.312,12.312,0,0,0-5.656-3.374,18.75,18.75,0,0,0-3.822-.515s-.01,14.656,3.513,20.467c2.313,3.812,3.05,7.047,2.019,8.881a3.9,3.9,0,0,1-2.045,1.633,14.954,14.954,0,0,1-8.716,0,4.21,4.21,0,0,1-2.045-1.633c-1.03-1.834-.3-5.069,2.019-8.881,3.529-5.806,3.518-20.462,3.518-20.462a18.7,18.7,0,0,0-3.822.515,12.3,12.3,0,0,0-5.656,3.374,16.864,16.864,0,0,0-3.441,5.6c-.067.17-.577,1.659-.747,2.277a152.266,152.266,0,0,0-4.312,21.028.772.772,0,0,0,.773.871.756.756,0,0,0,.51-.2l2.05-1.839a17.423,17.423,0,0,0-.036,6.305.772.772,0,0,0,.762.628.74.74,0,0,0,.562-.252c1.478-1.607,4.379-4.714,6.692-6.913-.088.108,1.334,1.066,1.437,1.123a12.373,12.373,0,0,0,6.094,1.272h.005a12.4,12.4,0,0,0,6.084-1.272,5.978,5.978,0,0,0,1.437-1.123c2.313,2.2,5.213,5.311,6.692,6.918a.768.768,0,0,0,1.324-.376,17.348,17.348,0,0,0-.026-6.316l2.05,1.839A.756.756,0,0,0,141.264,130.435Zm-26.978-23.671a1.648,1.648,0,1,1,1.648,1.648A1.647,1.647,0,0,1,114.286,106.764Zm16.16,1.648a1.648,1.648,0,1,1,1.648-1.648A1.647,1.647,0,0,1,130.446,108.412Z" transform="translate(-98.962 -96.671)" fill="#707070"/>
    </g>
  </g>
</svg>
