<svg xmlns="http://www.w3.org/2000/svg" width="43" height="23" viewBox="0 0 43 23">
  <g id="Group_18263" data-name="Group 18263" transform="translate(-46 -453)">
    <path id="Icon_ionic-ios-call" data-name="Icon ionic-ios-call" d="M19.75,16.806a13.2,13.2,0,0,0-2.757-1.845c-.826-.4-1.129-.389-1.714.033-.487.352-.8.679-1.362.556a8.126,8.126,0,0,1-2.737-2.025,8.068,8.068,0,0,1-2.025-2.737c-.119-.565.209-.875.556-1.362.421-.585.434-.888.033-1.714A12.938,12.938,0,0,0,7.9,4.955c-.6-.6-.736-.47-1.068-.352a6.075,6.075,0,0,0-.978.52A2.949,2.949,0,0,0,4.68,6.362c-.233.5-.5,1.44.871,3.886a21.684,21.684,0,0,0,3.812,5.085h0l0,0,0,0h0a21.769,21.769,0,0,0,5.085,3.812c2.446,1.374,3.383,1.1,3.886.871a2.9,2.9,0,0,0,1.239-1.174,6.075,6.075,0,0,0,.52-.978C20.22,17.542,20.355,17.407,19.75,16.806Z" transform="translate(55.153 452.142)" fill="#3876ba"/>
    <g id="Rectangle_282" data-name="Rectangle 282" transform="translate(46 453)" fill="none" stroke="#3876ba" stroke-width="1">
      <rect width="43" height="23" rx="11.5" stroke="none"/>
      <rect x="0.5" y="0.5" width="42" height="22" rx="11" fill="none"/>
    </g>
  </g>
</svg>
