<svg xmlns="http://www.w3.org/2000/svg" width="24.08" height="29.5" viewBox="0 0 24.08 29.5">
  <g id="choices" transform="translate(-47.031)">
    <g id="Group_621" data-name="Group 621" transform="translate(49.987 4.434)">
      <g id="Group_620" data-name="Group 620" transform="translate(0)">
        <path id="Path_584" data-name="Path 584" d="M101.756,78.438a.462.462,0,0,0-.462.462,1.016,1.016,0,1,1-1.016-1.016.462.462,0,1,0,0-.924,1.94,1.94,0,1,0,1.94,1.94A.462.462,0,0,0,101.756,78.438Z" transform="translate(-98.338 -76.96)" fill="#fff"/>
      </g>
    </g>
    <g id="Group_623" data-name="Group 623" transform="translate(49.987 9.854)">
      <g id="Group_622" data-name="Group 622" transform="translate(0)">
        <path id="Path_585" data-name="Path 585" d="M101.756,172.5a.462.462,0,0,0-.462.462,1.016,1.016,0,1,1-1.016-1.016.462.462,0,1,0,0-.924,1.94,1.94,0,1,0,1.94,1.94A.462.462,0,0,0,101.756,172.5Z" transform="translate(-98.338 -171.022)" fill="#fff"/>
      </g>
    </g>
    <g id="Group_625" data-name="Group 625" transform="translate(54.914 12.317)">
      <g id="Group_624" data-name="Group 624">
        <path id="Path_586" data-name="Path 586" d="M187.76,213.779h-3.449a.462.462,0,0,0,0,.924h3.449a.462.462,0,1,0,0-.924Z" transform="translate(-183.849 -213.779)" fill="#fff"/>
      </g>
    </g>
    <g id="Group_627" data-name="Group 627" transform="translate(54.914 10.347)">
      <g id="Group_626" data-name="Group 626">
        <path id="Path_587" data-name="Path 587" d="M187.76,179.574h-3.449a.462.462,0,0,0,0,.924h3.449a.462.462,0,0,0,0-.924Z" transform="translate(-183.849 -179.574)" fill="#fff"/>
      </g>
    </g>
    <g id="Group_629" data-name="Group 629" transform="translate(54.914 17.737)">
      <g id="Group_628" data-name="Group 628">
        <path id="Path_588" data-name="Path 588" d="M186.774,307.841h-2.463a.462.462,0,0,0,0,.924h2.463a.462.462,0,1,0,0-.924Z" transform="translate(-183.849 -307.841)" fill="#fff"/>
      </g>
    </g>
    <g id="Group_631" data-name="Group 631" transform="translate(54.914 15.766)">
      <g id="Group_630" data-name="Group 630">
        <path id="Path_589" data-name="Path 589" d="M187.76,273.637h-3.449a.462.462,0,0,0,0,.924h3.449a.462.462,0,0,0,0-.924Z" transform="translate(-183.849 -273.637)" fill="#fff"/>
      </g>
    </g>
    <g id="Group_633" data-name="Group 633" transform="translate(54.914 6.898)">
      <g id="Group_632" data-name="Group 632">
        <path id="Path_590" data-name="Path 590" d="M192.194,119.716h-7.883a.462.462,0,0,0,0,.924h7.883a.462.462,0,0,0,0-.924Z" transform="translate(-183.849 -119.716)" fill="#fff"/>
      </g>
    </g>
    <g id="Group_635" data-name="Group 635" transform="translate(54.914 4.927)">
      <g id="Group_634" data-name="Group 634">
        <path id="Path_591" data-name="Path 591" d="M190.223,85.511h-5.912a.462.462,0,0,0,0,.924h5.912a.462.462,0,0,0,0-.924Z" transform="translate(-183.849 -85.511)" fill="#fff"/>
      </g>
    </g>
    <g id="Group_637" data-name="Group 637" transform="translate(49.987 15.273)">
      <g id="Group_636" data-name="Group 636" transform="translate(0)">
        <path id="Path_592" data-name="Path 592" d="M101.756,266.563a.462.462,0,0,0-.462.462,1.016,1.016,0,1,1-1.016-1.016.462.462,0,1,0,0-.924,1.94,1.94,0,1,0,1.94,1.94A.462.462,0,0,0,101.756,266.563Z" transform="translate(-98.338 -265.085)" fill="#fff"/>
      </g>
    </g>
    <g id="Group_639" data-name="Group 639" transform="translate(47.031)">
      <g id="Group_638" data-name="Group 638" transform="translate(0)">
        <path id="Path_593" data-name="Path 593" d="M65.23,0H48.478a1.449,1.449,0,0,0-1.447,1.447V22.14a1.449,1.449,0,0,0,1.447,1.447h8.376a.462.462,0,1,0,0-.924H48.478a.524.524,0,0,1-.524-.524V1.447a.524.524,0,0,1,.524-.524H65.23a.524.524,0,0,1,.524.524V16.721a.462.462,0,1,0,.924,0V1.447A1.449,1.449,0,0,0,65.23,0Z" transform="translate(-47.031)" fill="#fff"/>
      </g>
    </g>
    <g id="Group_641" data-name="Group 641" transform="translate(58.118 10.347)">
      <g id="Group_640" data-name="Group 640" transform="translate(0)">
        <path id="Path_594" data-name="Path 594" d="M250.925,187.962a1.7,1.7,0,0,0-1.2.337,1.682,1.682,0,0,0-1.266-.829,1.7,1.7,0,0,0-1.2.337,1.682,1.682,0,0,0-1.266-.829,1.706,1.706,0,0,0-.943.177v-5.882a1.694,1.694,0,0,0-1.867-1.685,1.748,1.748,0,0,0-1.521,1.755v5.9L240.31,188.6a2.907,2.907,0,0,0-.779,2.739l1.031,4.381a3.9,3.9,0,0,0,3.807,3.015h4.166a3.915,3.915,0,0,0,3.911-3.911v-5.1A1.747,1.747,0,0,0,250.925,187.962Zm.6,6.858a2.99,2.99,0,0,1-2.987,2.987h-4.166a2.976,2.976,0,0,1-2.908-2.3l-1.031-4.381a1.989,1.989,0,0,1,.533-1.874l.7-.7v1.595a.462.462,0,1,0,.924,0v-8.8a.817.817,0,0,1,.689-.836.77.77,0,0,1,.851.766V189.4a.462.462,0,0,0,.924,0v-.739a.77.77,0,0,1,.851-.766.817.817,0,0,1,.689.836v1.161a.462.462,0,0,0,.924,0v-.739a.77.77,0,0,1,.851-.766.817.817,0,0,1,.689.836v1.161a.462.462,0,0,0,.924,0v-.739a.77.77,0,0,1,.851-.766.817.817,0,0,1,.689.836v5.1Z" transform="translate(-239.452 -179.578)" fill="#fff"/>
      </g>
    </g>
  </g>
</svg>
