<svg xmlns="http://www.w3.org/2000/svg" width="22" height="20.534" viewBox="0 0 22 20.534">
  <g id="outline" transform="translate(-2 -4)">
    <path id="Path_15080" data-name="Path 15080" d="M6,54h.733v.733H6Z" transform="translate(-2.533 -31.667)" fill="#fff"/>
    <path id="Path_15081" data-name="Path 15081" d="M10,54h.733v.733H10Z" transform="translate(-5.067 -31.667)" fill="#fff"/>
    <path id="Path_15082" data-name="Path 15082" d="M14,54h.733v.733H14Z" transform="translate(-7.6 -31.667)" fill="#fff"/>
    <path id="Path_15083" data-name="Path 15083" d="M18,54h.733v.733H18Z" transform="translate(-10.133 -31.667)" fill="#fff"/>
    <path id="Path_15084" data-name="Path 15084" d="M44,54h.733v.733H44Z" transform="translate(-26.6 -31.667)" fill="#fff"/>
    <path id="Path_15085" data-name="Path 15085" d="M48,54h.733v.733H48Z" transform="translate(-29.133 -31.667)" fill="#fff"/>
    <path id="Path_15086" data-name="Path 15086" d="M52,54h.733v.733H52Z" transform="translate(-31.667 -31.667)" fill="#fff"/>
    <path id="Path_15087" data-name="Path 15087" d="M56,54h.733v.733H56Z" transform="translate(-34.2 -31.667)" fill="#fff"/>
    <path id="Path_15088" data-name="Path 15088" d="M27,42h.733v.733H27Z" transform="translate(-15.833 -24.067)" fill="#fff"/>
    <path id="Path_15089" data-name="Path 15089" d="M35,42h.733v.733H35Z" transform="translate(-20.9 -24.067)" fill="#fff"/>
    <path id="Path_15090" data-name="Path 15090" d="M23.633,10.966h-.66L10.067,5.588V4.366a.367.367,0,0,0-.558-.313L3,8.033h-.63A.367.367,0,0,0,2,8.4V9.866a.367.367,0,0,0,.367.367H3.1V20.866H2.367A.367.367,0,0,0,2,21.233v2.933a.367.367,0,0,0,.367.367H23.633A.367.367,0,0,0,24,24.166V21.233a.367.367,0,0,0-.367-.367H22.9v-7.7h.733A.367.367,0,0,0,24,12.8V11.333A.367.367,0,0,0,23.633,10.966ZM2.733,9.5V8.766H3.1a.369.369,0,0,0,.191-.054L9.333,5.02v.97L3.367,9.5Zm6.6,14.3h-6.6V21.6h6.6Zm6.6,0H10.067v-.733h5.867Zm0-1.467H10.067V21.6h5.867Zm-5.867-1.467V17.2h2.567v3.667Zm5.867,0H13.367V17.2h2.567Zm0-4.4H10.067v-.733h5.867ZM16.3,15H9.7a.367.367,0,0,0-.367.367v5.5h-5.5V10.076l5.5-3.235V7.3a.367.367,0,0,0,.222.337l12.611,5.4v7.825h-5.5v-5.5A.367.367,0,0,0,16.3,15Zm6.967,6.6v2.2h-6.6V21.6Zm0-9.167h-.66L10.067,7.058V6.383l12.692,5.288a.367.367,0,0,0,.141.028h.367Z" transform="translate(0 0)" fill="#fff"/>
    <path id="Path_15091" data-name="Path 15091" d="M13.033,21.1H12.3v-.733A.367.367,0,0,0,11.933,20H10.467a.367.367,0,0,0-.367.367V21.1H9.367A.367.367,0,0,0,9,21.467v1.467a.367.367,0,0,0,.367.367H10.1v.733a.367.367,0,0,0,.367.367h1.467a.367.367,0,0,0,.367-.367V23.3h.733a.367.367,0,0,0,.367-.367V21.467A.367.367,0,0,0,13.033,21.1Zm-.367,1.467h-.733a.367.367,0,0,0-.367.367v.733h-.733v-.733a.367.367,0,0,0-.367-.367H9.733v-.733h.733a.367.367,0,0,0,.367-.367v-.733h.733v.733a.367.367,0,0,0,.367.367h.733Z" transform="translate(-4.433 -10.134)" fill="#fff"/>
    <path id="Path_15092" data-name="Path 15092" d="M12.667,36h-3.3A.367.367,0,0,0,9,36.367v3.667a.367.367,0,0,0,.367.367h3.3a.367.367,0,0,0,.367-.367V36.367A.367.367,0,0,0,12.667,36ZM12.3,39.667H9.733v-.733H12.3Zm0-1.467H9.733V36.733H12.3Z" transform="translate(-4.433 -20.267)" fill="#fff"/>
    <path id="Path_15093" data-name="Path 15093" d="M44.367,40.4h3.3a.367.367,0,0,0,.367-.367V36.367A.367.367,0,0,0,47.667,36h-3.3a.367.367,0,0,0-.367.367v3.667A.367.367,0,0,0,44.367,40.4Zm.367-3.667H47.3V38.2H44.733Zm0,2.2H47.3v.733H44.733Z" transform="translate(-26.6 -20.267)" fill="#fff"/>
    <path id="Path_15094" data-name="Path 15094" d="M28.762,22.985a1.1,1.1,0,0,0-1.037.733H26.132a1.1,1.1,0,1,0-1.988.917,1.1,1.1,0,0,0,1.766,1.283h2.035a1.1,1.1,0,0,0,1.766-1.283,1.1,1.1,0,0,0-.95-1.65ZM29,24.911a.364.364,0,1,1-.554.457.367.367,0,0,0-.317-.183h-2.4a.367.367,0,0,0-.317.183.364.364,0,1,1-.554-.457.367.367,0,0,0,0-.55.367.367,0,1,1,.606-.276.367.367,0,0,0,.367.367h2.2a.367.367,0,0,0,.367-.367.367.367,0,1,1,.606.274.367.367,0,0,0,0,.55Z" transform="translate(-13.929 -12.019)" fill="#fff"/>
  </g>
</svg>
