<svg xmlns="http://www.w3.org/2000/svg" width="16.978" height="20.711" viewBox="0 0 16.978 20.711">
  <g id="color-palette" transform="translate(-46.142 0.002)">
    <path id="Path_628" data-name="Path 628" d="M128.377,171.141a1.624,1.624,0,1,0-1.624-1.624A1.626,1.626,0,0,0,128.377,171.141Zm0-2.642a1.018,1.018,0,1,1-1.018,1.018A1.019,1.019,0,0,1,128.377,168.5Z" transform="translate(-77.35 -161.103)" fill="#fff"/>
    <path id="Path_629" data-name="Path 629" d="M217.729,130.983a1.585,1.585,0,1,0-1.585-1.585A1.587,1.587,0,0,0,217.729,130.983Zm0-2.563a.978.978,0,1,1-.978.978A.979.979,0,0,1,217.729,128.42Z" transform="translate(-163.125 -122.645)" fill="#fff"/>
    <path id="Path_630" data-name="Path 630" d="M145.434,363.286a1.585,1.585,0,1,0-1.585-1.585A1.587,1.587,0,0,0,145.434,363.286Zm0-2.563a.978.978,0,1,1-.978.978A.979.979,0,0,1,145.434,360.723Z" transform="translate(-93.755 -345.551)" fill="#fff"/>
    <path id="Path_631" data-name="Path 631" d="M237.7,392.894a1.585,1.585,0,1,0-1.585-1.585A1.587,1.587,0,0,0,237.7,392.894Zm0-2.563a.978.978,0,1,1-.978.978A.979.979,0,0,1,237.7,390.331Z" transform="translate(-182.291 -373.962)" fill="#fff"/>
    <path id="Path_632" data-name="Path 632" d="M84.953,263.05a1.85,1.85,0,1,0,1.85-1.85A1.852,1.852,0,0,0,84.953,263.05Zm1.85-1.243a1.243,1.243,0,1,1-1.243,1.243A1.244,1.244,0,0,1,86.8,261.807Z" transform="translate(-37.241 -250.637)" fill="#fff"/>
    <path id="Path_633" data-name="Path 633" d="M46.142,12.095c0,4.576,3.943,8.055,8.543,8.335H54.7a.3.3,0,0,0,.018-.606c-4.471-.272-7.973-3.668-7.973-7.73,0-4.6,4.382-8.154,9.39-7.7a2.746,2.746,0,0,0,.8.567.717.717,0,0,0,.009.336l.6,2.208a.648.648,0,0,0-.133.591l.143.526a.649.649,0,0,0,.734.468l.283,1.227c-1.025.467-1.585,1.092-1.585,1.777s.573,1.323,1.613,1.789a2.913,2.913,0,0,1,.952.677,25.833,25.833,0,0,0,.681,2.666,2.843,2.843,0,0,1-1.868,2.085,9.326,9.326,0,0,1-2.277.494.3.3,0,0,0,.053.6,9.933,9.933,0,0,0,2.425-.526,3.485,3.485,0,0,0,1.994-1.772,16.351,16.351,0,0,0,1.119,2.21.768.768,0,0,0,1.435-.39,14.773,14.773,0,0,0-.7-4.82.3.3,0,1,0-.579.182,14.218,14.218,0,0,1,.67,4.645.161.161,0,0,1-.3.082,15.585,15.585,0,0,1-2.081-5.672l-1.25-5.414.891-.242.452,1.44h0l1.2,3.81A.3.3,0,0,0,62,13.761l-1.106-3.527A2.483,2.483,0,0,0,61.6,6.062a9.175,9.175,0,0,0-1.954-1.3l-.05-.183a.7.7,0,0,0-.163-.294,2.371,2.371,0,0,0,.389-1.97A2.258,2.258,0,0,0,58.528.9,4.606,4.606,0,0,1,57.506.174a.583.583,0,0,0-.984.268,4.607,4.607,0,0,1-.512,1.148,2.182,2.182,0,0,0-.3,2.17c-5.15-.222-9.571,3.514-9.571,8.336Zm13.191,1.5a3.681,3.681,0,0,0-.48-.26c-.8-.358-1.254-.808-1.254-1.236,0-.407.4-.825,1.118-1.172ZM61.2,6.52a1.877,1.877,0,0,1-.491,3.134L60.357,8.53a.65.65,0,0,0,.4-.776l-.143-.526a.649.649,0,0,0-.413-.442l-.332-1.222A8.5,8.5,0,0,1,61.2,6.52Zm-1.226.84h0a.041.041,0,0,1,.05.029l.143.526a.041.041,0,0,1-.029.05L58.2,8.492a.041.041,0,0,1-.05-.029L58,7.938a.042.042,0,0,1,.029-.05Zm-.393-.522-1.476.4-.571-2.1a.1.1,0,0,1,.071-.125l1.28-.348a.1.1,0,0,1,.124.071ZM56.538,1.889A5.241,5.241,0,0,0,57.1.626a5.229,5.229,0,0,0,1.124.8c.5.29.865.5,1.013,1.043a1.844,1.844,0,0,1-.388,1.585.753.753,0,0,0-.122.022l-1.28.348a.762.762,0,0,0-.116.043A1.822,1.822,0,0,1,56.193,3.3a1.713,1.713,0,0,1,.345-1.412Z" transform="translate(0 0)" fill="#fff"/>
  </g>
</svg>
