<svg xmlns="http://www.w3.org/2000/svg" width="33.57" height="34.88" viewBox="0 0 33.57 34.88">
  <g id="discount" transform="translate(-9.985 0.425)">
    <g id="Group_654" data-name="Group 654" transform="translate(10.359 -0.002)">
      <g id="Group_653" data-name="Group 653" transform="translate(0 0)">
        <path id="Path_607" data-name="Path 607" d="M41.6,17.545a1,1,0,0,1,0-.886l1.276-2.61a2.969,2.969,0,0,0-1.281-3.943L39.027,8.744a1,1,0,0,1-.521-.717L38,5.166A2.97,2.97,0,0,0,34.65,2.728l-2.876.407a1,1,0,0,1-.843-.274L28.843.842a2.969,2.969,0,0,0-4.146,0l-2.088,2.02a1,1,0,0,1-.843.274L18.89,2.729a2.969,2.969,0,0,0-3.354,2.437l-.5,2.861a1,1,0,0,1-.521.717l-2.566,1.362a2.97,2.97,0,0,0-1.281,3.943l1.276,2.61a1,1,0,0,1,0,.886l-1.276,2.61A2.969,2.969,0,0,0,11.947,24.1l2.566,1.362a1,1,0,0,1,.521.717l.5,2.861a2.968,2.968,0,0,0,2.927,2.467,3.051,3.051,0,0,0,.427-.03l2.876-.407a1,1,0,0,1,.843.274l2.088,2.02a2.969,2.969,0,0,0,4.146,0l2.088-2.02a1,1,0,0,1,.843-.274l2.876.407A2.969,2.969,0,0,0,38,29.038l.5-2.861a1,1,0,0,1,.521-.717L41.594,24.1a2.97,2.97,0,0,0,1.281-3.943Zm-.93,4.81L38.1,23.717a2.963,2.963,0,0,0-1.539,2.119l-.5,2.861a1,1,0,0,1-1.135.825l-2.876-.407a2.962,2.962,0,0,0-2.491.809l-2.088,2.02a1,1,0,0,1-1.4,0l-2.088-2.02a2.96,2.96,0,0,0-2.066-.839,3.028,3.028,0,0,0-.425.03l-2.876.407a1,1,0,0,1-1.135-.825l-.5-2.861a2.962,2.962,0,0,0-1.539-2.119l-2.566-1.362a1,1,0,0,1-.434-1.334l1.276-2.61a2.963,2.963,0,0,0,0-2.619l-1.276-2.61a1,1,0,0,1,.434-1.334l2.566-1.362a2.963,2.963,0,0,0,1.539-2.119l.5-2.861a1,1,0,0,1,1.135-.825l2.876.407a2.963,2.963,0,0,0,2.491-.809l2.088-2.02a1,1,0,0,1,1.4,0l2.088,2.02a2.962,2.962,0,0,0,2.491.809l2.876-.407a1,1,0,0,1,1.135.825l.5,2.861A2.963,2.963,0,0,0,38.1,10.487l2.566,1.362a1,1,0,0,1,.434,1.334l-1.276,2.61a2.963,2.963,0,0,0,0,2.619l1.276,2.61A1,1,0,0,1,40.669,22.355Z" transform="translate(-10.359 0.002)" fill="#fff" stroke="#3876ba" stroke-width="0.5"/>
      </g>
    </g>
    <g id="Group_656" data-name="Group 656" transform="translate(19.274 9.605)">
      <g id="Group_655" data-name="Group 655">
        <path id="Path_608" data-name="Path 608" d="M158.5,144.08a.986.986,0,0,0-1.4,0L144.08,157.1a.986.986,0,1,0,1.395,1.4l13.02-13.02A.986.986,0,0,0,158.5,144.08Z" transform="translate(-143.791 -143.791)" fill="#fff" stroke="#3876ba" stroke-width="0.5"/>
      </g>
    </g>
    <g id="Group_658" data-name="Group 658" transform="translate(19.207 8.224)">
      <g id="Group_657" data-name="Group 657">
        <path id="Path_609" data-name="Path 609" d="M146.419,123.116a3.617,3.617,0,1,0,3.617,3.617A3.621,3.621,0,0,0,146.419,123.116Zm0,5.261a1.644,1.644,0,1,1,1.644-1.644A1.646,1.646,0,0,1,146.419,128.377Z" transform="translate(-142.802 -123.116)" fill="#fff" stroke="#3876ba" stroke-width="0.5"/>
      </g>
    </g>
    <g id="Group_660" data-name="Group 660" transform="translate(27.099 18.746)">
      <g id="Group_659" data-name="Group 659">
        <path id="Path_610" data-name="Path 610" d="M264.539,280.61a3.617,3.617,0,1,0,3.617,3.617A3.621,3.621,0,0,0,264.539,280.61Zm0,5.261a1.644,1.644,0,1,1,1.644-1.644A1.646,1.646,0,0,1,264.539,285.871Z" transform="translate(-260.922 -280.61)" fill="#fff" stroke="#3876ba" stroke-width="0.5"/>
      </g>
    </g>
  </g>
</svg>
