<svg xmlns="http://www.w3.org/2000/svg" width="18.494" height="23.686" viewBox="0 0 18.494 23.686">
  <g id="doctor" transform="translate(-56.114)">
    <g id="Group_773" data-name="Group 773" transform="translate(62.789 7.417)">
      <g id="Group_772" data-name="Group 772" transform="translate(0)">
        <path id="Path_4361" data-name="Path 4361" d="M200.753,160.322a.347.347,0,0,0-.347.347v.371a.347.347,0,0,0,.694,0v-.371A.347.347,0,0,0,200.753,160.322Z" transform="translate(-200.406 -160.322)"/>
      </g>
    </g>
    <g id="Group_775" data-name="Group 775" transform="translate(67.239 7.417)">
      <g id="Group_774" data-name="Group 774">
        <path id="Path_4362" data-name="Path 4362" d="M296.945,160.322a.347.347,0,0,0-.347.347v.371a.347.347,0,0,0,.694,0v-.371A.347.347,0,0,0,296.945,160.322Z" transform="translate(-296.598 -160.322)"/>
      </g>
    </g>
    <g id="Group_777" data-name="Group 777" transform="translate(63.902 10.013)">
      <g id="Group_776" data-name="Group 776">
        <path id="Path_4363" data-name="Path 4363" d="M227.273,216.538a.347.347,0,0,0-.491,0,1.529,1.529,0,0,1-1.738,0,.347.347,0,1,0-.487.494,2.189,2.189,0,0,0,2.712,0A.347.347,0,0,0,227.273,216.538Z" transform="translate(-224.454 -216.435)"/>
      </g>
    </g>
    <g id="Group_779" data-name="Group 779" transform="translate(62.418 6.304)">
      <g id="Group_778" data-name="Group 778" transform="translate(0)">
        <path id="Path_4364" data-name="Path 4364" d="M193.479,136.274h-.742a.347.347,0,1,0,0,.694h.742a.347.347,0,1,0,0-.694Z" transform="translate(-192.39 -136.274)"/>
      </g>
    </g>
    <g id="Group_781" data-name="Group 781" transform="translate(66.868 6.304)">
      <g id="Group_780" data-name="Group 780" transform="translate(0)">
        <path id="Path_4365" data-name="Path 4365" d="M289.671,136.274h-.742a.347.347,0,0,0,0,.694h.742a.347.347,0,0,0,0-.694Z" transform="translate(-288.582 -136.274)"/>
      </g>
    </g>
    <g id="Group_783" data-name="Group 783" transform="translate(56.114)">
      <g id="Group_782" data-name="Group 782">
        <path id="Path_4366" data-name="Path 4366" d="M72.792,16.527l-2.5-.769a.8.8,0,0,0-.441-.76L68.3,14.225v-1.1a5.176,5.176,0,0,0,2.175-3.528h.206a1.315,1.315,0,0,0,1.32-1.144,1.272,1.272,0,0,0-.735-1.287V3.314A2.575,2.575,0,0,0,68.7.742H68.64A4.374,4.374,0,0,0,66.08,0a8.846,8.846,0,0,0-4.316.974,15.048,15.048,0,0,1-2.155.832.347.347,0,0,0-.223.467,3.148,3.148,0,0,0,.566.822,2.838,2.838,0,0,0-.5,1.825V7.179a1.266,1.266,0,0,0,.532,2.415h.259a5.174,5.174,0,0,0,2.175,3.528v1.1L60.872,15a.8.8,0,0,0-.441.76l-2.5.769a2.559,2.559,0,0,0-1.816,2.458v4.354a.347.347,0,0,0,.694,0V18.985a1.869,1.869,0,0,1,1.326-1.8l2.6-.8.459.612-.522.522a1.087,1.087,0,0,0-.2,1.257l.993,1.986h-.946v-.395a.347.347,0,1,0-.694,0v.395H58.315a.347.347,0,0,0-.347.347v2.225a.347.347,0,0,0,.347.347h3.708a.347.347,0,0,0,.347-.347v-.755l.455.91a.347.347,0,0,0,.621-.31L61.09,18.47a.394.394,0,0,1,.074-.456l.735-.735a.347.347,0,0,0,.032-.454l-.786-1.048a.107.107,0,0,1,.038-.16l1.367-.683.965,3.308a.347.347,0,1,0,.666-.194l-.152-.521a4.06,4.06,0,0,0,2.667,0L65.361,22.1l-.749-2.567a.347.347,0,1,0-.666.194l1.082,3.709a.347.347,0,0,0,.666,0l2.479-8.5,1.367.683a.107.107,0,0,1,.038.16l-.786,1.048a.347.347,0,0,0,.032.454l.735.735a.394.394,0,0,1,.074.456l-2.357,4.714a.347.347,0,1,0,.621.31l2.357-4.714a1.087,1.087,0,0,0-.2-1.257L69.528,17l.459-.612,2.6.8a1.869,1.869,0,0,1,1.326,1.8v4.354a.347.347,0,1,0,.694,0V18.985A2.559,2.559,0,0,0,72.792,16.527ZM61.677,22.992H58.662V21.461h1.16v.024a.347.347,0,0,0,.694,0v-.024h1.16ZM62.05,1.606A8.172,8.172,0,0,1,66.08.694c1.28,0,2.424.536,2.661,1.246a.347.347,0,0,0,.658-.219,1.635,1.635,0,0,0-.071-.176,1.881,1.881,0,0,1,1.249,1.769V7.046h-.395a.4.4,0,0,1-.395-.395V6.28a4.42,4.42,0,0,0-1.214-2.841.347.347,0,0,0-.35-.086c-1.926.608-4.642,1.121-6.641.109A3.733,3.733,0,0,1,60.23,2.34,17.065,17.065,0,0,0,62.05,1.606Zm5.56,12.783-.663,2.272a3.366,3.366,0,0,1-3.172,0l-.663-2.272v-.861a5.16,5.16,0,0,0,4.5,0ZM65.361,13.35a4.479,4.479,0,0,1-4.474-4.474.347.347,0,0,0-.694,0V8.9h-.209a.58.58,0,0,1-.577-.641.616.616,0,0,1,.63-.519h.5a1.09,1.09,0,0,0,1.089-1.089V5.342a.347.347,0,1,0-.694,0v1.31a.4.4,0,0,1-.395.395h-.395V4.921a2.339,2.339,0,0,1,.317-1.351,4.769,4.769,0,0,0,.752.484A6.477,6.477,0,0,0,64,4.729a13.132,13.132,0,0,0,4.221-.646,3.657,3.657,0,0,1,.877,2.2v.371A1.09,1.09,0,0,0,70.182,7.74h.556a.58.58,0,0,1,.577.641.615.615,0,0,1-.63.519h-.157V8.88a.347.347,0,0,0-.347-.347h0a.347.347,0,0,0-.347.347A4.48,4.48,0,0,1,65.361,13.35Z" transform="translate(-56.114)"/>
      </g>
    </g>
    <g id="Group_785" data-name="Group 785" transform="translate(70.206 20.025)">
      <g id="Group_784" data-name="Group 784" transform="translate(0)">
        <path id="Path_4367" data-name="Path 4367" d="M362.929,433.8h-.58v-.58a.347.347,0,0,0-.694,0v.58h-.58a.347.347,0,1,0,0,.694h.58v.58a.347.347,0,1,0,.694,0v-.58h.58a.347.347,0,1,0,0-.694Z" transform="translate(-360.728 -432.871)"/>
      </g>
    </g>
  </g>
</svg>
