<svg xmlns="http://www.w3.org/2000/svg" width="13.491" height="15.047" viewBox="0 0 13.491 15.047">
  <g id="dog_1_" data-name="dog(1)" transform="translate(-26.476)">
    <path id="Path_4299" data-name="Path 4299" d="M39.783,3.67l-.4-1.012A5.942,5.942,0,0,1,38.952.441.441.441,0,0,0,38.511,0,2.39,2.39,0,0,0,36.4,1.273l-.822,1.55a6.9,6.9,0,0,0-4.7,0l-.822-1.55A2.39,2.39,0,0,0,27.931,0a.441.441,0,0,0-.441.441,5.942,5.942,0,0,1-.427,2.217l-.4,1.012a2.556,2.556,0,0,0,1.43,3.325,5.109,5.109,0,0,0,1.391,3.2,2.357,2.357,0,0,1,.655,1.621,1.764,1.764,0,0,0,.882,1.526v.09a1.618,1.618,0,0,0,1.616,1.616h1.176a1.618,1.618,0,0,0,1.616-1.616v-.09a1.764,1.764,0,0,0,.882-1.526,2.357,2.357,0,0,1,.655-1.621,5.109,5.109,0,0,0,1.391-3.2,2.556,2.556,0,0,0,1.43-3.325ZM27.541,5.381A1.674,1.674,0,0,1,27.477,4l.4-1.012A6.816,6.816,0,0,0,28.354.941a1.51,1.51,0,0,1,.914.744l.806,1.52a4.535,4.535,0,0,0-.446.3,3.824,3.824,0,0,0-1.5,2.519A1.674,1.674,0,0,1,27.541,5.381Zm6.268,8.784H32.633a.736.736,0,0,1-.72-.588,1.76,1.76,0,0,0,1.308-.6,1.76,1.76,0,0,0,1.308.6A.736.736,0,0,1,33.809,14.165Zm-1.14-3.728a.588.588,0,0,1,1.1,0l-.552.394Zm2.756,1.377a.882.882,0,0,1-1.763,0V11.6l.844-.6a.441.441,0,0,0,.185-.359,1.469,1.469,0,0,0-2.939,0,.441.441,0,0,0,.185.359l.844.6v.214a.882.882,0,1,1-1.763,0,3.235,3.235,0,0,0-.9-2.226A4.232,4.232,0,0,1,28.96,6.671c0-2.335,2.14-3.38,4.261-3.38a6.038,6.038,0,0,1,1.55.2,3.672,3.672,0,0,0,1.281,6.424A3.215,3.215,0,0,0,35.425,11.814Zm1.263-2.671a2.789,2.789,0,0,1-.9-5.259,3.036,3.036,0,0,1,1.7,2.787A4.228,4.228,0,0,1,36.688,9.143ZM38.9,5.381a1.674,1.674,0,0,1-.584.645,3.824,3.824,0,0,0-1.5-2.519,4.536,4.536,0,0,0-.446-.3l.806-1.519a1.51,1.51,0,0,1,.914-.744,6.816,6.816,0,0,0,.472,2.043L38.965,4A1.674,1.674,0,0,1,38.9,5.381Z" transform="translate(0)" fill="#fff"/>
    <path id="Path_4300" data-name="Path 4300" d="M321.441,212a.441.441,0,0,0-.441.441v.882a.441.441,0,0,0,.882,0v-.882A.441.441,0,0,0,321.441,212Z" transform="translate(-285.869 -205.77)" fill="#fff"/>
    <path id="Path_4301" data-name="Path 4301" d="M161.441,212a.441.441,0,0,0-.441.441v.882a.441.441,0,0,0,.882,0v-.882A.441.441,0,0,0,161.441,212Z" transform="translate(-130.571 -205.77)" fill="#fff"/>
  </g>
</svg>
