<svg xmlns="http://www.w3.org/2000/svg" width="19.478" height="15.919" viewBox="0 0 19.478 15.919">
  <g id="dog_2_" data-name="dog(2)" transform="translate(0.25 -47.75)">
    <path id="Path_4302" data-name="Path 4302" d="M17.329,50.375C16.474,49.292,15.191,48,13.937,48c-.381,0-.764.261-1.282.748A10.5,10.5,0,0,0,9.489,48a10.5,10.5,0,0,0-3.166.748c-.518-.488-.9-.748-1.282-.748C3.786,48,2.5,49.292,1.648,50.375A8.093,8.093,0,0,0,0,53.337a3.947,3.947,0,0,0,1.008,3.025c.74.987.818,2.424,1.315,3.2A1.2,1.2,0,0,0,3.7,60.14c.563-.141.928-.615,1.09-1.412a2.58,2.58,0,0,1,.562,1.662c.042,1.117,1.953,3.029,4.135,3.029s4.093-1.91,4.135-3.029a2.568,2.568,0,0,1,.561-1.665c.165.817.594,1.458,1.43,1.458,1.568,0,1.306-2.425,2.354-3.821a3.947,3.947,0,0,0,1.008-3.025,8.092,8.092,0,0,0-1.648-2.962Zm-7.841,8.6c-.309,0-.674-.466-.825-.76a2.7,2.7,0,0,1,1.651,0C10.163,58.505,9.8,58.971,9.489,58.971Zm0,2.371a2.964,2.964,0,0,0,1.406.532,2.933,2.933,0,0,1-2.812,0A2.964,2.964,0,0,0,9.489,61.342Zm7.532-5.692C16.087,56.9,15.943,58.7,15.6,59c-.212-.019-.29-.666-.309-.878-.1-1.093.124-2.655.124-3.6a12.07,12.07,0,0,0-1.249-4.12.593.593,0,0,0-1.061.53,10.733,10.733,0,0,1,1.123,3.59c0,.619-.113,1.609-.142,2.559a4.521,4.521,0,0,0-1.638,3.075c0,.735-2.063.737-2.441.02a.619.619,0,0,0-.061-.094,2.626,2.626,0,0,0,1.613-2c0-1.592-4.151-1.592-4.151,0a2.622,2.622,0,0,0,1.613,2,.618.618,0,0,0-.061.094c-.38.72-2.441.714-2.441-.02a4.521,4.521,0,0,0-1.638-3.075c-.027-.916-.142-1.955-.142-2.559a10.761,10.761,0,0,1,1.123-3.59.593.593,0,0,0-1.061-.53,12.07,12.07,0,0,0-1.249,4.12c0,.94.221,2.5.124,3.6-.019.212-.1.858-.309.878-.343-.3-.479-2.1-1.416-3.346a2.827,2.827,0,0,1-.771-2.281,9.614,9.614,0,0,1,1.476-2.364,4.421,4.421,0,0,1,2.325-1.818,5.085,5.085,0,0,1,.82.714.593.593,0,0,0,.821.017,9.074,9.074,0,0,1,2.86-.733,9.074,9.074,0,0,1,2.86.733.593.593,0,0,0,.821-.017,4.352,4.352,0,0,1,.82-.714,4.421,4.421,0,0,1,2.325,1.818,9.614,9.614,0,0,1,1.476,2.364,2.826,2.826,0,0,1-.771,2.281Z" transform="translate(0 0)" fill="#fff" stroke="#feca2e" stroke-width="0.5"/>
    <ellipse id="Ellipse_167" data-name="Ellipse 167" cx="1" cy="1.5" rx="1" ry="1.5" transform="translate(6 52.5)" fill="#fff" stroke="#feca2e" stroke-width="0.5"/>
    <ellipse id="Ellipse_168" data-name="Ellipse 168" cx="1" cy="1.5" rx="1" ry="1.5" transform="translate(11 52.5)" fill="#fff" stroke="#feca2e" stroke-width="0.5"/>
  </g>
</svg>
