<svg xmlns="http://www.w3.org/2000/svg" width="23" height="23.088" viewBox="0 0 23 23.088">
  <g id="dog_4_" data-name="dog(4)" transform="translate(-0.971)">
    <path id="Path_4350" data-name="Path 4350" d="M168.006,120.883c.3,0,.545-.393.545-.875s-.245-.875-.545-.875-.545.393-.545.875S167.706,120.883,168.006,120.883Z" transform="translate(-158.982 -113.76)" fill="#fff"/>
    <path id="Path_4351" data-name="Path 4351" d="M289.05,120.883c.3,0,.545-.393.545-.875s-.245-.875-.545-.875-.546.393-.546.875S288.749,120.883,289.05,120.883Z" transform="translate(-274.567 -113.76)" fill="#fff"/>
    <path id="Path_4352" data-name="Path 4352" d="M32.867,14.652a1.932,1.932,0,0,0-.75-2.523,1.44,1.44,0,0,0-1.3-1.722A1.923,1.923,0,0,0,29.4,9.011V6.69a1.7,1.7,0,0,0,.742-.436l1.078-1.078a1.7,1.7,0,0,0,0-2.408L28.953.5a1.7,1.7,0,0,0-2.868.853,3.84,3.84,0,0,0-.49-.032H21.076a3.832,3.832,0,0,0-.49.032A1.7,1.7,0,0,0,17.718.5l-2.27,2.27a1.705,1.705,0,0,0,0,2.408l1.078,1.078a1.694,1.694,0,0,0,.742.434V9.011a1.922,1.922,0,0,0-1.417,1.4,1.439,1.439,0,0,0-1.3,1.722,1.934,1.934,0,0,0-.75,2.524,1.395,1.395,0,0,0,.442,2.584l1.128,3.324A3.723,3.723,0,0,0,18.9,23.088h8.87A3.723,3.723,0,0,0,31.3,20.56l1.128-3.324a1.4,1.4,0,0,0,.442-2.584ZM27.023.977a1.026,1.026,0,0,1,1.451,0l2.269,2.269a1.027,1.027,0,0,1,0,1.451L29.666,5.776a1.026,1.026,0,0,1-1.692-.382L26.782,2.047a1.031,1.031,0,0,1,.241-1.07Zm-.944,1.056a1.68,1.68,0,0,0,.066.24l1.191,3.347a1.694,1.694,0,0,0,1.23,1.09c.053.012.106.021.16.028V9.225a3.132,3.132,0,0,1-1.274,2.521c0-.014,0-.028,0-.042V9.711a2.216,2.216,0,0,0-2.021-2.2,1.3,1.3,0,0,0-.881-.7V2h1.044A3.165,3.165,0,0,1,26.079,2.033ZM23.674,11.7a.338.338,0,0,0-.676,0,1.551,1.551,0,1,1-3.1,0V9.711a1.54,1.54,0,0,1,1.22-1.5,1.3,1.3,0,0,0,1.253,1.166v.232a.968.968,0,1,0,1.936,0V9.373a1.3,1.3,0,0,0,1.253-1.166,1.54,1.54,0,0,1,1.22,1.5V11.7a1.551,1.551,0,1,1-3.1,0Zm.11,1.7a1.736,1.736,0,0,1-.9,0c.046-.039.091-.079.134-.122a2.248,2.248,0,0,0,.315-.395A2.244,2.244,0,0,0,23.784,13.4ZM22.406,7.454h1.859a.621.621,0,1,1,0,1.243h-.3a.338.338,0,0,0-.338.338v.57a.292.292,0,1,1-.583,0v-.57a.338.338,0,0,0-.338-.338h-.3a.621.621,0,1,1,0-1.243ZM23.874,2V6.778H22.8V2ZM15.927,4.7a1.028,1.028,0,0,1,0-1.451L18.2.977a1.026,1.026,0,0,1,1.451,0,1.031,1.031,0,0,1,.241,1.07l-.965,2.71a.338.338,0,1,0,.637.227l.965-2.71a1.682,1.682,0,0,0,.066-.24A3.16,3.16,0,0,1,21.076,2H22.12V6.81a1.3,1.3,0,0,0-.88.7,2.216,2.216,0,0,0-2.021,2.2V11.7c0,.014,0,.028,0,.042a3.132,3.132,0,0,1-1.274-2.521V6.739a1.7,1.7,0,0,0,.919-.416.338.338,0,0,0-.449-.506A1.03,1.03,0,0,1,17,5.775Zm-1.648,9.1a1.267,1.267,0,0,1,.808-1.176.338.338,0,0,0,.185-.458.762.762,0,0,1,.691-1.083.8.8,0,0,1,.12.009.338.338,0,0,0,.388-.305A1.27,1.27,0,0,1,17.3,9.708a3.808,3.808,0,0,0,2.134,2.953,2.229,2.229,0,0,0,2.7,1.162,2.436,2.436,0,0,0,2.4,0,2.23,2.23,0,0,0,2.7-1.162,3.808,3.808,0,0,0,2.133-2.954,1.253,1.253,0,0,1,.828,1.076.338.338,0,0,0,.389.3.785.785,0,0,1,.119-.009.763.763,0,0,1,.762.762.75.75,0,0,1-.07.32.338.338,0,0,0,.185.459,1.256,1.256,0,0,1,.61,1.85H29.728a1.168,1.168,0,0,0-1.145-.945H27a1.168,1.168,0,0,0-1.145.945h-5.04a1.168,1.168,0,0,0-1.145-.945H18.088a1.168,1.168,0,0,0-1.145.945H14.476a1.26,1.26,0,0,1-.2-.675Zm14.793.9V15.1a.215.215,0,0,1-.2.219.2.2,0,0,1-.206-.2.338.338,0,0,0-.676,0,.2.2,0,0,1-.4,0,.338.338,0,0,0-.676,0,.2.2,0,0,1-.206.2.215.215,0,0,1-.2-.219V14.69A.49.49,0,0,1,27,14.2h1.583A.49.49,0,0,1,29.073,14.69Zm-8.912,0V15.1a.215.215,0,0,1-.2.219.2.2,0,0,1-.206-.2.338.338,0,0,0-.676,0,.2.2,0,1,1-.4,0,.338.338,0,0,0-.676,0,.2.2,0,0,1-.206.2.215.215,0,0,1-.2-.219V14.69a.49.49,0,0,1,.49-.49h1.583A.49.49,0,0,1,20.16,14.69Zm12.015,1.893h-2.1a.338.338,0,0,0,0,.676H31.7l-1.047,3.084a3.047,3.047,0,0,1-2.886,2.068H18.9a3.047,3.047,0,0,1-2.886-2.068l-1.047-3.084H28.722a.338.338,0,0,0,0-.676H14.5a.719.719,0,1,1,0-1.438h2.428a.89.89,0,0,0,.86.854.873.873,0,0,0,.557-.186.876.876,0,0,0,1.079,0,.872.872,0,0,0,.556.186.89.89,0,0,0,.86-.854h5A.89.89,0,0,0,26.7,16a.877.877,0,0,0,.556-.186.876.876,0,0,0,1.079,0,.873.873,0,0,0,.556.186.89.89,0,0,0,.86-.854h2.428a.719.719,0,0,1,0,1.438Z" transform="translate(-11.582 0)" fill="#fff"/>
    <path id="Path_4353" data-name="Path 4353" d="M422.876,162.817a1.314,1.314,0,1,0,1.314,1.314A1.315,1.315,0,0,0,422.876,162.817Zm0,1.951a.637.637,0,1,1,.637-.637A.638.638,0,0,1,422.876,164.768Z" transform="translate(-401.625 -155.475)" fill="#fff"/>
    <path id="Path_4354" data-name="Path 4354" d="M433.549,66.286a1.787,1.787,0,1,0,1.787,1.787A1.789,1.789,0,0,0,433.549,66.286Zm0,2.9a1.111,1.111,0,1,1,1.111-1.111A1.112,1.112,0,0,1,433.549,69.184Z" transform="translate(-411.365 -63.297)" fill="#fff"/>
    <path id="Path_4355" data-name="Path 4355" d="M4.137,128.2a1.583,1.583,0,1,0-1.583,1.583A1.585,1.585,0,0,0,4.137,128.2Zm-2.489,0a.906.906,0,1,1,.906.906A.907.907,0,0,1,1.647,128.2Z" transform="translate(0 -120.905)" fill="#fff"/>
  </g>
</svg>
