<svg xmlns="http://www.w3.org/2000/svg" width="24.687" height="24.609" viewBox="0 0 24.687 24.609">
  <g id="dog_3_" data-name="dog(3)" transform="translate(0.387 0.31)">
    <path id="Path_4344" data-name="Path 4344" d="M15.431,9.6l-.4-1.22.387-.141a.69.69,0,0,0,.074-.032,3.345,3.345,0,0,0,1.646-4.137L16.463,2.2a3.348,3.348,0,0,0-4.292-2,3.288,3.288,0,0,0-1.223.786A5.238,5.238,0,0,0,6.4.989,3.287,3.287,0,0,0,5.173.2a3.348,3.348,0,0,0-4.292,2L.2,4.068A3.345,3.345,0,0,0,1.849,8.205a.7.7,0,0,0,.074.032l.387.141-.4,1.22A5.559,5.559,0,0,0,7.2,16.875h2.945A5.559,5.559,0,0,0,15.431,9.6ZM12.652,1.524a1.942,1.942,0,0,1,2.489,1.161l.679,1.864A1.94,1.94,0,0,1,14.9,6.931l-.3.109-.964-2.965A5.215,5.215,0,0,0,12.154,1.8a1.88,1.88,0,0,1,.5-.273ZM2.445,6.931a1.94,1.94,0,0,1-.921-2.382L2.2,2.685A1.942,1.942,0,0,1,4.692,1.524a1.881,1.881,0,0,1,.5.273A5.214,5.214,0,0,0,3.708,4.075L2.745,7.04Zm7.7,8.538H7.2A4.153,4.153,0,0,1,3.25,10.033L5.045,4.51a3.813,3.813,0,0,1,7.253,0l1.795,5.523a4.153,4.153,0,0,1-3.949,5.436Z" transform="translate(0 0)" fill="#fff" stroke="#3876ba" stroke-width="0.6"/>
    <path id="Path_4345" data-name="Path 4345" d="M134.171,180.252a5.636,5.636,0,0,0-3.179,0,1.463,1.463,0,0,0-.989,1.412,2.82,2.82,0,0,0,1.875,2.462v1.288a.7.7,0,1,0,1.406,0v-1.288a2.82,2.82,0,0,0,1.875-2.462A1.463,1.463,0,0,0,134.171,180.252Zm-1.59,2.584a1.38,1.38,0,0,1-1.172-1.172.2.2,0,0,1,0-.049c.02-.021.2-.185,1.167-.185s1.147.164,1.167.185a.2.2,0,0,1,0,.049A1.38,1.38,0,0,1,132.581,182.835Z" transform="translate(-123.909 -171.585)" fill="#fff" stroke="#3876ba" stroke-width="0.6"/>
    <path id="Path_4346" data-name="Path 4346" d="M325.706,303.263a2.1,2.1,0,0,0-.565.077l-1-1.424,2.371-3.387a.7.7,0,1,0-1.152-.807l-2.078,2.967-2.078-2.967a.7.7,0,0,0-1.152.807l2.371,3.387-1,1.424a2.114,2.114,0,1,0,1.151.807l.7-1.005.7,1.005a2.108,2.108,0,1,0,1.716-.885Zm-4.84,2.812a.7.7,0,1,1,.7-.7A.7.7,0,0,1,320.866,306.075Zm4.84,0a.7.7,0,1,1,.7-.7A.7.7,0,0,1,325.706,306.075Z" transform="translate(-303.815 -283.483)" fill="#fff" stroke="#3876ba" stroke-width="0.6"/>
    <circle id="Ellipse_172" data-name="Ellipse 172" cx="0.703" cy="0.703" r="0.703" transform="translate(10.078 5.156)" fill="#fff" stroke="#3876ba" stroke-width="0.6"/>
    <circle id="Ellipse_173" data-name="Ellipse 173" cx="0.703" cy="0.703" r="0.703" transform="translate(5.86 5.156)" fill="#fff" stroke="#3876ba" stroke-width="0.6"/>
  </g>
</svg>
