<svg xmlns="http://www.w3.org/2000/svg" width="43.84" height="34.509" viewBox="0 0 43.84 34.509">
  <g id="dog_7_" data-name="dog(7)" transform="translate(0 -54.487)">
    <circle id="Ellipse_3384" data-name="Ellipse 3384" cx="1.713" cy="1.713" r="1.713" transform="translate(13.015 65.656)" fill="#707070"/>
    <path id="Path_15209" data-name="Path 15209" d="M43.84,67.026c0-4.866-5.846-8.469-7.936-10.559-2.065-2.065-5.93-1.957-7.491-1.816a13.43,13.43,0,0,0-6.493.644,13.42,13.42,0,0,0-6.492-.644c-1.56-.142-5.426-.25-7.492,1.815C5.843,58.56,0,62.158,0,67.026c0,4.394,2.74,7.34,2.74,9.59,0,1.958-.954,2.921-.084,4.04a2.571,2.571,0,0,0,2.139.755,4.555,4.555,0,0,0,3.249-1.668,8.082,8.082,0,0,0,.274.807c1.338,3.345,1.469,7.49,5.779,8.365a3.72,3.72,0,0,0,1.489.012c3.39-.11,5.289-.666,6.334-.666s2.946.555,6.334.666a3.729,3.729,0,0,0,1.47-.007c4.23-.677,4.553-5.255,5.8-8.37a8.082,8.082,0,0,0,.274-.807,4.555,4.555,0,0,0,3.249,1.668,2.571,2.571,0,0,0,2.139-.755c.86-1.106-.084-2.128-.084-4.04C41.1,74.366,43.84,71.422,43.84,67.026ZM5.285,78.511c.524-2.539-.033-3.926-1.089-6.276-2.544-5.661-2.056-7.267,3.817-12.19.731-.613,1.363-1.143,1.861-1.64a2.923,2.923,0,0,1,1.037-.628C8.3,61.625,6.084,64.194,7.588,69.457a13.011,13.011,0,0,1,.324,5.2A7.969,7.969,0,0,1,5.285,78.511ZM19.6,85.786A22.515,22.515,0,0,1,21.92,82.83a22.477,22.477,0,0,1,2.318,2.956A10.285,10.285,0,0,0,19.6,85.786ZM21.92,74.561a6.291,6.291,0,0,1,2,.291,1.336,1.336,0,0,1,.009.763c-.158.563-.275.316-2,1.406-1.722-1.086-1.847-.845-2-1.406a1.337,1.337,0,0,1,.009-.763,6.289,6.289,0,0,1,2-.291Zm11.058,4.971c-1.351,3.377-1.314,6.121-3.667,6.673q-.341,0-.662-.009c-1.787-.551-3.486-4.583-5.358-5.746V79.4a16.9,16.9,0,0,1,1.533-.871,3.733,3.733,0,0,0,1.041-5.619c-1.453-1.453-6.434-1.453-7.888,0a3.733,3.733,0,0,0,1.041,5.619,16.917,16.917,0,0,1,1.533.871V80.45c-1.871,1.162-3.571,5.2-5.359,5.746q-.321.008-.662.009c-2.354-.552-2.319-3.3-3.667-6.673-1.172-2.93.8-5.8-.64-10.828-1.179-4.125.462-5.646,3.248-9.824a3.588,3.588,0,0,1,2.149-1.467,1.357,1.357,0,0,0,.512-.109,12.228,12.228,0,0,1,5.455.773,1.358,1.358,0,0,0,.8-.04c2.61-.943,6.438-1.477,7.985.843,2.769,4.154,4.429,5.69,3.248,9.824-1.436,5.027.534,7.893-.64,10.828Zm6.665-7.3c-1.055,2.348-1.613,3.735-1.089,6.276a7.97,7.97,0,0,1-2.627-3.855,13.011,13.011,0,0,1,.324-5.2c1.5-5.249-.708-7.817-3.323-11.681a2.925,2.925,0,0,1,1.037.628c.5.5,1.129,1.027,1.861,1.64C41.7,64.967,42.188,66.574,39.644,72.235Z" fill="#707070"/>
    <circle id="Ellipse_3385" data-name="Ellipse 3385" cx="1.713" cy="1.713" r="1.713" transform="translate(27.4 65.656)" fill="#707070"/>
  </g>
</svg>
