<svg id="file" xmlns="http://www.w3.org/2000/svg" width="37.494" height="42.545" viewBox="0 0 37.494 42.545">
  <g id="Group_698" data-name="Group 698" transform="translate(0 0)">
    <path id="Path_634" data-name="Path 634" d="M86.516,38.746a3.8,3.8,0,0,1-3.806,3.8H56.541a3.8,3.8,0,0,1-3.806-3.8V3.8A3.8,3.8,0,0,1,56.541,0H72.832a2.857,2.857,0,0,1,2.021.837L85.682,11.667a2.846,2.846,0,0,1,.834,2.012Z" transform="translate(-50.878 0)" fill="#f9f8f9"/>
    <path id="Path_635" data-name="Path 635" d="M59.109,42.545H56.541a3.8,3.8,0,0,1-3.806-3.8V3.8A3.8,3.8,0,0,1,56.541,0h2.568A3.8,3.8,0,0,0,55.3,3.8V38.746A3.8,3.8,0,0,0,59.109,42.545Z" transform="translate(-50.878 0)" fill="#e3e0e4"/>
    <path id="Path_636" data-name="Path 636" d="M293,13.679v1.39h-9.927a5.148,5.148,0,0,1-5.141-5.142V0h1.384a2.859,2.859,0,0,1,2.02.836l10.83,10.831A2.846,2.846,0,0,1,293,13.679Z" transform="translate(-257.362 0)" fill="#e3e0e4"/>
    <path id="Path_637" data-name="Path 637" d="M321.082,15.345h-9.671a2.574,2.574,0,0,1-2.573-2.574V3.1a2.828,2.828,0,0,1,.836.579L320.5,14.51a2.828,2.828,0,0,1,.578.835Z" transform="translate(-285.7 -2.843)" fill="#dc4955"/>
    <path id="Path_638" data-name="Path 638" d="M64.461,230.533H33.815a3.424,3.424,0,0,1-3.424-3.424v-12.5a3.424,3.424,0,0,1,3.424-3.424H64.461a3.424,3.424,0,0,1,3.424,3.424v12.5A3.424,3.424,0,0,1,64.461,230.533Z" transform="translate(-30.391 -193.638)" fill="#dc4955"/>
    <path id="Path_639" data-name="Path 639" d="M35.955,230.533h-2.14a3.424,3.424,0,0,1-3.424-3.424v-12.5a3.424,3.424,0,0,1,3.424-3.424h2.14a3.424,3.424,0,0,0-3.424,3.424v12.5A3.424,3.424,0,0,0,35.955,230.533Z" transform="translate(-30.391 -193.638)" fill="#c42430"/>
    <g id="Group_697" data-name="Group 697" transform="translate(15.651 21.737)">
      <path id="Path_640" data-name="Path 640" d="M337.667,262.869a.642.642,0,1,0,0-1.284h-3.926a.642.642,0,0,0-.642.642v9.687a.642.642,0,0,0,1.284,0v-4.293h2.972a.642.642,0,0,0,0-1.284h-2.972v-3.468Z" transform="translate(-323.597 -261.585)" fill="#f9f8f9"/>
      <path id="Path_641" data-name="Path 641" d="M222.069,262.891h-2.682a.642.642,0,0,0-.642.643v.008h0v9.306a.638.638,0,0,0,.019.153v0a.642.642,0,0,0,.642.64h0c.081,0,1.99-.008,2.75-.021a4.1,4.1,0,0,0,3.233-1.645,6.112,6.112,0,0,0,1.144-3.711C226.535,265.052,224.74,262.891,222.069,262.891Zm.067,9.449c-.478.008-1.444.014-2.09.018,0-1.059-.01-3.147-.01-4.1,0-.8,0-2.986-.006-4.082h2.039c2.346,0,3.182,2.114,3.182,4.093C225.251,270.633,223.97,272.308,222.136,272.34Z" transform="translate(-218.745 -262.782)" fill="#f9f8f9"/>
    </g>
  </g>
  <path id="Path_642" data-name="Path 642" d="M109.6,261.444h-2.739c-.561,0-.59.244-.59.59v9.838a.59.59,0,0,0,1.18,0v-3.687c.64,0,1.655-.009,2.15-.009a3.367,3.367,0,1,0,0-6.732Zm0,5.553c-.491,0-1.492.005-2.134.009,0-.658-.009-1.694-.009-2.2,0-.421,0-1.5-.005-2.186H109.6a2.187,2.187,0,1,1,0,4.373Z" transform="translate(-99.962 -239.719)" fill="#f9f8f9"/>
</svg>
