<svg id="search" xmlns="http://www.w3.org/2000/svg" width="20.838" height="20.838" viewBox="0 0 20.838 20.838">
  <path id="Path_454" data-name="Path 454" d="M4.618,145.233l-.725,2.708L1.242,148a10.437,10.437,0,0,1-.077-9.729h0l2.36.433,1.034,2.346a6.218,6.218,0,0,0,.058,4.186Z" transform="translate(0 -132.641)" fill="#fbbb00"/>
  <path id="Path_455" data-name="Path 455" d="M271.636,208.176a10.415,10.415,0,0,1-3.714,10.071h0l-2.973-.152-.421-2.627A6.21,6.21,0,0,0,267.2,212.3h-5.571v-4.122h10.008Z" transform="translate(-250.98 -199.703)" fill="#518ef8"/>
  <path id="Path_456" data-name="Path 456" d="M46.208,315.36h0a10.422,10.422,0,0,1-15.7-3.188l3.376-2.764a6.2,6.2,0,0,0,8.929,3.173Z" transform="translate(-29.267 -296.816)" fill="#28b446"/>
  <path id="Path_457" data-name="Path 457" d="M44.528,2.4,41.153,5.162a6.2,6.2,0,0,0-9.134,3.244L28.625,5.627h0A10.421,10.421,0,0,1,44.528,2.4Z" transform="translate(-27.459)" fill="#f14336"/>
</svg>
