<svg xmlns="http://www.w3.org/2000/svg" width="38.777" height="32.078" viewBox="0 0 38.777 32.078">
  <g id="Group_741" data-name="Group 741" transform="translate(-287.9 -360.271)">
    <g id="switch" transform="translate(294.813 363.918)">
      <g id="Group_607" data-name="Group 607" transform="translate(12.074 0)">
        <path id="Path_571" data-name="Path 571" d="M24.165,13.792a.637.637,0,0,1-.675-.675V6.373a2.075,2.075,0,0,0-2.024-2.024H10.675A.637.637,0,0,1,10,3.675.637.637,0,0,1,10.675,3H21.467A3.34,3.34,0,0,1,24.84,6.373v6.745A.637.637,0,0,1,24.165,13.792Z" transform="translate(-10 -3)" fill="#feca2e" stroke="#3876ba" stroke-width="0.3"/>
      </g>
      <g id="Group_608" data-name="Group 608" transform="translate(22.799 6.813)">
        <path id="Path_572" data-name="Path 572" d="M21.39,12.03a.811.811,0,0,1-.54-.135l-2.7-2.7a.668.668,0,0,1,.944-.944l2.158,2.158,2.158-2.158a.668.668,0,0,1,.944.944l-2.7,2.7C21.795,12.03,21.525,12.03,21.39,12.03Z" transform="translate(-17.95 -8.05)" fill="#feca2e" stroke="#3876ba" stroke-width="0.3"/>
      </g>
      <g id="Group_609" data-name="Group 609" transform="translate(2.631 13.491)">
        <path id="Path_573" data-name="Path 573" d="M14.467,23.792H6.373A3.34,3.34,0,0,1,3,20.42V13.675A.637.637,0,0,1,3.675,13a.637.637,0,0,1,.675.675V20.42a2.075,2.075,0,0,0,2.024,2.024h8.094a.675.675,0,0,1,0,1.349Z" transform="translate(-3 -13)" fill="#feca2e" stroke="#3876ba" stroke-width="0.3"/>
      </g>
      <g id="Group_610" data-name="Group 610" transform="translate(0 13.558)">
        <path id="Path_574" data-name="Path 574" d="M7.053,17.03a.811.811,0,0,1-.54-.135L4.355,14.736,2.2,16.895a.652.652,0,0,1-.944,0,.652.652,0,0,1,0-.944l2.7-2.7a.652.652,0,0,1,.944,0l2.7,2.7a.652.652,0,0,1,0,.944A.811.811,0,0,1,7.053,17.03Z" transform="translate(-1.05 -13.05)" fill="#feca2e" stroke="#3876ba" stroke-width="0.3"/>
      </g>
    </g>
    <g id="happy_1_" data-name="happy(1)" transform="translate(312.004 376.059)">
      <path id="Path_579" data-name="Path 579" d="M171.039,351.649a.27.27,0,0,0-.27.27v.27a1.969,1.969,0,0,0,3.777,0v-.27a.27.27,0,0,0-.54,0v.27a.54.54,0,0,1-1.079,0v-.86a.668.668,0,0,0,.251-.164l.4-.432a.541.541,0,0,0,.11-.591.672.672,0,0,0-.63-.381h-.809a.672.672,0,0,0-.63.381.541.541,0,0,0,.11.591l.4.432a.667.667,0,0,0,.251.164v.86a.54.54,0,0,1-1.079,0v-.27A.27.27,0,0,0,171.039,351.649Zm1.079-1.292c0-.013.044-.057.135-.057h.809c.092,0,.132.045.126.064l-.4.432a.216.216,0,0,1-.253,0Zm0,0" transform="translate(-165.372 -338.702)" fill="#feca2e" stroke="#3876ba" stroke-width="0.2"/>
      <path id="Path_580" data-name="Path 580" d="M111.4,299.265a1.381,1.381,0,0,1,1.137-.065.839.839,0,0,1,.39.5.27.27,0,0,0,.527-.114,1.38,1.38,0,0,0-.656-.862,1.873,1.873,0,0,0-1.594.035.27.27,0,1,0,.2.5Zm0,0" transform="translate(-107.521 -289.128)" fill="#feca2e" stroke="#3876ba" stroke-width="0.2"/>
      <path id="Path_581" data-name="Path 581" d="M264.851,299.9a.27.27,0,0,0,.32-.208.832.832,0,0,1,.385-.5,1.377,1.377,0,0,1,1.142.062.27.27,0,0,0,.2-.5,1.872,1.872,0,0,0-1.594-.035,1.379,1.379,0,0,0-.656.862.27.27,0,0,0,.207.32Zm0,0" transform="translate(-256.272 -289.117)" fill="#feca2e" stroke="#3876ba" stroke-width="0.2"/>
      <path id="Path_582" data-name="Path 582" d="M.31,10.518a5.986,5.986,0,0,1,.735.046,4.624,4.624,0,0,0-.2,1.3v0a2.736,2.736,0,0,0-.689.313.27.27,0,1,0,.3.449,2.016,2.016,0,0,1,.434-.209,3.472,3.472,0,0,0,.279.948A1.92,1.92,0,0,0,.31,14.835c0,.832.827,1.349,2.158,1.349a2.8,2.8,0,0,0,1.7-.448,10.571,10.571,0,0,0,3.155.448,10.569,10.569,0,0,0,3.155-.448,2.8,2.8,0,0,0,1.7.448c1.331,0,2.158-.517,2.158-1.349a1.92,1.92,0,0,0-.862-1.465,3.472,3.472,0,0,0,.279-.948,2.02,2.02,0,0,1,.434.209.27.27,0,1,0,.3-.449,2.736,2.736,0,0,0-.689-.313v0a4.615,4.615,0,0,0-.2-1.3,6.011,6.011,0,0,1,.735-.046.27.27,0,1,0,0-.54,6.594,6.594,0,0,0-.92.065,5.985,5.985,0,0,0-.4-.8c.177-.576.873-3,.273-3.827a.671.671,0,0,0-.562-.289,2.836,2.836,0,0,0-1.146.34A4.968,4.968,0,0,0,8.288,3.581a4.875,4.875,0,0,0-.138-1.091.82.82,0,0,1,.288-.8c.337-.227.886.124,1.107.285A.809.809,0,1,0,10.5.669,2.469,2.469,0,0,0,7.536.345,2.429,2.429,0,0,0,6.58,2.872a3.292,3.292,0,0,1,.093.668,5.052,5.052,0,0,0-3.6,1.921,2.829,2.829,0,0,0-1.138-.338.673.673,0,0,0-.564.29c-.6.823.095,3.24.272,3.815a6.015,6.015,0,0,0-.407.816,6.607,6.607,0,0,0-.92-.065.27.27,0,1,0,0,.54Zm.54,4.317a1.625,1.625,0,0,1,1.619-1.349,1.625,1.625,0,0,1,1.619,1.349c0,.393-.363.618-.833.727a.8.8,0,0,0,.024-.188v-.54a.27.27,0,1,0-.54,0v.54a.27.27,0,0,1-.54,0v-.54a.27.27,0,1,0-.54,0v.54a.8.8,0,0,0,.024.188C1.213,15.453.85,15.227.85,14.835Zm12.949,0c0,.393-.363.618-.833.727a.808.808,0,0,0,.024-.188v-.54a.27.27,0,1,0-.54,0v.54a.27.27,0,0,1-.54,0v-.54a.27.27,0,1,0-.54,0v.54a.8.8,0,0,0,.024.188c-.471-.109-.833-.334-.833-.727a1.646,1.646,0,0,1,3.237,0ZM7.1,2.743A1.873,1.873,0,0,1,7.835.794a1.944,1.944,0,0,1,2.347.311.27.27,0,0,1-.318.436c-.67-.49-1.283-.6-1.725-.3a1.356,1.356,0,0,0-.512,1.376,4.349,4.349,0,0,1,.123.9c-.141-.01-.282-.016-.425-.016-.038,0-.076,0-.114,0A3.822,3.822,0,0,0,7.1,2.743Zm.221,1.3A4.715,4.715,0,0,1,11.1,5.717c-.362.2-.761.458-1.2.768a6.291,6.291,0,0,0-5.144,0c-.444-.31-.845-.563-1.207-.768A4.71,4.71,0,0,1,7.325,4.043ZM2.188,9.18C1.694,7.666,1.521,6.118,1.8,5.729a.138.138,0,0,1,.127-.067,2.612,2.612,0,0,1,1.085.374l.006.005.027.011a13.848,13.848,0,0,1,1.524.96.269.269,0,0,0,.271.024,5.761,5.761,0,0,1,4.971,0,.269.269,0,0,0,.272-.024,6.453,6.453,0,0,1,2.644-1.353.137.137,0,0,1,.125.067c.283.391.109,1.944-.387,3.462a.269.269,0,0,0,.028.227,5.568,5.568,0,0,1,.382.727,4.767,4.767,0,0,0-1.666.7.27.27,0,0,0,.323.432,4.44,4.44,0,0,1,1.536-.619,4.161,4.161,0,0,1,.186,1.077,7.848,7.848,0,0,0-1.343-.135.27.27,0,1,0,0,.54,7.522,7.522,0,0,1,1.323.141,2.963,2.963,0,0,1-.23.831,2.185,2.185,0,0,0-.824-.163,2.143,2.143,0,0,0-2.158,1.889,1.1,1.1,0,0,0,.093.449,10.263,10.263,0,0,1-2.791.36,10.265,10.265,0,0,1-2.791-.36,1.1,1.1,0,0,0,.093-.449,2.143,2.143,0,0,0-2.158-1.889,2.185,2.185,0,0,0-.824.163,2.963,2.963,0,0,1-.23-.831,7.523,7.523,0,0,1,1.323-.141.27.27,0,0,0,0-.54,7.846,7.846,0,0,0-1.343.135,4.155,4.155,0,0,1,.186-1.077,4.437,4.437,0,0,1,1.536.618.27.27,0,0,0,.323-.432,4.765,4.765,0,0,0-1.667-.7,5.564,5.564,0,0,1,.387-.737A.269.269,0,0,0,2.188,9.18Zm0,0" transform="translate(-0.039 0)" fill="#feca2e" stroke="#3876ba" stroke-width="0.2"/>
    </g>
    <g id="dog" transform="translate(288 360.371)">
      <g id="Group_616" data-name="Group 616" transform="translate(12.141 2.198)">
        <g id="Group_615" data-name="Group 615" transform="translate(0 0)">
          <circle id="Ellipse_121" data-name="Ellipse 121" cx="0.675" cy="0.675" r="0.675" transform="translate(0 0)" fill="#feca2e" stroke="#3876ba" stroke-width="0.2"/>
        </g>
      </g>
      <g id="Group_618" data-name="Group 618" transform="translate(0 0)">
        <g id="Group_617" data-name="Group 617" transform="translate(0 0)">
          <path id="Path_583" data-name="Path 583" d="M17.543,35.889a2.506,2.506,0,0,1-2.081-.588l-.831-.831a2.006,2.006,0,0,0-1.419-.588H10.865a2.014,2.014,0,0,0-1.422.588l-.012.012L7.865,36.048a1.74,1.74,0,0,0-.51,1.23V37.8a2.16,2.16,0,0,0,1.7,2.074,2.1,2.1,0,0,0,.309.023v.134a54.316,54.316,0,0,0-5.7,3.529,3.466,3.466,0,0,0-.988,2.355,3.126,3.126,0,0,0,.286,1.342L1,47.257a1,1,0,1,0,0,2.006H9.352a.666.666,0,0,0,.6-.968,2.016,2.016,0,0,0-.96-.873c.23-.456.363-.834.939-.834H10.7v2.006a.669.669,0,0,0,.669.669h2.488a.671.671,0,0,0,.585-1,2.012,2.012,0,0,0-1.488-.979l.149-1.19a3.317,3.317,0,0,0,.272-5.507V39.233H15.38a2.627,2.627,0,0,0,2.026-1.147,6.3,6.3,0,0,0,.807-1.53A.669.669,0,0,0,17.543,35.889ZM9.359,39.225a1.358,1.358,0,0,1-1.334-1.4v-.542a1.066,1.066,0,0,1,.314-.758L9.9,34.956a1.366,1.366,0,0,1,.8-.387V37.9A1.332,1.332,0,0,1,9.359,39.225ZM1,48.594a.334.334,0,0,1,0-.669l2.364.006a2.41,2.41,0,0,0,.667.663ZM16.832,37.742a1.884,1.884,0,0,1-1.452.822H13.675a1,1,0,0,1-.941-.669h-.7a1.67,1.67,0,0,0,.669,1.02v2a2.712,2.712,0,0,1,1.3,2.8,2.789,2.789,0,0,1-1.524,1.974l-.272,2.172c.674.084,1.282.085,1.649.732H11.368V45.251H10.7v.668H9.932a1.487,1.487,0,0,0-.581.132,3.355,3.355,0,0,0-.968-2.5l-.473.473a2.714,2.714,0,0,1,.366,3.328l-.2.4c.52.226,1.019.366,1.277.842H6.016A2.667,2.667,0,0,1,4.43,43.781c.736-.548,4.8-2.9,5.6-3.36,0-.182,0-.47,0-.643A2,2,0,0,0,11.368,37.9V34.552h1.844a1.337,1.337,0,0,1,.946.392l.831.831a2.651,2.651,0,0,0,1.771.772.938.938,0,0,0,.453.562Z" transform="translate(0 -33.883)" fill="#feca2e" stroke="#3876ba" stroke-width="0.2"/>
        </g>
      </g>
    </g>
  </g>
</svg>
