<svg xmlns="http://www.w3.org/2000/svg" width="36.802" height="36.802" viewBox="0 0 36.802 36.802">
  <g id="Group_731" data-name="Group 731" transform="translate(-289.575 -1420.102)">
    <g id="Group_711" data-name="Group 711" transform="translate(291.698 1422.224)">
      <ellipse id="Ellipse_166" data-name="Ellipse 166" cx="16.278" cy="16.278" rx="16.278" ry="16.278" fill="#feca2e"/>
    </g>
    <g id="Group_713" data-name="Group 713" transform="translate(291.698 1422.224)">
      <path id="Path_4286" data-name="Path 4286" d="M24.12,23.028A16.279,16.279,0,0,1,37.213,7.067a16.278,16.278,0,1,0,0,31.922A16.279,16.279,0,0,1,24.12,23.028Z" transform="translate(-17.75 -6.75)" fill="#d9ab21"/>
    </g>
    <g id="Group_719" data-name="Group 719" transform="translate(289.575 1420.102)">
      <path id="Path_4292" data-name="Path 4292" d="M35.4,42.8A18.4,18.4,0,1,1,53.8,24.4,18.422,18.422,0,0,1,35.4,42.8Zm0-32.556A14.155,14.155,0,1,0,49.556,24.4,14.171,14.171,0,0,0,35.4,10.246Z" transform="translate(-17 -6)"/>
    </g>
    <g id="Group_720" data-name="Group 720" transform="translate(305.853 1430.718)">
      <path id="Path_4293" data-name="Path 4293" d="M22.75,9.75H27V25.32H22.75Z" transform="translate(-22.75 -9.75)"/>
    </g>
    <g id="Group_721" data-name="Group 721" transform="translate(300.191 1436.38)">
      <path id="Path_4294" data-name="Path 4294" d="M20.75,11.75H36.32V16H20.75Z" transform="translate(-20.75 -11.75)"/>
    </g>
  </g>
</svg>
