<svg xmlns="http://www.w3.org/2000/svg" xmlns:xlink="http://www.w3.org/1999/xlink" width="74.668" height="83.726" viewBox="0 0 74.668 83.726">
  <defs>
    <filter id="Path_510" x="2.266" y="21.521" width="70.136" height="62.205" filterUnits="userSpaceOnUse">
      <feOffset dy="3" input="SourceAlpha"/>
      <feGaussianBlur stdDeviation="3" result="blur"/>
      <feFlood flood-opacity="0.161"/>
      <feComposite operator="in" in2="blur"/>
      <feComposite in="SourceGraphic"/>
    </filter>
    <filter id="Path_515" x="26.069" y="0" width="33.866" height="32.891" filterUnits="userSpaceOnUse">
      <feOffset dy="3" input="SourceAlpha"/>
      <feGaussianBlur stdDeviation="3" result="blur-2"/>
      <feFlood flood-opacity="0.161"/>
      <feComposite operator="in" in2="blur-2"/>
      <feComposite in="SourceGraphic"/>
    </filter>
    <filter id="Path_516" x="0" y="54.389" width="33.867" height="29.334" filterUnits="userSpaceOnUse">
      <feOffset dy="3" input="SourceAlpha"/>
      <feGaussianBlur stdDeviation="3" result="blur-3"/>
      <feFlood flood-opacity="0.161"/>
      <feComposite operator="in" in2="blur-3"/>
      <feComposite in="SourceGraphic"/>
    </filter>
    <filter id="Path_517" x="40.801" y="54.389" width="33.867" height="29.334" filterUnits="userSpaceOnUse">
      <feOffset dy="3" input="SourceAlpha"/>
      <feGaussianBlur stdDeviation="3" result="blur-4"/>
      <feFlood flood-opacity="0.161"/>
      <feComposite operator="in" in2="blur-4"/>
      <feComposite in="SourceGraphic"/>
    </filter>
  </defs>
  <g id="happy" transform="translate(6.733 6)">
    <path id="Path_509" data-name="Path 509" d="M135.768,121.274l-6.041,7.118-24.368-.057-4.59-7.061a14.966,14.966,0,0,1,2.913-3.456,21.476,21.476,0,0,1,12.24-4.987,22.806,22.806,0,0,1,2.346-.113,24.631,24.631,0,0,1,5.87.7,21.868,21.868,0,0,1,5.406,2.086A16.41,16.41,0,0,1,135.768,121.274Zm0,0" transform="translate(-87.668 -97.997)" fill="#bdc3c7"/>
    <g transform="matrix(1, 0, 0, 1, -6.73, -6)" filter="url(#Path_510)">
      <path id="Path_510-2" data-name="Path 510" d="M87.3,191.986a13.782,13.782,0,0,1-1.666,6.733l-10.892,8.25a42.406,42.406,0,0,1-13.51,2.018,45.085,45.085,0,0,1-11.107-1.3c-.6-.159-1.2-.329-1.768-.51-.215-.068-.431-.136-.635-.2l-10.892-8.25a12.937,12.937,0,0,1-1.292-3.4,14.447,14.447,0,0,1-.374-3.332c0-.442.022-.9.057-1.337a21.539,21.539,0,0,1,3.355-9.6c-2.029-6.211-3.831-16.264-.011-16.264,2.969,0,8.375,3.491,11.753,5.882a25.562,25.562,0,0,1,10.914-2.482c.465,0,.929.011,1.394.045a25.48,25.48,0,0,1,9.543,2.448c1.043-.737,2.278-1.587,3.57-2.4,2.913-1.813,6.131-3.491,8.194-3.491,3.819,0,2.006,10.109-.023,16.309A20.871,20.871,0,0,1,87.3,191.986Zm0,0" transform="translate(-23.9 -137.26)" fill="#ecf0f1"/>
    </g>
    <path id="Path_511" data-name="Path 511" d="M70.843,187.11A28.072,28.072,0,0,0,63,193.956c-1.632-5.667-1.927-10.348-1.383-11.639C62.547,182.418,65.108,183.143,70.843,187.11Zm0,0" transform="translate(-53.412 -158.505)" fill="#ff5364"/>
    <path id="Path_512" data-name="Path 512" d="M52.6,390.529a8.682,8.682,0,0,1-1.756,5.259c-.215-.068-.431-.136-.635-.2l-10.892-8.25a12.937,12.937,0,0,1-1.292-3.4,8.637,8.637,0,0,1,5.78-2.2A8.8,8.8,0,0,1,52.6,390.529Zm0,0" transform="translate(-33.12 -331.879)" fill="#3f5c6c"/>
    <path id="Path_513" data-name="Path 513" d="M135.39,114.606a6.8,6.8,0,0,1-12.32,3.967,21.476,21.476,0,0,1,12.24-4.987A5.993,5.993,0,0,1,135.39,114.606Zm0,0" transform="translate(-107.056 -98.751)" fill="#3f5c6c"/>
    <path id="Path_514" data-name="Path 514" d="M276.266,120.795a3.4,3.4,0,1,1-5.463-2.7,21.868,21.868,0,0,1,5.406,2.086A3.731,3.731,0,0,1,276.266,120.795Zm0,0" transform="translate(-234.332 -102.674)" fill="#3f5c6c"/>
    <g transform="matrix(1, 0, 0, 1, -6.73, -6)" filter="url(#Path_515)">
      <path id="Path_515-2" data-name="Path 515" d="M222.59,14.891a19.281,19.281,0,0,0-.544-5.293,4.56,4.56,0,0,1,1.677-4.568c1.938-1.3,4.556.2,5.95,1.224a2.267,2.267,0,0,0,2.675-3.661C226.681-1.554,222.669.282,221.2,1.257a9.039,9.039,0,0,0-3.548,9.407,14.853,14.853,0,0,1,.419,4.114Zm0,0" transform="translate(-182.34 6)" fill="#95a5a5"/>
    </g>
    <g transform="matrix(1, 0, 0, 1, -6.73, -6)" filter="url(#Path_516)">
      <path id="Path_516-2" data-name="Path 516" d="M33.676,423.246c0-3.13-3.552-6.8-7.934-6.8s-7.934,3.671-7.934,6.8,3.552,4.533,7.934,4.533S33.676,426.375,33.676,423.246Zm0,0" transform="translate(-8.81 -356.06)" fill="#bdc3c7"/>
    </g>
    <g transform="matrix(1, 0, 0, 1, -6.73, -6)" filter="url(#Path_517)">
      <path id="Path_517-2" data-name="Path 517" d="M346.082,423.246c0-3.13-3.552-6.8-7.934-6.8s-7.934,3.671-7.934,6.8,3.552,4.533,7.934,4.533S346.082,426.375,346.082,423.246Zm0,0" transform="translate(-280.41 -356.06)" fill="#bdc3c7"/>
    </g>
    <path id="Path_518" data-name="Path 518" d="M55.92,466.636a3.4,3.4,0,0,1-3.4-3.4v-2.267a1.133,1.133,0,1,1,2.267,0v2.267a1.133,1.133,0,0,0,2.267,0v-2.267a1.133,1.133,0,1,1,2.267,0v2.267A3.4,3.4,0,0,1,55.92,466.636Zm0,0" transform="translate(-45.719 -399.78)" fill="#95a5a5"/>
    <path id="Path_519" data-name="Path 519" d="M368.326,466.636a3.4,3.4,0,0,1-3.4-3.4v-2.267a1.133,1.133,0,1,1,2.267,0v2.267a1.133,1.133,0,0,0,2.267,0v-2.267a1.134,1.134,0,0,1,2.267,0v2.267A3.4,3.4,0,0,1,368.326,466.636Zm0,0" transform="translate(-317.325 -399.78)" fill="#95a5a5"/>
    <path id="Path_520" data-name="Path 520" d="M178.545,391.935a4.538,4.538,0,0,1-4.533-4.533v-1.134a1.133,1.133,0,0,1,2.267,0V387.4a2.267,2.267,0,0,0,4.533,0v-4.533a1.133,1.133,0,1,1,2.267,0V387.4A4.538,4.538,0,0,1,178.545,391.935Zm0,0" transform="translate(-151.344 -331.879)" fill="#95a5a5"/>
    <path id="Path_521" data-name="Path 521" d="M230.611,391.935a4.538,4.538,0,0,1-4.533-4.533v-4.533a1.133,1.133,0,1,1,2.267,0V387.4a2.267,2.267,0,0,0,4.534,0v-1.134a1.133,1.133,0,0,1,2.267,0V387.4A4.538,4.538,0,0,1,230.611,391.935Zm0,0" transform="translate(-196.611 -331.879)" fill="#95a5a5"/>
    <path id="Path_522" data-name="Path 522" d="M122.327,300.615a1.135,1.135,0,0,1-1.106-.889,3.523,3.523,0,0,0-1.639-2.118c-1.152-.609-2.757-.515-4.775.273a1.134,1.134,0,0,1-.826-2.112c2.682-1.045,4.934-1.094,6.7-.145a5.8,5.8,0,0,1,2.757,3.621,1.132,1.132,0,0,1-1.109,1.37Zm0,0" transform="translate(-98.528 -256.427)" fill="#35495e"/>
    <path id="Path_523" data-name="Path 523" d="M270.607,300.612a1.132,1.132,0,0,1-1.109-1.37,5.8,5.8,0,0,1,2.757-3.621c1.764-.949,4.017-.9,6.7.145a1.134,1.134,0,0,1-.826,2.112c-2.031-.793-3.645-.882-4.8-.261a3.5,3.5,0,0,0-1.616,2.1A1.132,1.132,0,0,1,270.607,300.612Zm0,0" transform="translate(-234.338 -256.424)" fill="#35495e"/>
    <g id="Group_588" data-name="Group 588" transform="translate(0 40.789)">
      <path id="Path_524" data-name="Path 524" d="M14.052,317.979a1.121,1.121,0,0,1-.676-.225,21.185,21.185,0,0,0-11.79-3.175,1.133,1.133,0,0,1,0-2.267c8.217,0,12.95,3.478,13.147,3.627a1.133,1.133,0,0,1-.681,2.04Zm0,0" transform="translate(-0.453 -312.313)" fill="#bdc3c7"/>
      <path id="Path_525" data-name="Path 525" d="M1.587,368.912a1.134,1.134,0,0,1-.63-2.076c3.644-2.429,10.537-2.457,10.829-2.457a1.133,1.133,0,1,1,0,2.267c-.064,0-6.5.029-9.571,2.076A1.132,1.132,0,0,1,1.587,368.912Zm0,0" transform="translate(-0.452 -357.579)" fill="#bdc3c7"/>
      <path id="Path_526" data-name="Path 526" d="M357.387,317.977a1.132,1.132,0,0,1-.683-2.038c.2-.148,4.93-3.627,13.147-3.627a1.133,1.133,0,1,1,0,2.267,21.171,21.171,0,0,0-11.789,3.175A1.134,1.134,0,0,1,357.387,317.977Zm0,0" transform="translate(-309.783 -312.313)" fill="#bdc3c7"/>
      <path id="Path_527" data-name="Path 527" d="M384.938,368.912a1.13,1.13,0,0,1-.628-.19c-3.071-2.048-9.507-2.076-9.572-2.076a1.133,1.133,0,0,1,0-2.267c.292,0,7.186.028,10.829,2.457a1.134,1.134,0,0,1-.63,2.076Zm0,0" transform="translate(-324.871 -357.579)" fill="#bdc3c7"/>
    </g>
    <path id="Path_528" data-name="Path 528" d="M205.4,350.284l-2.55,2.72a2.959,2.959,0,0,1-4.08,0l-2.55-2.72a1.7,1.7,0,0,1-.453-1.643,2.387,2.387,0,0,1,2.221-1.61,2.2,2.2,0,0,1,.272-.011h5.1a2.2,2.2,0,0,1,.272.011,2.4,2.4,0,0,1,2.222,1.61A1.7,1.7,0,0,1,205.4,350.284Zm0,0" transform="translate(-170.212 -301.698)" fill="#df4d60"/>
    <path id="Path_529" data-name="Path 529" d="M206.228,348.641a1.067,1.067,0,0,1-.454.555l-2.55,1.814a4.1,4.1,0,0,1-4.08,0l-2.55-1.814a1.068,1.068,0,0,1-.453-.555,2.387,2.387,0,0,1,2.221-1.61,2.2,2.2,0,0,1,.272-.011h5.1a2.2,2.2,0,0,1,.272.011A2.4,2.4,0,0,1,206.228,348.641Zm0,0" transform="translate(-170.583 -301.698)" fill="#ff5364"/>
    <path id="Path_530" data-name="Path 530" d="M215.523,352.5c0-.626-1.522-1.133-3.4-1.133s-3.4.507-3.4,1.133,1.522,1.134,3.4,1.134S215.523,353.122,215.523,352.5Zm0,0" transform="translate(-181.522 -305.474)" fill="#fb7b76"/>
    <path id="Path_531" data-name="Path 531" d="M250.625,195.656a7.934,7.934,0,1,1-15.867,0,7.831,7.831,0,0,1,1.394-4.488,25.479,25.479,0,0,1,9.543,2.448c1.043-.737,2.278-1.587,3.57-2.4A7.832,7.832,0,0,1,250.625,195.656Zm0,0" transform="translate(-204.157 -166.201)" fill="#3f5c6c"/>
    <path id="Path_532" data-name="Path 532" d="M343.538,193.99a28.022,28.022,0,0,0-7.854-6.868c.918-.635,1.756-1.19,2.539-1.689,3.99-2.482,5.9-3.026,6.709-3.117C345.464,183.608,345.181,188.312,343.538,193.99Zm0,0" transform="translate(-291.902 -158.505)" fill="#ff5364"/>
  </g>
</svg>
