<svg xmlns="http://www.w3.org/2000/svg" width="22.11" height="16.355" viewBox="0 0 22.11 16.355">
  <g id="health-clinic" transform="translate(0 -66.635)">
    <path id="Path_15076" data-name="Path 15076" d="M21.786,82.342h-.45V72.829a1.139,1.139,0,0,0-.814-1.09v-.148a1.482,1.482,0,0,0-1.48-1.48H15.357a.324.324,0,1,0,0,.648h3.686a.833.833,0,0,1,.832.832v.1H8.932v-.933h5.129a.324.324,0,0,0,0-.648H8.932V68.054a1.421,1.421,0,0,0-1.419-1.419H2.647a1.421,1.421,0,0,0-1.419,1.419v3.37a.324.324,0,1,0,.648,0v-3.37a.773.773,0,0,1,.772-.772H7.512a.773.773,0,0,1,.772.772V82.342h-1v-4.6A.75.75,0,0,0,6.533,77H3.626a.75.75,0,0,0-.749.749v4.6h-1V72.72a.324.324,0,1,0-.648,0v9.622h-.9a.324.324,0,0,0,0,.648H21.786a.324.324,0,0,0,0-.648Zm-18.261-4.6a.1.1,0,0,1,.1-.1H6.533a.1.1,0,0,1,.1.1v4.6H3.525ZM14.486,74.5v2.222h-2.72V74.5Zm3.368,0v2.222h-2.72V74.5Zm2.834,0v2.222H18.5V74.5Zm-8.923,2.87h2.72v2.1h-2.72Zm-.648,2.1H8.932v-2.1h2.186Zm3.368.648v2.222h-2.72V80.12Zm.648,0h2.72v2.222h-2.72Zm0-.648v-2.1h2.72v2.1Zm3.368-2.1h2.186v2.1H18.5Zm-7.384-.648H8.932V74.5h2.186Zm-2.186,3.4h2.186v2.222H8.932Zm9.57,2.222V80.12h2.186v2.222Zm1.7-10a.49.49,0,0,1,.49.49v1.025H8.932V72.339Z"/>
    <path id="Path_15077" data-name="Path 15077" d="M67.381,103.709h2.907a.75.75,0,0,0,.749-.749v-.651a.75.75,0,0,0-.749-.749H67.381a.75.75,0,0,0-.749.749v.651A.75.75,0,0,0,67.381,103.709Zm-.1-1.4a.1.1,0,0,1,.1-.1h2.907a.1.1,0,0,1,.1.1v.651a.1.1,0,0,1-.1.1H67.381a.1.1,0,0,1-.1-.1Z" transform="translate(-63.755 -33.417)"/>
    <path id="Path_15078" data-name="Path 15078" d="M66.631,170.974a.75.75,0,0,0,.749.749h2.907a.75.75,0,0,0,.749-.749v-.651a.75.75,0,0,0-.749-.749H67.38a.75.75,0,0,0-.749.749Zm.648-.651a.1.1,0,0,1,.1-.1h2.907a.1.1,0,0,1,.1.1v.651a.1.1,0,0,1-.1.1H67.38a.1.1,0,0,1-.1-.1Z" transform="translate(-63.754 -98.494)"/>
    <path id="Path_15079" data-name="Path 15079" d="M66.631,240.059a.75.75,0,0,0,.749.749h2.907a.75.75,0,0,0,.749-.749v-.651a.75.75,0,0,0-.749-.749H67.38a.75.75,0,0,0-.749.749Zm.648-.651a.1.1,0,0,1,.1-.1h2.907a.1.1,0,0,1,.1.1v.651a.1.1,0,0,1-.1.1H67.38a.1.1,0,0,1-.1-.1Z" transform="translate(-63.754 -164.595)"/>
  </g>
</svg>
