<svg xmlns="http://www.w3.org/2000/svg" width="29.495" height="24.293" viewBox="0 0 29.495 24.293">
  <g id="Group_579" data-name="Group 579" transform="translate(-4814 -1138.178)">
    <g id="Union_1" data-name="Union 1" transform="translate(4814 1138.294)" fill="none">
      <path d="M3,24.176a3,3,0,0,1-3-3V6.7A3,3,0,0,1,2.4,3.764,5.051,5.051,0,0,1,3.79,3.1L13.529.092a4.706,4.706,0,0,1,2.771,0L26.039,3.1a4.949,4.949,0,0,1,1.636.848A3,3,0,0,1,29.495,6.7V21.175a3,3,0,0,1-3,3Z" stroke="none"/>
      <path d="M 26.4951000213623 22.17580032348633 C 27.04634094238281 22.17580032348633 27.49480056762695 21.72693061828613 27.49480056762695 21.17519950866699 L 27.49480056762695 6.703199863433838 C 27.49480056762695 6.302110195159912 27.25654983520508 5.940909862518311 26.88784027099609 5.78302001953125 L 26.64054107666016 5.677120208740234 L 26.43000984191895 5.509640216827393 C 26.15882110595703 5.293889999389648 25.8288402557373 5.125130176544189 25.44910049438477 5.007989883422852 L 15.71106052398682 2.00314998626709 C 15.45276069641113 1.923580050468445 15.18471050262451 1.883229970932007 14.91435050964355 1.883229970932007 C 14.6439905166626 1.883229970932007 14.37594032287598 1.923580050468445 14.11850070953369 2.002890110015869 L 4.37932014465332 5.00806999206543 C 4.061170101165771 5.106190204620361 3.776860237121582 5.241050243377686 3.534280300140381 5.408890247344971 L 3.197580337524414 5.641849994659424 L 2.796410322189331 5.72376012802124 C 2.334940195083618 5.81797981262207 2.000000238418579 6.229899883270264 2.000000238418579 6.703199863433838 L 2.000000238418579 21.17519950866699 C 2.000000238418579 21.72693061828613 2.448460340499878 22.17580032348633 2.999700307846069 22.17580032348633 L 26.4951000213623 22.17580032348633 M 26.4951000213623 24.17580032348633 L 2.999700307846069 24.17580032348633 C 1.342800259590149 24.17580032348633 2.838134776084189e-07 22.83209991455078 2.838134776084189e-07 21.17519950866699 L 2.838134776084189e-07 6.703199863433838 C 2.838134776084189e-07 5.253009796142578 1.028730273246765 4.04341983795166 2.396310329437256 3.764189958572388 C 2.795600175857544 3.487920045852661 3.259270191192627 3.260550022125244 3.789900302886963 3.09689998626709 L 13.52880001068115 0.0918000265955925 C 13.98015022277832 -0.04724997654557228 14.44725036621094 -0.1167749762535095 14.91435050964355 -0.1167749762535095 C 15.38145065307617 -0.1167749762535095 15.84854984283447 -0.04724997654557228 16.29990005493164 0.0918000265955925 L 26.0388011932373 3.09689998626709 C 26.68066024780273 3.294899940490723 27.22479057312012 3.586230039596558 27.67514038085938 3.944499969482422 C 28.74522972106934 4.402740001678467 29.49480056762695 5.465280055999756 29.49480056762695 6.703199863433838 L 29.49480056762695 21.17519950866699 C 29.49480056762695 22.83209991455078 28.15200042724609 24.17580032348633 26.4951000213623 24.17580032348633 Z" stroke="none" fill="#3876ba"/>
    </g>
    <path id="Path_459" data-name="Path 459" d="M4845.172,1207.542s6.042,5.94,11.529,0" transform="translate(-22.672 -53.222)" fill="none" stroke="#3876ba" stroke-linecap="round" stroke-width="2"/>
  </g>
</svg>
