<svg xmlns="http://www.w3.org/2000/svg" width="20.708" height="20.705" viewBox="0 0 20.708 20.705">
  <g id="hotel_1_" data-name="hotel(1)" transform="translate(0 -0.037)">
    <g id="Group_18190" data-name="Group 18190" transform="translate(3.106 9.354)">
      <g id="Group_18189" data-name="Group 18189">
        <path id="Path_15095" data-name="Path 15095" d="M79.55,230.4H77.134a.345.345,0,0,0-.345.345V234.2a.345.345,0,0,0,.345.345H79.55a.345.345,0,0,0,.345-.345v-3.451A.345.345,0,0,0,79.55,230.4Zm-.345,3.451H77.479v-2.761H79.2Z" transform="translate(-76.789 -230.404)" fill="#fff"/>
      </g>
    </g>
    <g id="Group_18192" data-name="Group 18192" transform="translate(8.972 9.354)">
      <g id="Group_18191" data-name="Group 18191">
        <path id="Path_15096" data-name="Path 15096" d="M224.595,230.4h-2.416a.345.345,0,0,0-.345.345V234.2a.345.345,0,0,0,.345.345h2.416a.345.345,0,0,0,.345-.345v-3.451A.345.345,0,0,0,224.595,230.4Zm-.345,3.451h-1.725v-2.761h1.725Z" transform="translate(-221.834 -230.404)" fill="#fff"/>
      </g>
    </g>
    <g id="Group_18194" data-name="Group 18194" transform="translate(8.972 14.876)">
      <g id="Group_18193" data-name="Group 18193">
        <path id="Path_15097" data-name="Path 15097" d="M224.595,366.917h-2.416a.345.345,0,0,0-.345.345v3.451a.345.345,0,0,0,.345.345h2.416a.345.345,0,0,0,.345-.345v-3.451A.345.345,0,0,0,224.595,366.917Zm-.345,3.451h-1.725v-2.761h1.725Z" transform="translate(-221.834 -366.917)" fill="#fff"/>
      </g>
    </g>
    <g id="Group_18196" data-name="Group 18196" transform="translate(14.494 9.354)">
      <g id="Group_18195" data-name="Group 18195">
        <path id="Path_15098" data-name="Path 15098" d="M361.109,230.4h-2.416a.345.345,0,0,0-.345.345V234.2a.345.345,0,0,0,.345.345h2.416a.345.345,0,0,0,.345-.345v-3.451A.345.345,0,0,0,361.109,230.4Zm-.345,3.451h-1.725v-2.761h1.725Z" transform="translate(-358.348 -230.404)" fill="#fff"/>
      </g>
    </g>
    <g id="Group_18198" data-name="Group 18198" transform="translate(3.106 14.876)">
      <g id="Group_18197" data-name="Group 18197">
        <path id="Path_15099" data-name="Path 15099" d="M79.55,366.917H77.134a.345.345,0,0,0-.345.345v3.451a.345.345,0,0,0,.345.345H79.55a.345.345,0,0,0,.345-.345v-3.451A.345.345,0,0,0,79.55,366.917Zm-.345,3.451H77.479v-2.761H79.2Z" transform="translate(-76.789 -366.917)" fill="#fff"/>
      </g>
    </g>
    <g id="Group_18200" data-name="Group 18200" transform="translate(14.494 14.876)">
      <g id="Group_18199" data-name="Group 18199">
        <path id="Path_15100" data-name="Path 15100" d="M361.109,366.917h-2.416a.345.345,0,0,0-.345.345v3.451a.345.345,0,0,0,.345.345h2.416a.345.345,0,0,0,.345-.345v-3.451A.345.345,0,0,0,361.109,366.917Zm-.345,3.451h-1.725v-2.761h1.725Z" transform="translate(-358.348 -366.917)" fill="#fff"/>
      </g>
    </g>
    <g id="Group_18202" data-name="Group 18202" transform="translate(0 0.037)">
      <g id="Group_18201" data-name="Group 18201">
        <path id="Path_15101" data-name="Path 15101" d="M19.325,20.052V8.319h.345a.345.345,0,0,0,.345-.345V6.249A.345.345,0,0,0,19.67,5.9h-.345V4.523a.345.345,0,0,0-.345-.345h-.69V.382a.345.345,0,0,0-.345-.345H2.761a.345.345,0,0,0-.345.345v3.8h-.69a.345.345,0,0,0-.345.345V5.9H1.035a.345.345,0,0,0-.345.345V7.974a.345.345,0,0,0,.345.345H1.38V20.052H0v.69H20.708v-.69H19.325ZM3.106.727H17.6V4.178H3.106ZM2.071,4.868H18.635V5.9H2.071ZM18.635,20.052H2.071V8.319H18.635V20.052ZM1.725,7.629H1.38V6.594H19.325V7.629H1.725Z" transform="translate(0 -0.037)" fill="#fff"/>
      </g>
    </g>
    <g id="Group_18204" data-name="Group 18204" transform="translate(7.628 1.218)">
      <g id="Group_18203" data-name="Group 18203">
        <path id="Path_15102" data-name="Path 15102" d="M190.8,29.916a1.075,1.075,0,0,0-.231-.363,1.063,1.063,0,0,0-.359-.24,1.2,1.2,0,0,0-.464-.087,1.216,1.216,0,0,0-.465.086,1.055,1.055,0,0,0-.36.24,1.078,1.078,0,0,0-.232.364,1.312,1.312,0,0,0,0,.915,1.079,1.079,0,0,0,.232.364,1.055,1.055,0,0,0,.36.24,1.3,1.3,0,0,0,.929,0,1.047,1.047,0,0,0,.359-.24,1.084,1.084,0,0,0,.231-.364,1.312,1.312,0,0,0,0-.915Zm-.4.789a.693.693,0,0,1-.141.248.609.609,0,0,1-.223.156.834.834,0,0,1-.592,0,.615.615,0,0,1-.224-.156.7.7,0,0,1-.142-.248,1.13,1.13,0,0,1,0-.663.7.7,0,0,1,.142-.249.611.611,0,0,1,.224-.157.834.834,0,0,1,.592,0,.606.606,0,0,1,.223.157.7.7,0,0,1,.141.249,1.148,1.148,0,0,1,0,.663Z" transform="translate(-188.607 -29.226)" fill="#fff"/>
      </g>
    </g>
    <g id="Group_18206" data-name="Group 18206" transform="translate(5.403 1.242)">
      <g id="Group_18205" data-name="Group 18205">
        <path id="Path_15103" data-name="Path 15103" d="M135.061,29.84v.966h-1.053V29.84h-.421v2.245h.421V31.1h1.053v.981h.421V29.84Z" transform="translate(-133.587 -29.84)" fill="#fff"/>
      </g>
    </g>
    <g id="Group_18208" data-name="Group 18208" transform="translate(13.739 1.242)">
      <g id="Group_18207" data-name="Group 18207">
        <path id="Path_15104" data-name="Path 15104" d="M340.106,31.741v-1.9h-.418v2.245H341v-.345Z" transform="translate(-339.688 -29.84)" fill="#fff"/>
      </g>
    </g>
    <g id="Group_18210" data-name="Group 18210" transform="translate(9.924 1.242)">
      <g id="Group_18209" data-name="Group 18209">
        <path id="Path_15105" data-name="Path 15105" d="M245.353,29.84v.343h.679v1.9h.418v-1.9h.675V29.84Z" transform="translate(-245.353 -29.84)" fill="#fff"/>
      </g>
    </g>
    <g id="Group_18212" data-name="Group 18212" transform="translate(11.961 1.242)">
      <g id="Group_18211" data-name="Group 18211">
        <path id="Path_15106" data-name="Path 15106" d="M297.143,30.172V29.84h-1.416v2.245h1.416v-.334h-1v-.635h.784V30.8h-.784v-.623Z" transform="translate(-295.727 -29.84)" fill="#fff"/>
      </g>
    </g>
  </g>
</svg>
