<svg xmlns="http://www.w3.org/2000/svg" width="10.489" height="11.654" viewBox="0 0 10.489 11.654">
  <path id="Icon_material-date-range" data-name="Icon material-date-range" d="M8,8.244H6.831V9.41H8Zm2.331,0H9.162V9.41h1.165Zm2.331,0H11.493V9.41h1.165Zm1.165-4.079h-.583V3H12.075V4.165H7.414V3H6.248V4.165H5.665a1.16,1.16,0,0,0-1.16,1.165L4.5,13.489a1.165,1.165,0,0,0,1.165,1.165h8.158a1.169,1.169,0,0,0,1.165-1.165V5.331A1.169,1.169,0,0,0,13.823,4.165Zm0,9.323H5.665V7.079h8.158Z" transform="translate(-4.5 -3)" fill="#fff"/>
</svg>
