<svg xmlns="http://www.w3.org/2000/svg" width="32.346" height="26.002" viewBox="0 0 32.346 26.002">
  <path id="Icon_awesome-user-edit" data-name="Icon awesome-user-edit" d="M10.937,12.5a6.25,6.25,0,1,0-6.25-6.25A6.25,6.25,0,0,0,10.937,12.5Zm4.375,1.562H14.5a8.5,8.5,0,0,1-7.119,0H6.562A6.564,6.564,0,0,0,0,20.625v2.031A2.344,2.344,0,0,0,2.344,25H15.767a2.345,2.345,0,0,1-.127-1.04l.332-2.974.059-.542.386-.386,3.774-3.774a6.5,6.5,0,0,0-4.878-2.222Zm2.212,7.095-.332,2.979a.777.777,0,0,0,.859.859l2.974-.332,6.733-6.733-3.5-3.5-6.733,6.729ZM30.908,13.13l-1.851-1.851a1.17,1.17,0,0,0-1.65,0l-1.846,1.846-.2.2,3.506,3.5,2.041-2.041a1.176,1.176,0,0,0,0-1.655Z" transform="translate(0.5 0.5)" fill="none" stroke="#fff" stroke-width="1"/>
</svg>
