<svg xmlns="http://www.w3.org/2000/svg" width="28.25" height="24.83" viewBox="0 0 28.25 24.83">
  <path id="Icon_awesome-rocketchat" data-name="Icon awesome-rocketchat" d="M23.856,5.337A18.294,18.294,0,0,0,10.9,3.028,9.368,9.368,0,0,0,0,1.2S3.584,4.241,3,6.908C-1.241,11.234.776,16.05,3,18.325c.582,2.668-3,5.713-3,5.713a9.388,9.388,0,0,0,10.9-1.815A18.316,18.316,0,0,0,23.856,19.91c5.849-3.734,5.868-10.82,0-14.574ZM14.428,19.886a16.652,16.652,0,0,1-4.321-.558l-.97.936a8.815,8.815,0,0,1-1.795,1.343,7.02,7.02,0,0,1-2.536.722c.049-.087.092-.175.136-.257a6.189,6.189,0,0,0,.785-4.84,5.957,5.957,0,0,1-2.55-4.617c0-4.022,5.039-7.28,11.251-7.28S25.68,8.595,25.68,12.617,20.641,19.886,14.428,19.886Zm-5.4-5.538a1.681,1.681,0,1,1,1.654-1.707v.025A1.668,1.668,0,0,1,9.03,14.349Zm3.618-1.654a1.681,1.681,0,0,1,3.361-.058v.03A1.681,1.681,0,0,1,12.648,12.694Zm7.032,1.654a1.681,1.681,0,1,1,1.654-1.707v.025a1.662,1.662,0,0,1-1.654,1.683Z" transform="translate(0 -0.202)" fill="#3876ba"/>
</svg>
