<svg id="Icon_ionic-ios-add-circle-outline" data-name="Icon ionic-ios-add-circle-outline" xmlns="http://www.w3.org/2000/svg" width="13.282" height="13.282" viewBox="0 0 13.282 13.282">
  <path id="Path_15071" data-name="Path 15071" d="M16.8,13.4H14.423V11.023a.511.511,0,0,0-1.022,0V13.4H11.023a.489.489,0,0,0-.511.511.5.5,0,0,0,.511.511H13.4V16.8a.5.5,0,0,0,.511.511.508.508,0,0,0,.511-.511V14.423H16.8a.511.511,0,0,0,0-1.022Z" transform="translate(-7.271 -7.271)" fill="#fff"/>
  <path id="Path_15072" data-name="Path 15072" d="M10.016,4.269A5.745,5.745,0,1,1,5.952,5.952a5.709,5.709,0,0,1,4.064-1.683m0-.894a6.641,6.641,0,1,0,6.641,6.641,6.64,6.64,0,0,0-6.641-6.641Z" transform="translate(-3.375 -3.375)" fill="#fff"/>
</svg>
