<svg xmlns="http://www.w3.org/2000/svg" width="9.975" height="9.975" viewBox="0 0 9.975 9.975">
  <path id="Icon_ionic-ios-arrow-dropleft-circle" data-name="Icon ionic-ios-arrow-dropleft-circle" d="M8.363,3.375A4.988,4.988,0,1,1,3.375,8.363,4.987,4.987,0,0,1,8.363,3.375ZM7.322,10.307a.465.465,0,0,0,0,.655.457.457,0,0,0,.326.134.465.465,0,0,0,.329-.137L10.23,8.7a.462.462,0,0,0-.014-.638L7.929,5.766a.463.463,0,0,0-.655.655L9.238,8.363Z" transform="translate(-3.375 -3.375)" opacity="0.995"/>
</svg>
