<svg xmlns="http://www.w3.org/2000/svg" width="14.75" height="14.75" viewBox="0 0 14.75 14.75">
  <path id="Icon_awesome-whatsapp" data-name="Icon awesome-whatsapp" d="M12.541,4.393a7.312,7.312,0,0,0-11.5,8.82L0,17l3.875-1.017a7.287,7.287,0,0,0,3.493.889h0A7.379,7.379,0,0,0,14.75,9.562,7.338,7.338,0,0,0,12.541,4.393ZM7.372,15.64a6.064,6.064,0,0,1-3.095-.846l-.221-.132-2.3.6.612-2.242-.145-.23a6.087,6.087,0,1,1,11.29-3.23A6.143,6.143,0,0,1,7.372,15.64ZM10.7,11.09c-.181-.092-1.08-.533-1.248-.593s-.29-.092-.412.092-.471.593-.579.718-.214.138-.4.046A4.971,4.971,0,0,1,5.584,9.181c-.188-.323.188-.3.537-1A.338.338,0,0,0,6.1,7.864c-.046-.092-.412-.991-.563-1.356s-.3-.306-.412-.313-.227-.007-.349-.007a.677.677,0,0,0-.487.227,2.052,2.052,0,0,0-.639,1.524A3.578,3.578,0,0,0,4.4,9.829,8.161,8.161,0,0,0,7.52,12.588a3.574,3.574,0,0,0,2.193.458,1.871,1.871,0,0,0,1.231-.869,1.527,1.527,0,0,0,.105-.869C11.007,11.225,10.885,11.179,10.7,11.09Z" transform="translate(0 -2.25)"/>
</svg>
