<svg xmlns="http://www.w3.org/2000/svg" width="19.498" height="13.004" viewBox="0 0 19.498 13.004">
  <path id="Icon_ionic-ios-arrow-round-back" data-name="Icon ionic-ios-arrow-round-back" d="M14.946,11.5a.885.885,0,0,1,.007,1.246l-4.111,4.124H26.506a.88.88,0,0,1,0,1.761H10.842l4.118,4.124A.891.891,0,0,1,14.952,24,.877.877,0,0,1,13.713,24l-5.58-5.621h0A.989.989,0,0,1,7.95,18.1a.84.84,0,0,1-.068-.339.883.883,0,0,1,.251-.616l5.58-5.621A.863.863,0,0,1,14.946,11.5Z" transform="translate(-7.882 -11.252)" fill="#feca2e"/>
</svg>
