<svg xmlns="http://www.w3.org/2000/svg" width="15.111" height="15.935" viewBox="0 0 15.111 15.935">
  <path id="Icon_awesome-viber" data-name="Icon awesome-viber" d="M14.334,1.554c-.4-.364-1.995-1.525-5.561-1.54,0,0-4.2-.252-6.252,1.628C1.382,2.78.981,4.452.937,6.521s-.1,5.947,3.641,7h0l0,1.606s-.025.65.4.781c.517.162.822-.333,1.316-.865.271-.293.644-.722.927-1.049a14.461,14.461,0,0,0,4.746-.349,4.674,4.674,0,0,0,3.912-4.419c.492-4-.237-6.529-1.55-7.671Zm.433,7.378a3.708,3.708,0,0,1-3.205,3.582,13.379,13.379,0,0,1-4.083.349S5.86,14.814,5.356,15.322c-.165.165-.345.149-.342-.177,0-.215.012-2.667.012-2.667h0C1.858,11.6,2.045,8.3,2.079,6.571A5.675,5.675,0,0,1,3.4,2.475C5.138.9,8.708,1.137,8.708,1.137c3.015.012,4.459.921,4.8,1.226,1.111.952,1.677,3.23,1.263,6.569ZM10.441,6.418a.2.2,0,0,1-.4.019A.962.962,0,0,0,9.025,5.382a.2.2,0,0,1,.022-.4A1.353,1.353,0,0,1,10.441,6.418Zm.632.352A2.325,2.325,0,0,0,8.714,4.3a.2.2,0,0,1,.028-.4,2.726,2.726,0,0,1,2.732,2.879.2.2,0,0,1-.4-.009Zm1.463.417a.2.2,0,0,1-.4,0A3.669,3.669,0,0,0,8.375,3.257a.2.2,0,0,1,0-.4A4.071,4.071,0,0,1,12.535,7.187Zm-.352,3.053v.006c-.336.591-.965,1.245-1.612,1.036l-.006-.009a11.962,11.962,0,0,1-3.18-1.758A8.135,8.135,0,0,1,6.066,8.2a10.1,10.1,0,0,1-.958-1.45A9.3,9.3,0,0,1,4.3,5.012C4.089,4.364,4.74,3.736,5.334,3.4H5.34a.567.567,0,0,1,.744.121s.386.461.551.688c.156.212.364.551.473.741a.65.65,0,0,1-.115.828l-.373.3a.548.548,0,0,0-.165.436A3.9,3.9,0,0,0,9.078,9.135a.548.548,0,0,0,.436-.165l.3-.373a.65.65,0,0,1,.828-.115,8.063,8.063,0,0,1,1.425,1.024A.556.556,0,0,1,12.184,10.24Z" transform="translate(-0.927 -0.003)"/>
</svg>
