<svg xmlns="http://www.w3.org/2000/svg" width="24.375" height="24.375" viewBox="0 0 24.375 24.375">
  <path id="Icon_ionic-md-timer" data-name="Icon ionic-md-timer" d="M14.209,22.336a1.354,1.354,0,1,0,1.354-1.354A1.358,1.358,0,0,0,14.209,22.336Zm0-18.961V8.789h2.707v-2.6A9.474,9.474,0,1,1,6.082,15.563,9.379,9.379,0,0,1,8.221,9.574l7.342,7.342,1.91-1.91L8.262,5.8V5.83a12.161,12.161,0,1,0,7.3-2.455Zm9.48,12.188a1.354,1.354,0,1,0-1.354,1.354A1.358,1.358,0,0,0,23.689,15.563Zm-16.254,0a1.354,1.354,0,1,0,1.354-1.354A1.358,1.358,0,0,0,7.436,15.563Z" transform="translate(-3.375 -3.375)" fill="#feca2e"/>
</svg>
