<svg xmlns="http://www.w3.org/2000/svg" width="20.75" height="16.6" viewBox="0 0 20.75 16.6">
  <path id="Icon_awesome-car-alt" data-name="Icon awesome-car-alt" d="M18.963,10.912,18.477,9.7l-.862-2.154A4.818,4.818,0,0,0,13.12,4.5H7.63a4.819,4.819,0,0,0-4.5,3.043L2.273,9.7l-.486,1.215A2.761,2.761,0,0,0,0,13.492v2.075a2.744,2.744,0,0,0,.692,1.813v2.337A1.384,1.384,0,0,0,2.075,21.1H3.458a1.384,1.384,0,0,0,1.383-1.383V18.333H15.908v1.383A1.384,1.384,0,0,0,17.292,21.1h1.383a1.384,1.384,0,0,0,1.383-1.383V17.379a2.742,2.742,0,0,0,.692-1.813V13.492A2.761,2.761,0,0,0,18.963,10.912ZM5.7,8.571a2.075,2.075,0,0,1,1.927-1.3h5.49a2.075,2.075,0,0,1,1.927,1.3l.862,2.154H4.842L5.7,8.571ZM3.458,15.558a1.3,1.3,0,0,1-1.383-1.379A1.3,1.3,0,0,1,3.458,12.8a2.661,2.661,0,0,1,2.075,2.069C5.533,15.7,4.288,15.558,3.458,15.558Zm13.833,0c-.83,0-2.075.138-2.075-.69A2.661,2.661,0,0,1,17.292,12.8a1.3,1.3,0,0,1,1.383,1.379,1.3,1.3,0,0,1-1.383,1.379Z" transform="translate(0 -4.5)" fill="#fff"/>
</svg>
