<svg xmlns="http://www.w3.org/2000/svg" width="27.83" height="27.83" viewBox="0 0 27.83 27.83">
  <path id="Icon_simple-whatsapp" data-name="Icon simple-whatsapp" d="M20.29,16.677c-.349-.174-2.049-1.005-2.366-1.12s-.548-.174-.78.174-.894,1.118-1.095,1.347-.4.244-.749.087a9.411,9.411,0,0,1-2.786-1.722,10.52,10.52,0,0,1-1.925-2.4c-.2-.348-.022-.539.151-.713.158-.157.349-.4.523-.606a2.94,2.94,0,0,0,.344-.575.637.637,0,0,0-.029-.608c-.087-.174-.779-1.879-1.069-2.558s-.565-.591-.779-.591c-.2-.017-.43-.017-.662-.017a1.307,1.307,0,0,0-.924.416,3.871,3.871,0,0,0-1.212,2.87,6.785,6.785,0,0,0,1.414,3.566,15.462,15.462,0,0,0,5.914,5.2c.828.348,1.473.557,1.976.729a4.8,4.8,0,0,0,2.18.14,3.569,3.569,0,0,0,2.338-1.654,2.87,2.87,0,0,0,.209-1.652c-.086-.157-.313-.244-.661-.4m-6.315,8.631h-.019a11.6,11.6,0,0,1-5.862-1.6l-.417-.248L3.34,24.5,4.5,20.277l-.277-.435A11.5,11.5,0,0,1,22.14,5.654a11.35,11.35,0,0,1,3.373,8.106,11.515,11.515,0,0,1-11.52,11.463M23.795,4a14.08,14.08,0,0,0-9.827-4,13.787,13.787,0,0,0-12,20.685L0,27.83l7.346-1.916a13.987,13.987,0,0,0,6.621,1.678h.007A13.846,13.846,0,0,0,27.83,13.8a13.676,13.676,0,0,0-4.053-9.753" fill="#3876ba"/>
</svg>
