<svg xmlns="http://www.w3.org/2000/svg" width="13.75" height="11.2" viewBox="0 0 13.75 11.2">
  <path id="Icon_awesome-city" data-name="Icon awesome-city" d="M12.272,3.825H9.563V.478A.478.478,0,0,0,9.084,0H6.216a.478.478,0,0,0-.478.478V1.913H4.462V.319A.319.319,0,0,0,4.144,0H3.825a.319.319,0,0,0-.319.319V1.913H2.231V.319A.319.319,0,0,0,1.913,0H1.594a.319.319,0,0,0-.319.319V1.913h-.8A.478.478,0,0,0,0,2.391V9.563a.638.638,0,0,0,.638.638H12.112a.638.638,0,0,0,.638-.638V4.3A.478.478,0,0,0,12.272,3.825ZM2.55,8.048a.239.239,0,0,1-.239.239h-.8a.239.239,0,0,1-.239-.239v-.8a.239.239,0,0,1,.239-.239h.8a.239.239,0,0,1,.239.239Zm0-1.912a.239.239,0,0,1-.239.239h-.8a.239.239,0,0,1-.239-.239v-.8A.239.239,0,0,1,1.514,5.1h.8a.239.239,0,0,1,.239.239Zm0-1.912a.239.239,0,0,1-.239.239h-.8a.239.239,0,0,1-.239-.239v-.8a.239.239,0,0,1,.239-.239h.8a.239.239,0,0,1,.239.239ZM5.1,8.048a.239.239,0,0,1-.239.239h-.8a.239.239,0,0,1-.239-.239v-.8a.239.239,0,0,1,.239-.239h.8a.239.239,0,0,1,.239.239Zm0-1.912a.239.239,0,0,1-.239.239h-.8a.239.239,0,0,1-.239-.239v-.8A.239.239,0,0,1,4.064,5.1h.8a.239.239,0,0,1,.239.239Zm0-1.912a.239.239,0,0,1-.239.239h-.8a.239.239,0,0,1-.239-.239v-.8a.239.239,0,0,1,.239-.239h.8a.239.239,0,0,1,.239.239ZM8.287,6.136a.239.239,0,0,1-.239.239h-.8a.239.239,0,0,1-.239-.239v-.8A.239.239,0,0,1,7.252,5.1h.8a.239.239,0,0,1,.239.239Zm0-1.912a.239.239,0,0,1-.239.239h-.8a.239.239,0,0,1-.239-.239v-.8a.239.239,0,0,1,.239-.239h.8a.239.239,0,0,1,.239.239Zm0-1.912a.239.239,0,0,1-.239.239h-.8a.239.239,0,0,1-.239-.239v-.8a.239.239,0,0,1,.239-.239h.8a.239.239,0,0,1,.239.239Zm3.188,5.737a.239.239,0,0,1-.239.239h-.8a.239.239,0,0,1-.239-.239v-.8a.239.239,0,0,1,.239-.239h.8a.239.239,0,0,1,.239.239Zm0-1.912a.239.239,0,0,1-.239.239h-.8a.239.239,0,0,1-.239-.239v-.8a.239.239,0,0,1,.239-.239h.8a.239.239,0,0,1,.239.239Z" transform="translate(0.5 0.5)" fill="none" stroke="#000" stroke-width="1"/>
</svg>
