<svg xmlns="http://www.w3.org/2000/svg" width="32.5" height="31.087" viewBox="0 0 32.5 31.087">
  <g id="logout" transform="translate(0 -0.332)">
    <path id="Path_598" data-name="Path 598" d="M170.881,221.12H150.392a1.06,1.06,0,0,1,0-2.12h20.489a1.06,1.06,0,0,1,0,2.12Zm0,0" transform="translate(-139.441 -204.184)" fill="#fff"/>
    <path id="Path_599" data-name="Path 599" d="M156.051,147.077a1.051,1.051,0,0,1-.749-.311l-5.652-5.652a1.06,1.06,0,0,1,0-1.5l5.652-5.652a1.06,1.06,0,1,1,1.5,1.5l-4.9,4.9,4.9,4.9a1.059,1.059,0,0,1-.75,1.809Zm0,0" transform="translate(-139.448 -124.49)" fill="#fff"/>
    <path id="Path_600" data-name="Path 600" d="M15.544,31.419A15.544,15.544,0,1,1,30.01,10.19a1.06,1.06,0,1,1-1.973.776,13.423,13.423,0,1,0,0,9.822,1.06,1.06,0,1,1,1.973.776A15.464,15.464,0,0,1,15.544,31.419Zm0,0" fill="#fff"/>
  </g>
</svg>
