<svg xmlns="http://www.w3.org/2000/svg" width="27.654" height="23.376" viewBox="0 0 27.654 23.376">
  <g id="outline" transform="translate(-15.845 -55.85)">
    <path id="Path_4356" data-name="Path 4356" d="M20.734,138.279l.027-.02a3.3,3.3,0,0,0,.577.778l.589.589v3.915a.456.456,0,0,0,.456.456h1.368a.456.456,0,0,0,.451-.391l.441-3.089.561-.842a1.371,1.371,0,0,0,.086-1.371l-.557-1.114.7-1.047,2.477-1.238,1.457.364.818,1.636a.456.456,0,0,0,.552.229l1.368-.456a.456.456,0,0,0,.288-.577l-.791-2.372a1.376,1.376,0,0,0-.7-.8l-1.422-.692a3.068,3.068,0,0,0-.183-1.845l-.087-.2-.294-1.962,1.5-1.2a.456.456,0,0,0,.095-.609l-.912-1.368a.456.456,0,0,0-.53-.177l-1.011.354-1.464-.366a.456.456,0,0,0-.433.12L24.8,126.346a.456.456,0,0,0-.133.323v2.009a2.167,2.167,0,0,1-.309,1.114l-.263.438a6.769,6.769,0,0,1-1.751,1.942,4.815,4.815,0,0,0-1.246,1.381,5.346,5.346,0,0,0-.676,1.8.455.455,0,0,0-.133.068l-1.271.953a2.609,2.609,0,0,1-1.048.468l-1.6.32a.456.456,0,0,0-.233.77l.018.018a3.483,3.483,0,0,0,2.479,1.027A3.527,3.527,0,0,0,20.734,138.279Zm4.841-11.117.238.574a.439.439,0,0,1-.238.575Zm-3.7,6.861a3.909,3.909,0,0,1,1.011-1.121,7.677,7.677,0,0,0,1.986-2.2l.263-.438a3.079,3.079,0,0,0,.384-1.01,1.342,1.342,0,0,0,.967-.535,1.358,1.358,0,0,0,.168-1.329l-.472-1.138.443-.443,1.346.336a.456.456,0,0,0,.261-.012l.806-.282.484.726-1.384,1.107a.456.456,0,0,0-.166.424l.342,2.28a.455.455,0,0,0,.032.112l.11.256a2.16,2.16,0,0,1,.052,1.574l0,.006a.456.456,0,0,0,.231.56l1.764.858a.458.458,0,0,1,.233.266l.646,1.939-.56.187-.735-1.47a.456.456,0,0,0-.3-.238l-1.824-.456a.456.456,0,0,0-.315.035l-2.736,1.368a.456.456,0,0,0-.175.155l-.912,1.368a.456.456,0,0,0-.029.457l.675,1.351a.457.457,0,0,1-.029.457l-.618.928a.456.456,0,0,0-.072.188l-.4,2.8h-.516v-3.648a.456.456,0,0,0-.134-.323l-.722-.722a2.382,2.382,0,0,1-.669-1.3l-.01-.059A4.438,4.438,0,0,1,21.877,134.023Zm-3.73,3.716a3.527,3.527,0,0,0,1.416-.633l.776-.582a5.329,5.329,0,0,0,.067.659l.01.059c.007.04.014.08.022.119l-.251.188a2.6,2.6,0,0,1-2.6.3Z" transform="translate(0 -64.92)" fill="#fff" stroke="#3876ba" stroke-width="0.3"/>
    <path id="Path_4357" data-name="Path 4357" d="M284.068,89.446l0-.012a12.459,12.459,0,0,0-.721-2.576,2.16,2.16,0,0,0-.925-1.072,1.361,1.361,0,0,0-.841-.29v-.538a2,2,0,0,0,.456-1.276v-.129l.512-.768a1.648,1.648,0,0,0-1.371-2.562h-.371l-.641-.427a1.353,1.353,0,0,0-2.034,1.554l.257.772v1.561a2,2,0,0,0,.456,1.276V85.4L276.5,83.84l-1.222-4.074a1.824,1.824,0,1,0-2.359.469v1.157a.456.456,0,0,0,.134.322l.349.348.435,3.042a.456.456,0,0,0,.186.306l3.192,2.28,0,0,.007.006,1.165.777v2.036h-2.166a1.484,1.484,0,0,0-1.482,1.482v.8a.456.456,0,0,0,.456.456h.8a2.36,2.36,0,0,0,.183.9l.054.13-1.479.887a1.912,1.912,0,0,0,.984,3.551h4.928a.456.456,0,0,0,.456-.456v-1.7a3.3,3.3,0,0,0,1.837.154,2.25,2.25,0,0,0,1.149-.616c.024-.023.046-.047.069-.072a2.243,2.243,0,0,0,.552-1.841Zm-1.12,1.979v-2.86c.088.335.161.673.218,1.014l.47,3.373-1.031-.463A1.814,1.814,0,0,0,282.948,91.424Zm-1.042-4.878a.454.454,0,0,1,.13.319v1.368h-.912V86.864a.457.457,0,0,1,.362-.446A1.249,1.249,0,0,1,281.905,86.546Zm-2.283-2.085a1.094,1.094,0,0,1-.322-.778V82.5h1.124l.7,1.05v.129a1.094,1.094,0,0,1-.322.778.456.456,0,0,0-.134.322V85.5h-.912v-.713a.456.456,0,0,0-.134-.322Zm-.52-3.851a.442.442,0,0,1,.556-.055l.756.5a.456.456,0,0,0,.253.077h.509a.736.736,0,0,1,.612,1.144l-.209.314-.533-.8a.456.456,0,0,0-.379-.2h-1.5l-.177-.53A.439.439,0,0,1,279.1,80.609Zm-5.275-2.865a.908.908,0,0,1,.588.216,7.384,7.384,0,0,1-1.366.222A.911.911,0,0,1,273.828,77.744Zm-.8,1.354a8.3,8.3,0,0,0,1.694-.275.9.9,0,0,1-.12.31l-.009,0-1.1.368A.909.909,0,0,1,273.03,79.1Zm4.4,7.627-2.719-1.942-.428-3a.456.456,0,0,0-.129-.258l-.322-.323v-.851l.61-.2,1.233,4.11a.456.456,0,0,0,.184.248l2.273,1.515Zm.765.525.841-.841h1.258a1.361,1.361,0,0,0-.078.456v3.648H279.3v-2.28a.456.456,0,0,0-.2-.379Zm-2.54,5.087v-.342a.571.571,0,0,1,.57-.57h4.446a.456.456,0,0,0,.456-.456V89.144h.912v2.28a.913.913,0,0,1-.912.912Zm.989,4.763a.456.456,0,0,0-.077.253v.456h-.824a1,1,0,0,1-.514-1.857l1.364-.818.524,1.257Zm3.571.709h-2.736V97.49l.4-.594h2.34Zm3.3-2.394-.041.043a1.341,1.341,0,0,1-.685.367,2.387,2.387,0,0,1-1.366-.125l-1-.4-1.2-1.678a.456.456,0,1,0-.742.53l1.31,1.835h-1.85l-.91-2.183a1.451,1.451,0,0,1-.112-.553h4.214a1.813,1.813,0,0,0,.667-.127l1.994.9.043.3a1.334,1.334,0,0,1-.321,1.1Z" transform="translate(-241.412 -19.644)" fill="#fff" stroke="#3876ba" stroke-width="0.3"/>
    <circle id="Ellipse_174" data-name="Ellipse 174" cx="0.399" cy="0.399" r="0.399" transform="translate(26.772 61.349)" fill="#fff" stroke="#3876ba" stroke-width="0.3"/>
    <path id="Path_4358" data-name="Path 4358" d="M27.511,381.887l.327-.194a.456.456,0,1,0-.466-.784l-.327.194a2.222,2.222,0,0,1-1.777.217.456.456,0,1,0-.264.873,3.135,3.135,0,0,0,2.508-.306Z" transform="translate(-8.185 -306.329)" fill="#fff" stroke="#3876ba" stroke-width="0.3"/>
    <path id="Path_4359" data-name="Path 4359" d="M142.933,108.671l-.407.452a2.957,2.957,0,0,0-.76,1.981.456.456,0,1,0,.912,0,2.046,2.046,0,0,1,.526-1.371l.407-.452a.456.456,0,1,0-.678-.61Z" transform="translate(-118.598 -49.526)" fill="#fff" stroke="#3876ba" stroke-width="0.3"/>
    <path id="Path_4360" data-name="Path 4360" d="M325.694,56a.456.456,0,1,0,0,.912,1.326,1.326,0,0,1,1.109.6l.037.055a.456.456,0,0,0,.76-.5L327.563,57A2.236,2.236,0,0,0,325.694,56Z" transform="translate(-291.612)" fill="#fff" stroke="#3876ba" stroke-width="0.3"/>
  </g>
</svg>
