<svg xmlns="http://www.w3.org/2000/svg" width="23" height="23" viewBox="0 0 23 23">
  <g id="Outline" transform="translate(-16 -16)">
    <path id="Path_460" data-name="Path 460" d="M22.133,24.817H22.9v.767h-.767Zm1.917.767h.767v-.767H24.05Zm14.223,6.659A9.5,9.5,0,0,1,39,35.9v2.722a.383.383,0,0,1-.383.383H35.55v-.767h2.683V35.9a8.721,8.721,0,0,0-2.571-6.207l-2.637-2.637a3.135,3.135,0,0,1-.9-1.851H26.35V36.7a.383.383,0,0,1-.383.383.768.768,0,0,0-.767.767v.383h1.533V37.85a1.536,1.536,0,0,1,1.15-1.485V29.417h.767V36.7a.383.383,0,0,1-.383.383.768.768,0,0,0-.767.767v.383h2.683V29.417h.767v7.106a1.523,1.523,0,0,1,.767-.206h.767V34.652a5.582,5.582,0,0,1,1.646-3.973l.542.542a4.82,4.82,0,0,0-1.421,3.431V36.7a.383.383,0,0,1-.383.383h-1.15a.768.768,0,0,0-.767.767v.383h3.929V39h-18.5A.383.383,0,0,1,16,38.617v-9.27a2.675,2.675,0,0,1,.451-1.488l.762-1.142a1.906,1.906,0,0,0,.321-1.061v-.024a2.018,2.018,0,0,0-.8-1.607l-.285-.214A1.122,1.122,0,0,1,16,22.916V22.9a1.152,1.152,0,0,1,1.15-1.152h.114a1.154,1.154,0,0,1,.718.252l.238.19a4.3,4.3,0,0,1,.891,5.74l-.618.928a1.149,1.149,0,0,0-.144.3l-.734-.222a1.918,1.918,0,0,1,.24-.508l.618-.927a3.531,3.531,0,0,0-.732-4.716L17.5,22.6a.385.385,0,0,0-.24-.084H17.15a.385.385,0,0,0-.383.385v.014a.352.352,0,0,0,.14.28l.285.214A2.788,2.788,0,0,1,18.3,25.631v.024a2.67,2.67,0,0,1-.45,1.486l-.761,1.142a1.911,1.911,0,0,0-.322,1.063V31.44a6.134,6.134,0,0,1,1.965-2.132l1.356-.9a1.149,1.149,0,0,0,.512-.957V22.517a.383.383,0,0,1,.5-.364l.337.112a2.456,2.456,0,0,1,1.3,1.018H24.21a2.436,2.436,0,0,1,.5-.57l.493.587a1.677,1.677,0,0,0-.424.538.383.383,0,0,1-.343.212H22.517a.383.383,0,0,1-.343-.212,1.687,1.687,0,0,0-.807-.779v4.387a1.914,1.914,0,0,1-.853,1.595l-1.357.9a5.362,5.362,0,0,0-2.39,4.465v3.823h5.367a.768.768,0,0,0-.767-.767h-1.15a.383.383,0,0,1-.383-.383V36.026A3.52,3.52,0,0,0,18.8,33.521l.542-.542A4.281,4.281,0,0,1,20.6,36.026V36.7h.767a1.53,1.53,0,0,1,.383.049V32.483h.767v4.737a1.527,1.527,0,0,1,.383,1.013h.767v-5.75h.767V37.85a1.536,1.536,0,0,1,1.15-1.485v-15h-.767a.383.383,0,0,1-.352-.232l-1.15-2.683a.383.383,0,0,1,.149-.476L25.027,17l.406.65-1.285.8.921,2.149h.514V19.067a.383.383,0,0,1,.041-.171l.767-1.533.686.343-.726,1.452V22.9H32.1V19.157L31.374,17.7l.686-.343.767,1.533a.383.383,0,0,1,.04.171V20.6h.514l.921-2.149-2.229-1.393a1.915,1.915,0,0,0-1.016-.291H27.393a1.916,1.916,0,0,0-1.016.292l-.345.215-.406-.65.345-.216A2.681,2.681,0,0,1,27.393,16h3.664a2.681,2.681,0,0,1,1.422.408l2.507,1.567a.383.383,0,0,1,.149.476l-1.15,2.683a.383.383,0,0,1-.352.233h-.767v3.45a2.378,2.378,0,0,0,.7,1.692L35.5,28.446a6.843,6.843,0,0,0-1.034-5.024.383.383,0,0,1,.2-.589l.8-.242a1.7,1.7,0,0,1,1.514.268,1.865,1.865,0,0,1,.732,1.309l.019.015a2.53,2.53,0,0,1,.768,2.857,4.092,4.092,0,0,1,.426,2.6,6.181,6.181,0,0,1-.262,1.181l-.732-.228a5.435,5.435,0,0,0,.231-1.03,3.28,3.28,0,0,0-.417-2.286.383.383,0,0,1-.022-.369,1.76,1.76,0,0,0-.47-2.121l-.155-.123a.383.383,0,0,1-.145-.3,1.088,1.088,0,0,0-.433-.886.936.936,0,0,0-.835-.15l-.315.1a7.862,7.862,0,0,1,.777,5.681l.045.045A9.5,9.5,0,0,1,38.273,32.242ZM32.1,23.667H26.35v.767H32.1Zm-4.983-2.3h.767a.767.767,0,0,0,.665-.387.743.743,0,0,1-.665-.738v-.432a.743.743,0,0,1,.742-.742h.816a.743.743,0,0,1,.742.742v.432a.743.743,0,0,1-.665.738.767.767,0,0,0,.665.387h.767v.767h-.767a1.53,1.53,0,0,1-1.15-.52,1.53,1.53,0,0,1-1.15.52h-.767Zm1.533-1.15h.767v-.383H28.65ZM27.883,18.3h-.767v.767h.767Zm3.067,0h-.767v.767h.767Z" transform="translate(0 0)" fill="#707070"/>
  </g>
</svg>
