<svg xmlns="http://www.w3.org/2000/svg" xmlns:xlink="http://www.w3.org/1999/xlink" width="72.329" height="85.137" viewBox="0 0 72.329 85.137">
  <defs>
    <filter id="Path_484" x="46.364" y="38.798" width="25.289" height="33.062" filterUnits="userSpaceOnUse">
      <feOffset dy="3" input="SourceAlpha"/>
      <feGaussianBlur stdDeviation="3" result="blur"/>
      <feFlood flood-opacity="0.161"/>
      <feComposite operator="in" in2="blur"/>
      <feComposite in="SourceGraphic"/>
    </filter>
    <filter id="Path_485" x="0.32" y="45.472" width="39.846" height="39.665" filterUnits="userSpaceOnUse">
      <feOffset dy="3" input="SourceAlpha"/>
      <feGaussianBlur stdDeviation="3" result="blur-2"/>
      <feFlood flood-opacity="0.161"/>
      <feComposite operator="in" in2="blur-2"/>
      <feComposite in="SourceGraphic"/>
    </filter>
    <filter id="Path_486" x="32.162" y="45.472" width="39.846" height="39.665" filterUnits="userSpaceOnUse">
      <feOffset dy="3" input="SourceAlpha"/>
      <feGaussianBlur stdDeviation="3" result="blur-3"/>
      <feFlood flood-opacity="0.161"/>
      <feComposite operator="in" in2="blur-3"/>
      <feComposite in="SourceGraphic"/>
    </filter>
    <filter id="Path_489" x="9.226" y="34.321" width="53.876" height="50.816" filterUnits="userSpaceOnUse">
      <feOffset dy="3" input="SourceAlpha"/>
      <feGaussianBlur stdDeviation="3" result="blur-4"/>
      <feFlood flood-opacity="0.161"/>
      <feComposite operator="in" in2="blur-4"/>
      <feComposite in="SourceGraphic"/>
    </filter>
    <filter id="Path_494" x="0" y="0.163" width="36.625" height="48.343" filterUnits="userSpaceOnUse">
      <feOffset dy="3" input="SourceAlpha"/>
      <feGaussianBlur stdDeviation="3" result="blur-5"/>
      <feFlood flood-opacity="0.161"/>
      <feComposite operator="in" in2="blur-5"/>
      <feComposite in="SourceGraphic"/>
    </filter>
    <filter id="Path_495" x="35.703" y="0.163" width="36.625" height="48.343" filterUnits="userSpaceOnUse">
      <feOffset dy="3" input="SourceAlpha"/>
      <feGaussianBlur stdDeviation="3" result="blur-6"/>
      <feFlood flood-opacity="0.161"/>
      <feComposite operator="in" in2="blur-6"/>
      <feComposite in="SourceGraphic"/>
    </filter>
    <filter id="Path_496" x="39.096" y="0.162" width="33.233" height="48.343" filterUnits="userSpaceOnUse">
      <feOffset dy="3" input="SourceAlpha"/>
      <feGaussianBlur stdDeviation="3" result="blur-7"/>
      <feFlood flood-opacity="0.161"/>
      <feComposite operator="in" in2="blur-7"/>
      <feComposite in="SourceGraphic"/>
    </filter>
    <filter id="Path_499" x="10.127" y="0" width="52.466" height="55.182" filterUnits="userSpaceOnUse">
      <feOffset dy="3" input="SourceAlpha"/>
      <feGaussianBlur stdDeviation="3" result="blur-8"/>
      <feFlood flood-opacity="0.161"/>
      <feComposite operator="in" in2="blur-8"/>
      <feComposite in="SourceGraphic"/>
    </filter>
    <filter id="Path_500" x="25.694" y="0" width="36.899" height="55.826" filterUnits="userSpaceOnUse">
      <feOffset dy="3" input="SourceAlpha"/>
      <feGaussianBlur stdDeviation="3" result="blur-9"/>
      <feFlood flood-opacity="0.161"/>
      <feComposite operator="in" in2="blur-9"/>
      <feComposite in="SourceGraphic"/>
    </filter>
  </defs>
  <g id="pet" transform="translate(9 6)">
    <path id="Path_483" data-name="Path 483" d="M389.98,310.94c3.3-1.923,6.189-5.288,6.371-9.448a17.061,17.061,0,0,0-.437-5.086.69.69,0,0,0-1.295-.131,27.142,27.142,0,0,1-2.379,4.181,10.535,10.535,0,0,1-5.163,4.092Z" transform="translate(-342.725 -257.08)" fill="#dc8758"/>
    <g transform="matrix(1, 0, 0, 1, -9, -6)" filter="url(#Path_484)">
      <path id="Path_484-2" data-name="Path 484" d="M409.682,301.493c-.182,4.16-3.074,7.525-6.371,9.448l-.891-1.962a11.434,11.434,0,0,0,4.849-8.432,19.588,19.588,0,0,0-.048-2.8q.382-.724.729-1.468a.691.691,0,0,1,1.3.131A17.112,17.112,0,0,1,409.682,301.493Z" transform="translate(-347.06 -251.08)" fill="#c86d36"/>
    </g>
    <g transform="matrix(1, 0, 0, 1, -9, -6)" filter="url(#Path_485)">
      <path id="Path_485-2" data-name="Path 485" d="M67.85,350.534a15.328,15.328,0,0,0-3.036-2.783c-3.728-2.446-6.893.07-8.07,3.845-1.027,3.295-1.513,7.579-.293,10.971H54.574a3.29,3.29,0,0,0-3.29,3.29v1.351a1.239,1.239,0,0,0,1.239,1.239H73.13Z" transform="translate(-41.96 -295.31)" fill="#e2e2e2"/>
    </g>
    <g transform="matrix(1, 0, 0, 1, -9, -6)" filter="url(#Path_486)">
      <path id="Path_486-2" data-name="Path 486" d="M299.393,350.534a15.328,15.328,0,0,1,3.036-2.783c3.728-2.446,6.893.07,8.07,3.845,1.027,3.295,1.513,7.579.293,10.971h1.878a3.29,3.29,0,0,1,3.29,3.29v1.351a1.239,1.239,0,0,1-1.239,1.239H294.113Z" transform="translate(-252.95 -295.31)" fill="#e2e2e2"/>
    </g>
    <path id="Path_487" data-name="Path 487" d="M376.4,362.47a2.874,2.874,0,0,0-.779-.106h-1.3a.421.421,0,0,1-.4-.546,18.113,18.113,0,0,0-.473-10.217,6.709,6.709,0,0,0-3.866-4.6c3.023-.93,5.483,1.378,6.488,4.6,1.017,3.263,1.5,7.494.328,10.869Z" transform="translate(-327.527 -301.315)" fill="#bfbfbf"/>
    <path id="Path_488" data-name="Path 488" d="M428.738,470.453V471.8a1.239,1.239,0,0,1-1.239,1.239h-2.624a1.24,1.24,0,0,0,1.241-1.239v-1.351a3.6,3.6,0,0,0-2.2-3.289h1.536A3.289,3.289,0,0,1,428.738,470.453Z" transform="translate(-374.73 -405.906)" fill="#bfbfbf"/>
    <g transform="matrix(1, 0, 0, 1, -9, -6)" filter="url(#Path_489)">
      <path id="Path_489-2" data-name="Path 489" d="M151.789,288.674h-1.721a41.766,41.766,0,0,0,1.108-8.322,25.514,25.514,0,0,0-.749-7.3,19.913,19.913,0,0,0-2.577-5.994,14.811,14.811,0,0,0-2.5-2.459,15.77,15.77,0,0,0-3.787-2.862h-8.846a23.731,23.731,0,0,0-3.644,2.862,13.012,13.012,0,0,0-2.663,2.491,19.938,19.938,0,0,0-2.556,5.962,25.513,25.513,0,0,0-.749,7.3,41.77,41.77,0,0,0,1.108,8.322h-1.721a3.289,3.289,0,0,0-3.289,3.289v2.591h35.876v-2.591A3.289,3.289,0,0,0,151.789,288.674Z" transform="translate(-100.98 -221.42)" fill="#f8f6f6"/>
    </g>
    <path id="Path_490" data-name="Path 490" d="M279.863,280.354a42.108,42.108,0,0,1-1.056,8.113,2.683,2.683,0,0,0-1.343-.379h-.307a1.119,1.119,0,0,1-1.095-1.356,35.733,35.733,0,0,0,.861-6.379,25.53,25.53,0,0,0-.748-7.3c-2.423-9.392-8.864-11.316-8.864-11.316h2.939a16.035,16.035,0,0,1,4.116,3.161,13.931,13.931,0,0,1,2.171,2.159,19.91,19.91,0,0,1,2.578,6A25.534,25.534,0,0,1,279.863,280.354Z" transform="translate(-238.664 -227.418)" fill="#ebebeb"/>
    <path id="Path_491" data-name="Path 491" d="M362.051,470.453v2.59h-2.939v-2.59a4.319,4.319,0,0,0-1.7-3.289h1.351A3.289,3.289,0,0,1,362.051,470.453Z" transform="translate(-316.949 -405.906)" fill="#ebebeb"/>
    <path id="Path_492" data-name="Path 492" d="M195.606,272.242a27.844,27.844,0,0,1-4.785,1.687,24.338,24.338,0,0,1-5.878.758,25.01,25.01,0,0,1-5.662-.7,29.093,29.093,0,0,1-3.828-1.215c-.1-.039-.671-.248-1.288-.5a14.319,14.319,0,0,1,4.657-4.571,30.449,30.449,0,0,0,12.146,0A14.326,14.326,0,0,1,195.606,272.242Z" transform="translate(-157.732 -232.6)" fill="#82aee3"/>
    <path id="Path_493" data-name="Path 493" d="M291.467,272.242q-1.157.528-2.358.953a14.969,14.969,0,0,0-4.616-5.112q1.173-.144,2.337-.38l.117.07q.305.184.646.421.533.371,1.028.793a14.969,14.969,0,0,1,2.017,2.1q.232.293.46.612c.093.132.182.259.271.392Z" transform="translate(-253.593 -232.6)" fill="#528fd8"/>
    <g transform="matrix(1, 0, 0, 1, -9, -6)" filter="url(#Path_494)">
      <path id="Path_494-2" data-name="Path 494" d="M65.257,2.055a4.524,4.524,0,0,0-2.613-.812c-3.053-.072-6.342,2.993-7.927,5.365-3.588,5.368-6.171,11.669-5.85,18.118a9.966,9.966,0,0,0,.985,4.215,4.835,4.835,0,0,0,3.32,2.592,5.223,5.223,0,0,0,2.464-.265,10.929,10.929,0,0,0,5.221-4.035c3.487-4.735,5.534-11.387,6.427-17.071.426-2.709.233-6.47-2.027-8.105Z" transform="translate(-39.84 4.92)" fill="#ac5e2e"/>
    </g>
    <g transform="matrix(1, 0, 0, 1, -9, -6)" filter="url(#Path_495)">
      <path id="Path_495-2" data-name="Path 495" d="M323.324,2.055a4.524,4.524,0,0,1,2.613-.812c3.053-.072,6.342,2.993,7.927,5.365,3.588,5.368,6.171,11.669,5.85,18.118a9.965,9.965,0,0,1-.985,4.215,4.835,4.835,0,0,1-3.32,2.592,5.223,5.223,0,0,1-2.464-.265,10.929,10.929,0,0,1-5.221-4.035c-3.487-4.735-5.534-11.387-6.427-17.071-.426-2.709-.233-6.47,2.027-8.105Z" transform="translate(-276.41 4.92)" fill="#ac5e2e"/>
    </g>
    <g transform="matrix(1, 0, 0, 1, -9, -6)" filter="url(#Path_496)">
      <path id="Path_496-2" data-name="Path 496" d="M362.2,24.721a9.978,9.978,0,0,1-.986,4.215,4.838,4.838,0,0,1-3.32,2.592,5.04,5.04,0,0,1-2.271-.2,5.105,5.105,0,0,0,2.573-2.387,9.978,9.978,0,0,0,.986-4.215c.321-6.448-2.263-12.749-5.851-18.117-1.313-1.963-3.79-4.4-6.337-5.141a5.206,5.206,0,0,1,1.428-.224c3.053-.071,6.341,2.993,7.927,5.365,3.588,5.368,6.17,11.669,5.851,18.117Z" transform="translate(-298.9 4.92)" fill="#9e5528"/>
    </g>
    <g id="Group_584" data-name="Group 584" transform="translate(20.273 55.294)">
      <g id="Group_582" data-name="Group 582" transform="translate(0)">
        <path id="Path_497" data-name="Path 497" d="M205.466,422.693v10.832h-2.023V422.693a1.011,1.011,0,0,1,2.023,0Z" transform="translate(-203.443 -421.682)" fill="#e2e2e2"/>
      </g>
      <g id="Group_583" data-name="Group 583" transform="translate(11.759)">
        <path id="Path_498" data-name="Path 498" d="M295.145,422.693v10.832h-2.023V422.693a1.011,1.011,0,0,1,2.023,0Z" transform="translate(-293.122 -421.682)" fill="#e2e2e2"/>
      </g>
    </g>
    <g transform="matrix(1, 0, 0, 1, -9, -6)" filter="url(#Path_499)">
      <path id="Path_499-2" data-name="Path 499" d="M154.617,5.5C152.19,2.478,147.152-.135,143.109.008a9.988,9.988,0,0,0-1.47.061c-3.728.42-7.615,3.562-9.755,6.228a27.616,27.616,0,0,0-3.391,5.765,21.589,21.589,0,0,0-2.306,10.783,20.845,20.845,0,0,0-.04,3.153,15.451,15.451,0,0,0,.48,1.629,14.483,14.483,0,0,0,5.706,7.171c.5.332,1.28.056,1.8.307a17.806,17.806,0,0,0,8.621,2.066,18.692,18.692,0,0,0,9.787-2.066c.279-.153,1.084-.131,1.348-.307a14.483,14.483,0,0,0,5.706-7.171c2.551-7.157-.367-16.387-4.974-22.125Z" transform="translate(-106.94 6)" fill="#f8f6f6"/>
    </g>
    <g transform="matrix(1, 0, 0, 1, -9, -6)" filter="url(#Path_500)">
      <path id="Path_500-2" data-name="Path 500" d="M262.74,27.625c-2.4,6.726-9.563,10.4-16.481,10.192-.489.015-.98.011-1.47-.015,6.439-.31,12.784-3.928,15.012-10.178,2.551-7.157-.367-16.387-4.973-22.126A16.4,16.4,0,0,0,244.789.068a9.861,9.861,0,0,1,1.47-.062c4.043-.143,9.081,2.47,11.508,5.493C262.373,11.238,265.291,20.467,262.74,27.625Z" transform="translate(-210.09 6)" fill="#ebebeb"/>
    </g>
    <path id="Path_501" data-name="Path 501" d="M135.614,19.808c-2.711,3.7-7.639,6.627-12.062,6.627-1.627-6.881,1.19-15.184,5.453-20.5A16.411,16.411,0,0,1,139.041.5c.014.263.032.525.042.788C139.376,9,139.586,14.384,135.614,19.808Z" transform="translate(-113.349 -0.439)" fill="#dc8758"/>
    <path id="Path_502" data-name="Path 502" d="M136.78,19.809c-2.71,3.7-7.639,6.627-12.061,6.627-.121-.511-.217-1.03-.291-1.556a16.966,16.966,0,0,0,10.164-6.456C138.386,13.244,138.364,8.1,138.1.93a13.169,13.169,0,0,1,2.109-.423c.015.262.032.525.042.787.294,7.707.5,13.092-3.469,18.515Z" transform="translate(-114.515 -0.441)" fill="#c86d36"/>
    <g id="Group_587" data-name="Group 587" transform="translate(18.504 13.392)">
      <g id="Group_585" data-name="Group 585" transform="translate(0)">
        <path id="Path_503" data-name="Path 503" d="M190.963,106.016A1.011,1.011,0,0,1,189.952,105v-1.861a1.011,1.011,0,1,1,2.023,0V105A1.011,1.011,0,0,1,190.963,106.016Z" transform="translate(-189.952 -102.132)" fill="#5a5a5a"/>
      </g>
      <g id="Group_586" data-name="Group 586" transform="translate(15.298)">
        <path id="Path_504" data-name="Path 504" d="M307.632,106.016A1.011,1.011,0,0,1,306.621,105v-1.861a1.011,1.011,0,0,1,2.023,0V105A1.011,1.011,0,0,1,307.632,106.016Z" transform="translate(-306.621 -102.132)" fill="#5a5a5a"/>
      </g>
    </g>
    <path id="Path_505" data-name="Path 505" d="M195.372,195.845a20.724,20.724,0,0,1-21.552,0,29.03,29.03,0,0,0,1.677-2.884,21.891,21.891,0,0,1,3.461-5.387,7.014,7.014,0,0,1,2.536-1.7,8.846,8.846,0,0,1,7.828.9c2.048,1.532,3.217,3.982,4.373,6.192A29,29,0,0,0,195.372,195.845Z" transform="translate(-157.432 -161.05)" fill="#dc8758"/>
    <path id="Path_506" data-name="Path 506" d="M257.034,255.013a16.935,16.935,0,0,1-1.691.994c-.067.035-.135.069-.2.1-.322.158-.638.314-.97.446-.282.112-.558.227-.841.333a18.425,18.425,0,0,1-2.116.638c-.308.075-.617.139-.928.2-.344.063-.686.117-1.032.163-.5.066-.981.107-1.482.133s-1.01.031-1.514.016c-.323.009-.658.009-.975,0-.09,0-.179,0-.268-.008l-.227-.011a17.976,17.976,0,0,0,11.285-4.568C256.374,253.983,256.692,254.51,257.034,255.013Z" transform="translate(-219.094 -220.218)" fill="#c86d36"/>
    <path id="Path_507" data-name="Path 507" d="M230.662,219.966a1.011,1.011,0,0,0-1.011,1.011v.78a.63.63,0,0,1-1.261,0v-.78a1.011,1.011,0,0,0-1.011-1.011h-.059a1.011,1.011,0,0,0-1.011,1.011v.78a.63.63,0,0,1-1.26,0v-.78a1.011,1.011,0,1,0-2.023,0v.78a2.651,2.651,0,0,0,4.324,2.058,2.651,2.651,0,0,0,4.324-2.058v-.78A1.012,1.012,0,0,0,230.662,219.966Z" transform="translate(-200.185 -191.123)" fill="#444"/>
    <ellipse id="Ellipse_98" data-name="Ellipse 98" cx="2.939" cy="2.248" rx="2.939" ry="2.248" transform="translate(24.225 21.5)" fill="#5a5a5a"/>
    <path id="Path_508" data-name="Path 508" d="M241.445,166.5c0,1.24-1.316,2.248-2.939,2.248a3.117,3.117,0,0,1-2.64-1.259,3.773,3.773,0,0,0,.572.043c1.623,0,2.939-1.006,2.939-2.248a1.822,1.822,0,0,0-.3-.988A2.5,2.5,0,0,1,241.445,166.5Z" transform="translate(-211.341 -142.752)" fill="#444"/>
  </g>
</svg>
