<svg xmlns="http://www.w3.org/2000/svg" width="30.62" height="30.41" viewBox="0 0 30.62 30.41">
  <g id="review" transform="translate(0 -1.758)">
    <g id="Group_662" data-name="Group 662" transform="translate(5.966 18.303)">
      <g id="Group_661" data-name="Group 661">
        <path id="Path_611" data-name="Path 611" d="M101.125,278.4a1.363,1.363,0,1,0,1.363,1.363A1.364,1.364,0,0,0,101.125,278.4Zm0,1.827a.464.464,0,1,1,.464-.464A.465.465,0,0,1,101.125,280.229Z" transform="translate(-99.762 -278.402)" fill="#fff"/>
      </g>
    </g>
    <g id="Group_664" data-name="Group 664" transform="translate(10.938 23.809)">
      <g id="Group_663" data-name="Group 663">
        <path id="Path_612" data-name="Path 612" d="M191.626,373.634a.449.449,0,0,0-.427-.311h-2.67l-.825-2.539a.449.449,0,0,0-.855,0l-.825,2.539h-2.669a.449.449,0,0,0-.264.813l2.16,1.569-.825,2.539a.449.449,0,0,0,.692.5l2.16-1.569,2.16,1.569a.449.449,0,0,0,.691-.5l-.825-2.539,2.16-1.569A.449.449,0,0,0,191.626,373.634Zm-3.115,1.536a.449.449,0,0,0-.163.5l.5,1.534-1.3-.948a.453.453,0,0,0-.528,0l-1.3.948.5-1.534a.449.449,0,0,0-.163-.5l-1.3-.948h1.613a.449.449,0,0,0,.427-.311l.5-1.534.5,1.534a.449.449,0,0,0,.427.311h1.613Z" transform="translate(-182.906 -370.474)" fill="#fff"/>
      </g>
    </g>
    <g id="Group_666" data-name="Group 666" transform="translate(21.877 23.809)">
      <g id="Group_665" data-name="Group 665">
        <path id="Path_613" data-name="Path 613" d="M374.533,373.633a.449.449,0,0,0-.427-.311h-2.67l-.825-2.539a.449.449,0,0,0-.855,0l-.825,2.539h-2.669a.449.449,0,0,0-.264.813l2.16,1.569-.825,2.539a.449.449,0,0,0,.692.5l2.16-1.569,2.16,1.569a.449.449,0,0,0,.692-.5l-.825-2.539,2.16-1.569A.449.449,0,0,0,374.533,373.633Zm-3.115,1.536a.449.449,0,0,0-.163.5l.5,1.534-1.3-.948a.449.449,0,0,0-.528,0l-1.3.948.5-1.534a.449.449,0,0,0-.163-.5l-1.3-.948h1.613a.449.449,0,0,0,.427-.311l.5-1.534.5,1.534a.449.449,0,0,0,.427.311h1.613Z" transform="translate(-365.813 -370.473)" fill="#fff"/>
      </g>
    </g>
    <g id="Group_668" data-name="Group 668" transform="translate(0 23.809)">
      <g id="Group_667" data-name="Group 667">
        <path id="Path_614" data-name="Path 614" d="M8.72,373.634a.449.449,0,0,0-.427-.311H5.623L4.8,370.785a.449.449,0,0,0-.855,0l-.825,2.539H.449a.449.449,0,0,0-.264.813l2.16,1.569-.825,2.539a.449.449,0,0,0,.692.5l2.16-1.569,2.16,1.569a.449.449,0,0,0,.692-.5L6.4,375.706l2.16-1.569A.449.449,0,0,0,8.72,373.634ZM5.6,375.17a.449.449,0,0,0-.163.5l.5,1.534-1.3-.948a.453.453,0,0,0-.528,0l-1.3.948.5-1.534a.449.449,0,0,0-.163-.5l-1.3-.948H3.445a.449.449,0,0,0,.427-.311l.5-1.534.5,1.534a.449.449,0,0,0,.427.311H6.91Z" transform="translate(0 -370.474)" fill="#fff"/>
      </g>
    </g>
    <g id="Group_670" data-name="Group 670" transform="translate(3.835 1.758)">
      <g id="Group_669" data-name="Group 669" transform="translate(0 0)">
        <path id="Path_615" data-name="Path 615" d="M87.273,12.962A2.036,2.036,0,0,0,86,9.338H78.769A8.251,8.251,0,0,0,79.4,7.065c.344-2.411-.176-3.69-.673-4.339a2.4,2.4,0,0,0-1.635-.96.958.958,0,0,0-1.062.917A17.055,17.055,0,0,1,75.2,6.8c-1.133,2.265-3.833,3.616-4.667,3.99a1.66,1.66,0,0,0-1.085-.4H65.793a1.669,1.669,0,0,0-1.667,1.667v9.134a1.669,1.669,0,0,0,1.667,1.667h3.654a1.663,1.663,0,0,0,1.24-.554,4.255,4.255,0,0,0,2.3.633H84.728a2.035,2.035,0,0,0,1.528-3.381,2.035,2.035,0,0,0,.635-3.174,2.035,2.035,0,0,0,.381-3.417ZM69.447,21.956H65.793a.769.769,0,0,1-.768-.768V12.054a.769.769,0,0,1,.768-.768h3.654a.766.766,0,0,1,.548.231V21.538a.447.447,0,0,0,.028.156A.766.766,0,0,1,69.447,21.956ZM84.11,13.411H86a1.138,1.138,0,1,1,0,2.275H84.11a.449.449,0,1,0,0,.9h1.254a1.138,1.138,0,1,1,0,2.275h-1.6a.449.449,0,1,0,0,.9h.963a1.138,1.138,0,0,1,0,2.275H72.984a3.324,3.324,0,0,1-1.9-.544,1.667,1.667,0,0,0,.028-.3V12.054a1.66,1.66,0,0,0-.078-.5A10.67,10.67,0,0,0,76,7.2a18.341,18.341,0,0,0,.925-4.452c0-.014,0-.029,0-.043a.05.05,0,0,1,.017-.039.045.045,0,0,1,.037-.012,1.511,1.511,0,0,1,1.03.615c.392.512.8,1.564.5,3.665A5.765,5.765,0,0,1,77.65,9.5a.453.453,0,0,0,.348.734h8a1.138,1.138,0,0,1,0,2.275H84.11a.449.449,0,1,0,0,.9Z" transform="translate(-64.126 -1.758)" fill="#fff"/>
      </g>
    </g>
  </g>
</svg>
