<svg xmlns="http://www.w3.org/2000/svg" width="16.2" height="16.2" viewBox="0 0 16.2 16.2">
  <g id="road" transform="translate(0.1 0.1)">
    <path id="Path_616" data-name="Path 616" d="M0,480H.516v.516H0Zm0,0" transform="translate(0 -464.516)" stroke="#000" stroke-width="0.2"/>
    <path id="Path_617" data-name="Path 617" d="M480,480h.516v.516H480Zm0,0" transform="translate(-464.516 -464.516)" stroke="#000" stroke-width="0.2"/>
    <path id="Path_618" data-name="Path 618" d="M16,3.613V0H13.419V3.1H12.9V1.1L11.355.588V0h-3.1V1.548H7.226V1.131L5.935.486l-1.29.645V3.1H4.129V0H1.548V1.032H0V3.613H4.07l-.7,3.355H0V8.516H1.032v3.613H.516v.516H2.188L1.6,15.484H1.032V16H14.968v-.516H14.4l-.591-2.839h1.672v-.516h-.516V8.516H16V6.968H12.629l-.7-3.355ZM13.935.516h1.548V3.1H13.935Zm-1.548.96V3.1H11.355V1.132ZM8.774.516h2.065V3.1H9.29V1.548H8.774Zm1.339,3.1,2.473,11.871H3.414L5.887,3.613ZM8.774,2.065V3.1H7.226V2.065ZM5.161,1.45l.774-.387.774.387V3.1H5.161ZM3.613.516V3.1H2.065V.516ZM.516,1.548H1.548V3.1H.516ZM3.048,8.516l-.468,2.245V8.516ZM.516,7.484H3.248l.258.258L3.248,8H.516ZM1.548,8.516h.516v3.613H1.548Zm1.167,4.129H3.1v-.516H2.823l.783-3.756.63-.631-.413-.413L4.6,3.613H5.36L2.887,15.484H2.124Zm11.737-.516h-.516V8.516h.516Zm-1.032-1.368-.468-2.245h.468Zm2.065-3.277V8H12.752l-.258-.258.258-.258Zm-3.307-.155-.413.413.631.631.783,3.756H12.9v.516h.382l.591,2.839h-.763L10.64,3.613H11.4Zm0,0" stroke="#000" stroke-width="0.2"/>
    <path id="Path_619" data-name="Path 619" d="M225.548,371.1V368H224v3.1Zm-1.032-2.581h.516v2.065h-.516Zm0,0" transform="translate(-216.774 -356.129)" stroke="#000" stroke-width="0.2"/>
    <path id="Path_620" data-name="Path 620" d="M225.548,256H224v3.1h1.548Zm-.516,2.581h-.516v-2.065h.516Zm0,0" transform="translate(-216.774 -247.742)" stroke="#000" stroke-width="0.2"/>
    <path id="Path_621" data-name="Path 621" d="M225.548,144H224v3.1h1.548Zm-.516,2.581h-.516v-2.065h.516Zm0,0" transform="translate(-216.774 -139.355)" stroke="#000" stroke-width="0.2"/>
  </g>
</svg>
