<svg xmlns="http://www.w3.org/2000/svg" width="21.037" height="21.037" viewBox="0 0 21.037 21.037">
  <g id="filter_1_" data-name="filter(1)" transform="translate(0 0)">
    <path id="Path_15142" data-name="Path 15142" d="M17.273,0H3.763A3.768,3.768,0,0,0,0,3.763v13.51a3.768,3.768,0,0,0,3.763,3.763h13.51a3.768,3.768,0,0,0,3.763-3.763V3.763A3.768,3.768,0,0,0,17.273,0ZM19.8,17.273A2.534,2.534,0,0,1,17.273,19.8H3.763a2.534,2.534,0,0,1-2.531-2.531V3.763A2.534,2.534,0,0,1,3.763,1.233h13.51A2.534,2.534,0,0,1,19.8,3.763Z" fill="#3876ba"/>
    <path id="Path_15143" data-name="Path 15143" d="M79.406,81.654H70.019a1.936,1.936,0,0,0-3.671,0H64.883a.616.616,0,1,0,0,1.233h1.465a1.936,1.936,0,0,0,3.671,0h9.387a.616.616,0,1,0,0-1.233Zm-11.222,1.32a.7.7,0,1,1,.7-.7A.7.7,0,0,1,68.184,82.975Z" transform="translate(-61.626 -77.033)" fill="#3876ba"/>
    <path id="Path_15144" data-name="Path 15144" d="M79.406,210.187H77.941a1.936,1.936,0,0,0-3.671,0H64.883a.616.616,0,0,0,0,1.233H74.27a1.936,1.936,0,0,0,3.671,0h1.465a.616.616,0,1,0,0-1.233Zm-3.3,1.32a.7.7,0,1,1,.7-.7A.7.7,0,0,1,76.106,211.508Z" transform="translate(-61.626 -200.285)" fill="#3876ba"/>
    <path id="Path_15145" data-name="Path 15145" d="M79.406,338.72H72.66a1.936,1.936,0,0,0-3.671,0H64.883a.616.616,0,1,0,0,1.233h4.106a1.936,1.936,0,0,0,3.671,0h6.746a.616.616,0,1,0,0-1.233Zm-8.582,1.32a.7.7,0,1,1,.7-.7A.7.7,0,0,1,70.825,340.041Z" transform="translate(-61.626 -323.537)" fill="#3876ba"/>
  </g>
</svg>
