<svg xmlns="http://www.w3.org/2000/svg" xmlns:xlink="http://www.w3.org/1999/xlink" width="68.316" height="62.34" viewBox="0 0 68.316 62.34">
  <defs>
    <filter id="Path_465" x="0" y="26.151" width="29.317" height="31.996" filterUnits="userSpaceOnUse">
      <feOffset dy="3" input="SourceAlpha"/>
      <feGaussianBlur stdDeviation="3" result="blur"/>
      <feFlood flood-opacity="0.161"/>
      <feComposite operator="in" in2="blur"/>
      <feComposite in="SourceGraphic"/>
    </filter>
    <filter id="Path_466" x="8.763" y="29.896" width="59.552" height="32.445" filterUnits="userSpaceOnUse">
      <feOffset dy="3" input="SourceAlpha"/>
      <feGaussianBlur stdDeviation="3" result="blur-2"/>
      <feFlood flood-opacity="0.161"/>
      <feComposite operator="in" in2="blur-2"/>
      <feComposite in="SourceGraphic"/>
    </filter>
    <filter id="Path_467" x="25.158" y="6.604" width="34.772" height="30.579" filterUnits="userSpaceOnUse">
      <feOffset dy="3" input="SourceAlpha"/>
      <feGaussianBlur stdDeviation="3" result="blur-3"/>
      <feFlood flood-opacity="0.161"/>
      <feComposite operator="in" in2="blur-3"/>
      <feComposite in="SourceGraphic"/>
    </filter>
    <filter id="Path_472" x="25.158" y="6.604" width="26.386" height="30.579" filterUnits="userSpaceOnUse">
      <feOffset dy="3" input="SourceAlpha"/>
      <feGaussianBlur stdDeviation="3" result="blur-4"/>
      <feFlood flood-opacity="0.161"/>
      <feComposite operator="in" in2="blur-4"/>
      <feComposite in="SourceGraphic"/>
    </filter>
  </defs>
  <g id="share" transform="translate(9)">
    <path id="Path_463" data-name="Path 463" d="M41.783,21.383c-4.193,0-12.579,5.306-16.772,5.306s-8.91-3.21-8.91-3.21a65.31,65.31,0,0,0,8.91,1.048c3.262,0,4.193-1.113,4.193-2.621,0-3.669-6.231-4.239-9.382-4.719A26.608,26.608,0,0,0,8.331,13.959a5.271,5.271,0,0,1-.161.891L3.958,29.693C8.725,31.865,18.6,35.01,22.914,35.01c6.289,0,23.061-8.386,23.061-10.482s-2.1-3.145-4.193-3.145" transform="translate(4.34 15.331)" fill="#ffcc80"/>
    <path id="Path_464" data-name="Path 464" d="M7.338,32.965H1.572A1.573,1.573,0,0,1,0,31.392V13.572A1.573,1.573,0,0,1,1.572,12c7.348,0,10.772,2.549,10.912,2.658a1.572,1.572,0,0,1,.564,1.66L8.856,31.8a1.573,1.573,0,0,1-1.518,1.161" transform="translate(0 13.182)" fill="#2196f3"/>
    <g transform="matrix(1, 0, 0, 1, -9, 0)" filter="url(#Path_465)">
      <path id="Path_465-2" data-name="Path 465" d="M0,15.324V27.748A1.573,1.573,0,0,0,1.572,29.32H7.338a1.575,1.575,0,0,0,1.428-.912,1.475,1.475,0,0,0,.09-.249l2.461-9.09Z" transform="translate(9 16.83)" fill="#1d83d4"/>
    </g>
    <g transform="matrix(1, 0, 0, 1, -9, 0)" filter="url(#Path_466)">
      <path id="Path_466-2" data-name="Path 466" d="M45.732,21.072c0,1.027-4.088,3.606-9.015,5.954-1.677.8-3.438,1.572-5.178,2.243-.461.168-.9.335-1.342.5-.776.273-1.509.524-2.243.755s-1.447.419-2.117.587a15.148,15.148,0,0,1-3.166.44,10.324,10.324,0,0,1-1.069-.063c-.252-.021-.524-.042-.8-.084A72.4,72.4,0,0,1,6.864,27.53c-.587-.21-1.174-.44-1.7-.65-.356-.147-.671-.294-.985-.419a1.182,1.182,0,0,0,.084-.252l2.474-9.1,9.413,3.1.042.021a25.508,25.508,0,0,0,3.417,1.782c.335.147.692.273,1.069.419.294.1.608.21.922.294.273.084.524.147.8.21.252.063.524.1.776.147.273.042.524.084.8.1s.545.042.8.042c4.193,0,12.579-5.3,16.772-5.3,2.1,0,4.193,1.048,4.193,3.145Z" transform="translate(13.58 18.79)" fill="#deb26f"/>
    </g>
    <g id="Group_580" data-name="Group 580" transform="translate(18.353 0)">
      <g transform="matrix(1, 0, 0, 1, -27.35, 0)" filter="url(#Path_467)">
        <path id="Path_467-2" data-name="Path 467" d="M20.386,18.579a15.124,15.124,0,0,1-6.635-1.6h0A3.128,3.128,0,0,1,12,14.176a8.389,8.389,0,0,1,16.772,0,3.128,3.128,0,0,1-1.748,2.805,15.111,15.111,0,0,1-6.637,1.6" transform="translate(22.16 6.6)" fill="#607d8b"/>
      </g>
      <path id="Path_468" data-name="Path 468" d="M12.562,6.374C12.036,3.831,12.617.868,14.745.13c1.618-.568,4,.512,4.772,4.26.526,2.543-.055,5.5-2.182,6.241-1.635.57-4-.526-4.772-4.258" transform="translate(-4.779 0.012)" fill="#607d8b"/>
      <path id="Path_469" data-name="Path 469" d="M18.573,10.631c-2.128-.738-2.709-3.7-2.182-6.241C17.162.656,19.529-.44,21.162.13c2.128.738,2.709,3.7,2.182,6.243-.772,3.732-3.136,4.828-4.772,4.258Z" transform="translate(-0.581 0.012)" fill="#607d8b"/>
      <path id="Path_470" data-name="Path 470" d="M9.534,8.951c-1.191-1.967-1.092-4.583.822-5.635,1.717-.941,4.061-.025,5.346,2.092,1.191,1.964,1.092,4.581-.822,5.635-1.843,1.011-4.174-.161-5.346-2.092" transform="translate(-8.754 3.256)" fill="#607d8b"/>
      <path id="Path_471" data-name="Path 471" d="M21.161,11.043c-1.914-1.052-2.013-3.669-.822-5.635,1.283-2.115,3.627-3.036,5.346-2.092,1.914,1.052,2.013,3.669.822,5.635-1.172,1.933-3.5,3.1-5.346,2.092Z" transform="translate(3.094 3.254)" fill="#607d8b"/>
    </g>
    <g transform="matrix(1, 0, 0, 1, -9, 0)" filter="url(#Path_472)">
      <path id="Path_472-2" data-name="Path 472" d="M20.386,6A8.293,8.293,0,0,0,12,14.176a3.128,3.128,0,0,0,1.748,2.805h0a15.1,15.1,0,0,0,6.635,1.6Z" transform="translate(22.16 6.6)" fill="#546d79"/>
    </g>
    <path id="Path_473" data-name="Path 473" d="M15.592-.011a2.521,2.521,0,0,0-.847.143c-2.128.738-2.709,3.7-2.182,6.243.646,3.124,2.409,4.4,3.925,4.4a2.6,2.6,0,0,0,.849-.14c2.128-.738,2.709-3.7,2.182-6.241-.65-3.138-2.417-4.407-3.927-4.4" transform="translate(13.575 0.013)" fill="#546d79"/>
    <path id="Path_474" data-name="Path 474" d="M11.827,2.947a3.048,3.048,0,0,0-1.472.369C8.441,4.368,8.343,6.985,9.534,8.949a4.841,4.841,0,0,0,3.883,2.465,3.03,3.03,0,0,0,1.463-.371c1.914-1.052,2.013-3.669.822-5.635a4.755,4.755,0,0,0-3.874-2.461" transform="translate(9.599 3.256)" fill="#546d79"/>
  </g>
</svg>
