<svg xmlns="http://www.w3.org/2000/svg" width="230.296" height="509.217" viewBox="0 0 230.296 509.217">
  <g id="Group_18392" data-name="Group 18392" transform="translate(-65.369 -117.857)">
    <g id="Group_8" data-name="Group 8" transform="translate(-96.092 -116.087)">
      <ellipse id="Ellipse_2" data-name="Ellipse 2" cx="55.023" cy="5.055" rx="55.023" ry="5.055" transform="translate(177.04 733.053)" fill="#78a0a0"/>
      <path id="Path_53" data-name="Path 53" d="M259.926,724.133c-.21,9.3-.818,24.156-1.028,33.459-.062,2.763.29.069,1.372,2.627a15.461,15.461,0,0,0,3.433,4.744,14.578,14.578,0,0,0,4.165,3.108,16.886,16.886,0,0,0,5.736,1.213c5.423.422,11.17.129,15.823-2.6a3.57,3.57,0,0,0,1.414-1.263c.2-.377,7.512-8.577,7.057-8.7-7.463-2.086-7.948-5.545-8.432-12.093-.209-2.825-.12-5.663-.293-8.49a45.981,45.981,0,0,0-2.179-11.427,21.5,21.5,0,0,0-3.984-7.625c-4.4-5.035-17.788-10.444-21.541-2.266C260.12,717.758,260,720.965,259.926,724.133Z" transform="translate(-68.43 -75.153)" fill="#fff9e9"/>
      <path id="Path_54" data-name="Path 54" d="M346.784,826.187q-.068-1.236-.189-2.468a37.374,37.374,0,0,0-3.667-1.657,26.631,26.631,0,0,0-6.32-1.908c-1.624-.22-5.445-.483-6.223,1.466-.705,1.766,1.687,4.443,2.69,5.718a27.007,27.007,0,0,0,10.611,8.091,30.5,30.5,0,0,0,3.738,1.194C347.4,836.324,346.957,829.357,346.784,826.187Z" transform="translate(-126.02 -163.428)" fill="#f2ecdf"/>
      <g id="Group_4" data-name="Group 4" transform="translate(243.174 724.961)">
        <path id="Path_55" data-name="Path 55" d="M532.046,1180.023a3.82,3.82,0,0,0,.479,2.823,2.337,2.337,0,0,0,2.554.982c-.234.582.487,1.08,1.089,1.254a10.721,10.721,0,0,0,7.219-.48,6.543,6.543,0,0,0,2.3-1.584,5.371,5.371,0,0,0-.484-7.157c-2.092-2-5-1.9-7.5-.866C535.188,1176.041,532.6,1176.946,532.046,1180.023Z" transform="translate(-531.969 -1174.271)" fill="#ddd8ce"/>
        <path id="Path_56" data-name="Path 56" d="M545.464,1206.275a5.035,5.035,0,0,0-3.756,3.375,6.085,6.085,0,0,0,.814.138c.3-.005.387-.029.491-.282a11.794,11.794,0,0,1,.564-1.28A4.762,4.762,0,0,1,545.464,1206.275Z" transform="translate(-539.828 -1200.097)" fill="#bcb8b1"/>
      </g>
      <path id="Path_57" data-name="Path 57" d="M505.984,1011.795c1.066,3.124,3.094,5.812,5.082,8.448s4,5.341,5.021,8.48c.655,2.011,1.133,4.468,3.079,5.3,1.577.673,4.98,1.717,6.042.371s2.606-25.883,1.553-35.484a9.058,9.058,0,0,0-.832-3.35,6.065,6.065,0,0,0-4.238-2.869,12.524,12.524,0,0,0-5.24.312,16.361,16.361,0,0,0-6.675,3.059C505.816,999.312,504.379,1007.091,505.984,1011.795Z" transform="translate(-267.305 -302.65)" fill="#ddd8ce"/>
      <path id="Path_58" data-name="Path 58" d="M349.791,632.853c.308-.8.524-.772,1.1-1.409a2.872,2.872,0,0,1,2.257-1.033c1.443.1,2.379,1.54,2.977,2.857a28.875,28.875,0,0,1,2.13,6.848,5.309,5.309,0,0,1,.044,2.268c-.419,1.6-2.076,2.529-3.645,3.051a7.545,7.545,0,0,1-3.507.453c-2.412-.377-3.353-1.782-3.067-3.937C348.457,639.074,348.729,635.616,349.791,632.853Z" transform="translate(-140.36 -10.43)" fill="#bf946d"/>
      <path id="Path_59" data-name="Path 59" d="M354.217,1082.1c1.441,1.829,2.982,3.734,5.141,4.6s5.108.245,5.995-1.908a6.757,6.757,0,0,0,.128-3.513l-.654-4.64c-.579-4.11-1.172-8.27-2.757-12.107s-4.293-7.376-8.075-9.087c-4.611-2.085-17.328-.3-14.821,7.161,1.092,3.251,4.792,6.482,6.879,9.131Z" transform="translate(-132.955 -352.77)" fill="#ddd8ce"/>
      <g id="Group_5" data-name="Group 5" transform="translate(218.7 725.7)">
        <path id="Path_60" data-name="Path 60" d="M405.251,1186.859a3.821,3.821,0,0,0,1.378,2.51,2.338,2.338,0,0,0,2.735.091c-.031.627.813.86,1.44.827a10.722,10.722,0,0,0,6.663-2.819,6.545,6.545,0,0,0,1.658-2.252,5.372,5.372,0,0,0-2.8-6.6c-2.633-1.208-5.348-.155-7.366,1.639C406.914,1182.067,404.764,1183.771,405.251,1186.859Z" transform="translate(-405.181 -1178.095)" fill="#ddd8ce"/>
        <path id="Path_61" data-name="Path 61" d="M423.244,1216.142a5.035,5.035,0,0,0-2.442,4.42,6.085,6.085,0,0,0,.814-.137c.277-.1.356-.154.371-.427a11.8,11.8,0,0,1,.114-1.394A4.762,4.762,0,0,1,423.244,1216.142Z" transform="translate(-417.783 -1208.798)" fill="#bcb8b1"/>
      </g>
      <path id="Path_62" data-name="Path 62" d="M290.835,699.816a40.5,40.5,0,0,0,25.192,1.966,30.712,30.712,0,0,0,14.148-7.485,18.608,18.608,0,0,0,5.924-13.539c-.07-2.361,1.594-13.706-7.718-17.218a26.372,26.372,0,0,0-4.778-1.571c-10.636-1.832-21.236,2.772-32.016,3.707-7.837.68-17.4.158-20.145,8.426-2.06,6.2,4.037,14.275,8.5,18.549A36.371,36.371,0,0,0,290.835,699.816Z" transform="translate(-78.225 -35.555)" fill="#fff9e9"/>
      <path id="Path_63" data-name="Path 63" d="M263.367,936.16a32.775,32.775,0,0,0,4.419,8.526c4.706,6.119,12.646,9.3,20.5,10.825a69.573,69.573,0,0,0,36.559-2.806c5.74-2.071,11.445-5.162,14.45-10.216a22.652,22.652,0,0,0,2.744-9.682,21.055,21.055,0,0,0-.675-8.464c-2.053-6.225-8.426-10.493-15.112-12.156s-13.735-1.161-20.628-.652-13.945,1-20.625-.683c-4.431-1.117-8.539-3.154-12.906-4.473-2.825-.853-8.483-2.405-11.222-.63-2.318,1.5-1.9,5.422-1.932,7.737A61.867,61.867,0,0,0,263.367,936.16Z" transform="translate(-68.459 -231.964)" fill="#fff9e9"/>
      <path id="Path_64" data-name="Path 64" d="M366.1,1069.818c-3.006,5.054-8.71,8.144-14.45,10.216a69.573,69.573,0,0,1-36.559,2.806c-7.852-1.524-15.792-4.706-20.5-10.825-1.977-2.57-.86,2.437,1.117,5.007,4.706,6.119,12.646,9.3,20.5,10.825a69.574,69.574,0,0,0,36.559-2.806c5.74-2.071,11.445-5.162,14.45-10.216C368.966,1071.888,367.85,1066.882,366.1,1069.818Z" transform="translate(-96.407 -364.3)" fill="#f2ecdf"/>
      <g id="Group_6" data-name="Group 6" transform="translate(200.26 728.057)">
        <path id="Path_65" data-name="Path 65" d="M309.731,1196.062a3.82,3.82,0,0,0,.48,2.823,2.337,2.337,0,0,0,2.554.982c-.234.582.487,1.08,1.089,1.254a10.723,10.723,0,0,0,7.219-.48,6.55,6.55,0,0,0,2.3-1.584,5.372,5.372,0,0,0-.484-7.157c-2.092-2-5-1.9-7.5-.866C312.873,1192.079,310.284,1192.985,309.731,1196.062Z" transform="translate(-309.654 -1190.31)" fill="#fff9e9"/>
        <path id="Path_66" data-name="Path 66" d="M323.149,1222.314a5.035,5.035,0,0,0-3.756,3.375,6.121,6.121,0,0,0,.814.138c.3-.005.387-.029.491-.282a11.769,11.769,0,0,1,.565-1.28A4.762,4.762,0,0,1,323.149,1222.314Z" transform="translate(-317.513 -1216.136)" fill="#f2e2d3"/>
      </g>
      <g id="Group_7" data-name="Group 7" transform="translate(257.927 728.057)">
        <path id="Path_67" data-name="Path 67" d="M608.47,1196.062a3.82,3.82,0,0,0,.48,2.823,2.337,2.337,0,0,0,2.554.982c-.234.582.487,1.08,1.089,1.254a10.722,10.722,0,0,0,7.219-.48,6.55,6.55,0,0,0,2.3-1.584,5.371,5.371,0,0,0-.484-7.157c-2.091-2-5-1.9-7.5-.866C611.612,1192.079,609.023,1192.985,608.47,1196.062Z" transform="translate(-608.393 -1190.31)" fill="#fff9e9"/>
        <path id="Path_68" data-name="Path 68" d="M621.889,1222.314a5.035,5.035,0,0,0-3.756,3.375,6.114,6.114,0,0,0,.814.138c.3-.005.386-.029.491-.282a11.8,11.8,0,0,1,.565-1.28A4.761,4.761,0,0,1,621.889,1222.314Z" transform="translate(-616.253 -1216.136)" fill="#f2e2d3"/>
      </g>
      <path id="Path_69" data-name="Path 69" d="M634.134,848.7c2.085-4.356,2.184-9.367,2.118-14.2.475-.425,1.151.231,1.418.81,2.317,5.027,2.442,10.784,1.959,16.3a28.185,28.185,0,0,1-2.467,10.283,12.359,12.359,0,0,1-7.818,6.711c-3.453.811-7.521-.708-9.008-3.928-1.886-4.085.989-7.2,4.593-7.905C628.984,855.985,632.389,852.35,634.134,848.7Z" transform="translate(-359.622 -175.022)" fill="#fff9e9"/>
      <path id="Path_70" data-name="Path 70" d="M523.9,665.607a29.839,29.839,0,0,0-4.423-1.5c-2.921,2-5.725,5.875-6.114,8.656a4.066,4.066,0,0,0,1.969,4.261c2.51,1.173,5.294-1.333,8.058-1.139a14.163,14.163,0,0,1,3.137.9,3.819,3.819,0,0,0,3.165-.128,4.057,4.057,0,0,0,1.466-2.3C530.358,670.869,528.425,667.313,523.9,665.607Z" transform="translate(-273.745 -37.623)" fill="#231f20"/>
      <path id="Path_71" data-name="Path 71" d="M199.653,699.985a3.016,3.016,0,0,0-1.772.2c-1.192.661-3.4,4.77-3,6.071,1.425,4.557,6.5,6.337,10.118,9.451,1.427,1.228,3.14,2.347,5.022,2.281a5.621,5.621,0,0,0,4.357-2.725,10.784,10.784,0,0,0,1.457-5.086c.252-3.64-1.153-5.6-4.414-6.886A44.529,44.529,0,0,0,199.653,699.985Z" transform="translate(-16.74 -66.545)" fill="#bf946d"/>
      <path id="Path_72" data-name="Path 72" d="M179.532,700.234c-3,2.754-5.744,6.411-5.413,10.469a13.54,13.54,0,0,0,2.658,6.324,5.31,5.31,0,0,0,1.552,1.663,1.972,1.972,0,0,0,2.159.016,2.7,2.7,0,0,0,.815-1.909,18.712,18.712,0,0,0,.25-4.4c-.591-4.745,1.42-9.25,2.5-12.71C184.049,699.683,180.875,699,179.532,700.234Z" transform="translate(0 -66.182)" fill="#edb68a"/>
      <path id="Path_73" data-name="Path 73" d="M359.3,621.346a6.464,6.464,0,0,1,2.817.575c1.937.947,3.451,2.184,5.316,3.223.117.065,1.281.843,2.2.121,1.882-1.475-.282-5.458-1.266-6.474a4.679,4.679,0,0,0-3.2-1.3,9.114,9.114,0,0,0-3.453.664,9.246,9.246,0,0,0-2.974,1.663,4.716,4.716,0,0,0-1.582,2.611A2.664,2.664,0,0,1,359.3,621.346Z" transform="translate(-147.735)" fill="#edb68a"/>
      <path id="Path_74" data-name="Path 74" d="M330.529,700.892a11.4,11.4,0,0,0-.325,3.682,14.17,14.17,0,0,1-1.278,5.558,8.914,8.914,0,0,0-1.089,3.019,4.65,4.65,0,0,0,1.239,3.221,9.064,9.064,0,0,0,7.806,2.78,17.061,17.061,0,0,0,7.868-3.285,12.976,12.976,0,0,0,2.69-2.373,12.413,12.413,0,0,0,1.522-2.525,25.485,25.485,0,0,0,1.977-5.979,8.319,8.319,0,0,0,.092-3.6,3.6,3.6,0,0,0-2.26-2.639,5.836,5.836,0,0,0-3.006.194,51.7,51.7,0,0,1-7.342,1.168,9.447,9.447,0,0,1-4.7-.658A2.193,2.193,0,0,0,330.529,700.892Z" transform="translate(-124.062 -65.471)" fill="#bf946d"/>
      <path id="Path_75" data-name="Path 75" d="M364.442,722.644c-1.174,2.034-4.542,2.287-7.523.566s-4.445-4.765-3.271-6.8,4.542-2.287,7.523-.566S365.616,720.61,364.442,722.644Z" transform="translate(-144.569 -78.455)" fill="#fff"/>
      <path id="Path_76" data-name="Path 76" d="M371.693,715.848c1.483,1.232,1.915,3.156.966,4.3s-2.92,1.07-4.4-.161-1.915-3.156-.966-4.3S370.211,714.617,371.693,715.848Z" transform="translate(-155.499 -78.593)" fill="#231f20"/>
      <path id="Path_77" data-name="Path 77" d="M524.157,679.483a5.4,5.4,0,0,0-1.079,2.854,2.41,2.41,0,0,0,1.592,2.391,1.507,1.507,0,0,0,1.646-.578c.52-.844-.115-1.942.039-2.921.233-1.487,2.085-2.108,2.829-3.417a1.273,1.273,0,0,0,.141-1.133C528.169,674.173,524.717,678.642,524.157,679.483Z" transform="translate(-281.62 -47.162)" fill="#fff9e9" opacity="0.29"/>
      <path id="Path_78" data-name="Path 78" d="M380.6,1109.863a4.121,4.121,0,0,0,2.59-1.508,4.453,4.453,0,0,0,.449-3.478,11.913,11.913,0,0,0-3.316-6.1,4.386,4.386,0,0,0-3.758-1.54,3.343,3.343,0,0,0-2.19,1.754,6.368,6.368,0,0,0-.623,2.715,10.13,10.13,0,0,0,.756,4.567C375.621,1108.774,377.683,1110.441,380.6,1109.863Z" transform="translate(-161.112 -387.1)" fill="#f2ecdf"/>
      <path id="Path_79" data-name="Path 79" d="M298.264,1079.832c.762,2.2,1.593,4.5,3.349,6.033s4.745,1.905,6.289.162a6.755,6.755,0,0,0,1.273-3.277l.9-4.6c.8-4.073,1.6-8.2,1.364-12.341s-1.638-8.376-4.651-11.231c-3.673-3.481-16.272-5.963-16.35,1.908-.034,3.43,2.4,7.694,3.506,10.881Z" transform="translate(-93.889 -350.055)" fill="#fff9e9"/>
      <path id="Path_80" data-name="Path 80" d="M566.981,1094.054a8.726,8.726,0,0,1-.4-4.131c.122-1.766.3-3.635,1.481-5.007a1.528,1.528,0,0,1,.92-.586,2.172,2.172,0,0,1,1.55.682c2.758,2.283,5.67,4.872,6.2,8.134a2.41,2.41,0,0,1-.262,1.792,2.7,2.7,0,0,1-.956.761C572.892,1097.111,568.351,1097.226,566.981,1094.054Z" transform="translate(-316.674 -376.723)" fill="#f2ecdf"/>
      <path id="Path_81" data-name="Path 81" d="M582.408,1027.833c1.066,3.124,3.095,5.812,5.082,8.448s4,5.341,5.021,8.48c.655,2.011,1.133,4.468,3.079,5.3,1.577.673,4.98,1.717,6.042.37s2.605-25.883,1.553-35.484a9.065,9.065,0,0,0-.832-3.35,6.065,6.065,0,0,0-4.238-2.868,12.517,12.517,0,0,0-5.24.312,16.358,16.358,0,0,0-6.675,3.059C582.24,1015.35,580.8,1023.129,582.408,1027.833Z" transform="translate(-328.977 -315.593)" fill="#fff9e9"/>
      <path id="Path_82" data-name="Path 82" d="M495.153,817.479s-4.389,2.453-11.349,1.081-8.828-3.552-9.347-3.229,3.255,3.229,7.463,4.6a27.948,27.948,0,0,0,9.366.953s1.282-.967,1.893-1.486A17.785,17.785,0,0,0,495.153,817.479Z" transform="translate(-242.346 -159.631)" fill="#231f20"/>
      <path id="Path_83" data-name="Path 83" d="M524.484,841.669a20.245,20.245,0,0,1,1.388,5.3,10.135,10.135,0,0,0,1.087,3.965,3.041,3.041,0,0,0,3.513,1.467,2.8,2.8,0,0,0,1.44-1.562,6.148,6.148,0,0,0,.373-2.137,18.843,18.843,0,0,0-1.909-8.543c-.7-1.487-1.692-3.127-3.307-3.434a6.229,6.229,0,0,0-2.115.089,13.467,13.467,0,0,0-3.016-.57c-.674.007-1.659.37-1.033,1.11.58.687,1.494,1.124,2.092,1.858A10.844,10.844,0,0,1,524.484,841.669Z" transform="translate(-279.706 -176.535)" fill="#f45c4d"/>
      <path id="Path_84" data-name="Path 84" d="M533.907,840.83a8.267,8.267,0,0,1,2.4,3.864,4.457,4.457,0,0,0,.863,2.048,1.567,1.567,0,0,0,.167-1.126,11.632,11.632,0,0,0-1.235-3.981c-.371-.709-1.087-1.863-1.9-2.141C533.138,839.127,533.359,840.335,533.907,840.83Z" transform="translate(-289.99 -179.101)" fill="#fff9e9" opacity="0.29"/>
      <path id="Path_85" data-name="Path 85" d="M551.275,885.288a4.417,4.417,0,0,0,.482,1.785c.109.212.311.446.537.373.195-.063.251-.307.265-.512a5.657,5.657,0,0,0-.131-1.64C552.224,884.408,551.217,884.178,551.275,885.288Z" transform="translate(-304.372 -215.507)" fill="#fff9e9" opacity="0.29"/>
      <path id="Path_86" data-name="Path 86" d="M482.129,949.6a12.173,12.173,0,0,0-4.076,2.929,12.558,12.558,0,0,0-3.1,4.549,6.03,6.03,0,0,0,.491,5.327c1.766,2.572,5.455,2.748,8.559,2.44s6.6-.732,9.016,1.239c.784.639,1.377,1.483,2.142,2.144a6.745,6.745,0,0,0,8.287.074,7.8,7.8,0,0,0,2.524-8.079,9.26,9.26,0,0,0-6.065-6.12c-1.358-.439-2.8-.588-4.131-1.113C491.4,951.263,487.237,947.591,482.129,949.6Z" transform="translate(-242.469 -267.537)" fill="#bf946d"/>
      <path id="Path_87" data-name="Path 87" d="M279.728,1017.479a12.4,12.4,0,0,0,.351-4.432q-.228-5.489-.456-10.978a7,7,0,0,0-.418-2.523c-.634-1.457-2.148-2.291-3.559-3.02-2.4-1.242-4.944-2.516-7.648-2.425a6.371,6.371,0,0,0-4.391,1.573,71.735,71.735,0,0,0,3.537,12.438,47.8,47.8,0,0,0,1.9,4.442c.652,2.933,2.369,6.144,3.245,8.676l.1.3A6.476,6.476,0,0,0,279.728,1017.479Z" transform="translate(-72.236 -303.915)" fill="#bf946d"/>
    </g>
    <g id="Group_9" data-name="Group 9" transform="translate(-383.998 192.247)">
      <path id="Path_88" data-name="Path 88" d="M542.9,282.831c-1.51-2.466-2.634-5.6-1.341-8.189a6.28,6.28,0,0,1,2.209-2.382c3.839-2.517,9.232-1.289,12.721,1.693s5.473,7.326,7.171,11.591c.667-2.592,1.45-5.371,3.539-7.045a7.221,7.221,0,0,1,8.973.459,9.38,9.38,0,0,1,2.666,8.916,13.535,13.535,0,0,1-5.427,7.852,12.4,12.4,0,0,1-4.789,2.225c-4.955,1-10.511-2.093-14.743-4.462A31.283,31.283,0,0,1,542.9,282.831Z" transform="translate(0 -12.23)" fill="#d6d350"/>
      <path id="Path_89" data-name="Path 89" d="M578.455,256.177a12.7,12.7,0,0,1,6.639-3.332,10.908,10.908,0,0,1,4.8-.131c3.458.827,5.819,4.129,6.868,7.526a18.9,18.9,0,0,1-4.817,18.75,21.494,21.494,0,0,1,6.949-5.17c2.647-1.233,6-1.837,8.329-.082a6.217,6.217,0,0,1,2.135,5.833,10.851,10.851,0,0,1-3,5.673,15.3,15.3,0,0,1-9.751,4.925c-6.675.547-15.528-4-18.291-10.278C575.538,273.585,573.21,261.677,578.455,256.177Z" transform="translate(-22.812)" fill="#fcfc5b"/>
      <path id="Path_90" data-name="Path 90" d="M571.3,329.9c-.748,2.048,1.369,3.929,3.213,5.091l10.6,6.68a20.645,20.645,0,0,0,6.819,3.208,3.063,3.063,0,0,0,2.632-.414,2.416,2.416,0,0,0,.384-2.756,7.076,7.076,0,0,0-1.918-2.25C590.825,337.51,574.528,321.058,571.3,329.9Z" transform="translate(-20.037 -49.715)" fill="#bf946d"/>
    </g>
    <g id="Group_10" data-name="Group 10" transform="translate(-148.433 248.468)">
      <path id="Path_91" data-name="Path 91" d="M324.9,160.167a10.938,10.938,0,0,1,6.266-1.276,9.4,9.4,0,0,1,4.018.971c2.687,1.465,3.907,4.74,4.014,7.8a16.273,16.273,0,0,1-8.221,14.5,18.5,18.5,0,0,1,6.938-2.733c2.477-.429,5.395-.177,6.94,1.806a5.352,5.352,0,0,1,.462,5.327,9.341,9.341,0,0,1-3.772,4.039,13.17,13.17,0,0,1-9.211,1.9c-5.67-1.047-12-6.813-12.888-12.655C318.563,173.977,319.307,163.558,324.9,160.167Z" transform="translate(-62.57)" fill="#fcfc5b"/>
      <path id="Path_92" data-name="Path 92" d="M237.435,237.464a10.941,10.941,0,0,0-2.754,5.772,9.393,9.393,0,0,0-.03,4.134c.771,2.962,3.654,4.937,6.6,5.781a16.273,16.273,0,0,0,16.055-4.47,18.5,18.5,0,0,0-4.33,6.071c-1.016,2.3-1.477,5.192.073,7.17a5.352,5.352,0,0,0,5.057,1.738,9.341,9.341,0,0,0,4.831-2.683,13.17,13.17,0,0,0,4.071-8.478c.355-5.755-3.707-13.3-9.162-15.566C252.368,234.654,242.078,232.855,237.435,237.464Z" transform="translate(0 -55.939)" fill="#fcfc5b"/>
      <path id="Path_93" data-name="Path 93" d="M305.493,232.179c-1.082,1.534.253,3.573,1.525,4.954l7.3,7.935a17.771,17.771,0,0,0,4.945,4.2,2.638,2.638,0,0,0,2.281.248,2.08,2.08,0,0,0,.939-2.2,6.09,6.09,0,0,0-1.088-2.3C320,242.9,310.163,225.559,305.493,232.179Z" transform="translate(-52.199 -53.049)" fill="#bf946d"/>
    </g>
    <g id="Group_18391" data-name="Group 18391">
      <g id="Group_176" data-name="Group 176" transform="translate(-188.409 170.272) rotate(-22)" opacity="0.28">
        <g id="Group_173" data-name="Group 173" transform="translate(240.236 74.269)">
          <g id="Group_172" data-name="Group 172" transform="translate(5.851 10.273)">
            <path id="Path_414" data-name="Path 414" d="M259.858,79.061c-3.293-1.488-3.9-1.909-5.094-3.04a5.1,5.1,0,0,0-4.313-1.489c-2.381.639-2.583,3.317-3.519,5-1.07,1.925-4.355,4.227-2.528,6.786s5.545-1.454,9.076-1.565,3.07-.134,5.776-.216S263.561,80.732,259.858,79.061Z" transform="translate(-243.862 -74.443)" fill="#3f475e"/>
          </g>
          <path id="Path_415" data-name="Path 415" d="M243.61,73.774c1.583.77,3.564,2.031,3.745,4.421a2.523,2.523,0,0,1-3.5,2.664,7.331,7.331,0,0,1-3.6-5.215C240.047,73.134,242.185,73.08,243.61,73.774Z" transform="translate(-240.236 -64.814)" fill="#3f475e"/>
          <path id="Path_416" data-name="Path 416" d="M247.459,70.152c1.194,1.294,2.58,3.19,1.876,5.483a2.522,2.522,0,0,1-4.231,1.2,7.327,7.327,0,0,1-1.455-6.168C244.376,68.256,246.386,68.987,247.459,70.152Z" transform="translate(-238.268 -67.467)" fill="#3f475e"/>
          <path id="Path_417" data-name="Path 417" d="M254.152,72.167c-1.215,1.275-2.63,3.148-1.965,5.452a2.522,2.522,0,0,0,4.21,1.273,7.325,7.325,0,0,0,1.559-6.142C257.268,70.324,255.246,71.021,254.152,72.167Z" transform="translate(-233.009 -66.209)" fill="#3f475e"/>
          <path id="Path_418" data-name="Path 418" d="M248.774,69.983c-.62,1.649-1.192,3.926.321,5.786a2.522,2.522,0,0,0,4.373-.473,7.328,7.328,0,0,0-.967-6.263C250.922,67.069,249.332,68.5,248.774,69.983Z" transform="translate(-235.392 -68.076)" fill="#3f475e"/>
        </g>
        <g id="Group_175" data-name="Group 175" transform="translate(268.107 57.98)">
          <g id="Group_174" data-name="Group 174" transform="translate(1.496 10.265)">
            <path id="Path_419" data-name="Path 419" d="M275.575,72.306c-2.419-2.685-2.809-3.317-3.445-4.829a5.1,5.1,0,0,0-3.35-3.1c-2.438-.371-3.7,2-5.232,3.164-1.752,1.333-5.684,2.122-5.04,5.2s5.663.9,8.942,2.21,2.864,1.11,5.376,2.123S278.294,75.325,275.575,72.306Z" transform="translate(-258.437 -64.342)" fill="#3f475e"/>
          </g>
          <path id="Path_420" data-name="Path 420" d="M261.61,61.758c1.141,1.341,2.448,3.291,1.652,5.554a2.52,2.52,0,0,1-4.274,1.031,7.323,7.323,0,0,1-1.207-6.222C258.6,59.739,260.584,60.551,261.61,61.758Z" transform="translate(-257.51 -56.379)" fill="#3f475e"/>
          <path id="Path_421" data-name="Path 421" d="M266.856,59.947c.573,1.665,1.079,3.958-.484,5.775a2.522,2.522,0,0,1-4.358-.6,7.325,7.325,0,0,1,1.144-6.233C264.793,56.973,266.34,58.45,266.856,59.947Z" transform="translate(-254.909 -57.98)" fill="#3f475e"/>
          <path id="Path_422" data-name="Path 422" d="M272.411,64.146c-1.625.679-3.674,1.825-3.99,4.2a2.523,2.523,0,0,0,3.345,2.857,7.328,7.328,0,0,0,3.893-5C276,63.709,273.871,63.534,272.411,64.146Z" transform="translate(-250.833 -54.379)" fill="#3f475e"/>
          <path id="Path_423" data-name="Path 423" d="M268.319,60.191c-1.229,1.26-2.669,3.116-2.031,5.428a2.523,2.523,0,0,0,4.2,1.323,7.329,7.329,0,0,0,1.631-6.125C271.455,58.384,269.424,59.059,268.319,60.191Z" transform="translate(-252.221 -57.251)" fill="#3f475e"/>
        </g>
      </g>
      <g id="Group_177" data-name="Group 177" transform="translate(301.774 356.972) rotate(158)" opacity="0.28">
        <g id="Group_173-2" data-name="Group 173" transform="translate(0 10.684)">
          <g id="Group_172-2" data-name="Group 172" transform="translate(3.837 6.738)">
            <path id="Path_414-2" data-name="Path 414" d="M10.491,3.029A9.441,9.441,0,0,1,7.15,1.035,3.346,3.346,0,0,0,4.322.058C2.76.477,2.628,2.234,2.014,3.337,1.312,4.6-.842,6.109.356,7.787s3.637-.953,5.952-1.026,2.014-.088,3.788-.142S12.92,4.125,10.491,3.029Z" transform="translate(0 0)" fill="#3f475e"/>
          </g>
          <path id="Path_415-2" data-name="Path 415" d="M2.213.25a3.722,3.722,0,0,1,2.456,2.9A1.655,1.655,0,0,1,2.373,4.9,4.808,4.808,0,0,1,.009,1.477C-.124-.17,1.279-.2,2.213.25Z" transform="translate(0 5.626)" fill="#3f475e"/>
          <path id="Path_416-2" data-name="Path 416" d="M2.634.711a3.72,3.72,0,0,1,1.231,3.6A1.654,1.654,0,0,1,1.09,5.1,4.805,4.805,0,0,1,.136,1.051C.612-.532,1.93-.053,2.634.711Z" transform="translate(3.394 1.05)" fill="#3f475e"/>
          <path id="Path_417-2" data-name="Path 417" d="M1.4.687A3.723,3.723,0,0,0,.112,4.263,1.654,1.654,0,0,0,2.872,5.1,4.8,4.8,0,0,0,3.895,1.069C3.444-.521,2.118-.064,1.4.687Z" transform="translate(12.466 3.22)" fill="#3f475e"/>
          <path id="Path_418-2" data-name="Path 418" d="M.421,1.251A3.721,3.721,0,0,0,.632,5.046,1.654,1.654,0,0,0,3.5,4.736,4.806,4.806,0,0,0,2.866.628C1.83-.66.787.28.421,1.251Z" transform="translate(8.356 0)" fill="#3f475e"/>
        </g>
        <g id="Group_175-2" data-name="Group 175" transform="translate(18.28 0)">
          <g id="Group_174-2" data-name="Group 174" transform="translate(0.981 6.732)">
            <path id="Path_419-2" data-name="Path 419" d="M11.24,5.223A9.462,9.462,0,0,1,8.981,2.056,3.346,3.346,0,0,0,6.784.026C5.185-.218,4.357,1.337,3.352,2.1,2.2,2.975-.376,3.492.046,5.511s3.714.587,5.865,1.45,1.878.728,3.526,1.393S13.023,7.2,11.24,5.223Z" transform="translate(0 0)" fill="#3f475e"/>
          </g>
          <path id="Path_420-2" data-name="Path 420" d="M2.689.767A3.72,3.72,0,0,1,3.773,4.409a1.653,1.653,0,0,1-2.8.676A4.8,4.8,0,0,1,.178,1C.717-.557,2.016-.025,2.689.767Z" transform="translate(0 2.76)" fill="#3f475e"/>
          <path id="Path_421-2" data-name="Path 421" d="M3.349,1.29a3.724,3.724,0,0,1-.318,3.787A1.654,1.654,0,0,1,.173,4.686,4.8,4.8,0,0,1,.923.6C2-.66,3.01.308,3.349,1.29Z" transform="translate(4.487 0)" fill="#3f475e"/>
          <path id="Path_422-2" data-name="Path 422" d="M2.635.195A3.721,3.721,0,0,0,.018,2.95,1.655,1.655,0,0,0,2.211,4.824,4.806,4.806,0,0,0,4.765,1.545C4.991-.092,3.592-.206,2.635.195Z" transform="translate(11.518 6.211)" fill="#3f475e"/>
          <path id="Path_423-2" data-name="Path 423" d="M1.435.672A3.723,3.723,0,0,0,.1,4.232,1.654,1.654,0,0,0,2.854,5.1a4.807,4.807,0,0,0,1.07-4.017C3.492-.513,2.16-.071,1.435.672Z" transform="translate(9.123 1.257)" fill="#3f475e"/>
        </g>
      </g>
    </g>
  </g>
</svg>
