<svg id="technical-support" xmlns="http://www.w3.org/2000/svg" width="30.66" height="30.66" viewBox="0 0 30.66 30.66">
  <path id="Path_601" data-name="Path 601" d="M5.393,23.711a2.5,2.5,0,0,0-1.208.308A14.139,14.139,0,0,1,18.145,1.478.6.6,0,0,0,18.382.3,15.444,15.444,0,0,0,15.33,0,15.33,15.33,0,0,0,3.3,24.831a2.516,2.516,0,1,0,2.094-1.12Zm.931,3.447a1.317,1.317,0,1,1,.386-.931A1.308,1.308,0,0,1,6.324,27.157Zm0,0" fill="#fff"/>
  <path id="Path_602" data-name="Path 602" d="M213.019,35.96a2.51,2.51,0,1,0-.885.812A14.139,14.139,0,0,1,198.2,59.319a.6.6,0,0,0-.235,1.175,15.455,15.455,0,0,0,3.023.3A15.33,15.33,0,0,0,213.019,35.96Zm-3.025-.463a1.318,1.318,0,1,1,.931.386A1.309,1.309,0,0,1,209.994,35.5Zm0,0" transform="translate(-185.658 -30.131)" fill="#fff"/>
  <path id="Path_603" data-name="Path 603" d="M82.413,95.2a.6.6,0,0,0,.6.6h3.744a.6.6,0,0,0,.6-.6V94.038a9.377,9.377,0,0,0,2.247-.931l.82.82a.6.6,0,0,0,.847,0l2.647-2.648a.6.6,0,0,0,0-.847l-.819-.819a9.377,9.377,0,0,0,.931-2.247h1.156a.6.6,0,0,0,.6-.6V83.021a.6.6,0,0,0-.6-.6H94.028a9.379,9.379,0,0,0-.931-2.247l.814-.814a.6.6,0,0,0,0-.847l-2.649-2.647a.6.6,0,0,0-.847,0l-.813.813a9.377,9.377,0,0,0-2.247-.931V74.6a.6.6,0,0,0-.6-.6H83.012a.6.6,0,0,0-.6.6v1.15a9.37,9.37,0,0,0-2.247.931l-.813-.813a.6.6,0,0,0-.847,0l-2.648,2.647a.6.6,0,0,0,0,.847l.814.814a9.376,9.376,0,0,0-.931,2.247H74.585a.6.6,0,0,0-.6.6l0,3.744a.6.6,0,0,0,.6.6H75.74a9.377,9.377,0,0,0,.931,2.247l-.819.819a.6.6,0,0,0,0,.847L78.5,93.926a.6.6,0,0,0,.423.176h0a.6.6,0,0,0,.423-.175l.819-.82a9.385,9.385,0,0,0,2.247.931ZM80.4,91.847a.6.6,0,0,0-.749.08l-.729.729-1.8-1.8.728-.729a.6.6,0,0,0,.08-.748A8.2,8.2,0,0,1,76.8,86.64a.6.6,0,0,0-.585-.473H75.182V83.62h1.027a.6.6,0,0,0,.585-.473,8.2,8.2,0,0,1,1.134-2.737.6.6,0,0,0-.08-.748l-.724-.724,1.8-1.8.723.723a.6.6,0,0,0,.749.08,8.193,8.193,0,0,1,2.737-1.134.6.6,0,0,0,.473-.585V75.2h2.547V76.22a.6.6,0,0,0,.473.586,8.2,8.2,0,0,1,2.737,1.134.6.6,0,0,0,.748-.08l.723-.723,1.8,1.8-.724.724a.6.6,0,0,0-.08.749,8.2,8.2,0,0,1,1.134,2.737.6.6,0,0,0,.585.473h1.029v2.547H93.557a.6.6,0,0,0-.585.473,8.2,8.2,0,0,1-1.134,2.737.6.6,0,0,0,.08.749l.728.728-1.8,1.8-.729-.729a.6.6,0,0,0-.749-.08,8.2,8.2,0,0,1-2.737,1.134.6.6,0,0,0-.473.585V94.6H83.611V93.567a.6.6,0,0,0-.473-.585A8.2,8.2,0,0,1,80.4,91.847Zm0,0" transform="translate(-69.554 -69.569)" fill="#fff"/>
  <path id="Path_604" data-name="Path 604" d="M183.267,178.319a4.948,4.948,0,1,0-4.948,4.948A4.954,4.954,0,0,0,183.267,178.319Zm-8.7,0a3.75,3.75,0,1,1,3.75,3.75A3.755,3.755,0,0,1,174.569,178.319Zm0,0" transform="translate(-162.989 -162.989)" fill="#fff"/>
  <path id="Path_605" data-name="Path 605" d="M338.677,19.007a.6.6,0,1,0-.423-.175A.6.6,0,0,0,338.677,19.007Zm0,0" transform="translate(-317.833 -16.742)" fill="#fff"/>
  <path id="Path_606" data-name="Path 606" d="M154.958,474.359a.6.6,0,1,0,.423.175A.6.6,0,0,0,154.958,474.359Zm0,0" transform="translate(-145.116 -445.953)" fill="#fff"/>
</svg>
