<svg id="upload" xmlns="http://www.w3.org/2000/svg" width="50" height="46.484" viewBox="0 0 50 46.484">
  <path id="Path_15073" data-name="Path 15073" d="M42.188,0H7.813A7.821,7.821,0,0,0,0,7.813V35.156a7.821,7.821,0,0,0,7.813,7.813h26.66a1.953,1.953,0,0,0,0-3.906H27.279l-4.491-5.826,14.231-18.1L46.6,25.724a1.953,1.953,0,0,0,3.4-1.31V7.813A7.821,7.821,0,0,0,42.188,0Zm3.906,19.344L38.363,10.8a1.953,1.953,0,0,0-2.984.1L20.328,30.045l-5.109-6.628a1.953,1.953,0,0,0-1.547-.761h0a1.953,1.953,0,0,0-1.547.762l-4.3,5.588a1.953,1.953,0,0,0,3.1,2.382l2.752-3.577,8.673,11.252H7.813a3.911,3.911,0,0,1-3.906-3.906V7.813A3.911,3.911,0,0,1,7.813,3.906H42.188a3.911,3.911,0,0,1,3.906,3.906Zm0,0" fill="#3876ba"/>
  <path id="Path_15074" data-name="Path 15074" d="M85.859,72a5.859,5.859,0,1,0,5.859,5.859A5.866,5.866,0,0,0,85.859,72Zm0,7.813a1.953,1.953,0,1,1,1.953-1.953A1.955,1.955,0,0,1,85.859,79.813Zm0,0" transform="translate(-72.188 -64.969)" fill="#3876ba"/>
  <path id="Path_15075" data-name="Path 15075" d="M364.276,289.459l-.017-.018a4.868,4.868,0,0,0-6.908-.008l-3.771,3.719a1.953,1.953,0,0,0,2.743,2.781l2.524-2.489v10.962a1.953,1.953,0,0,0,3.906,0V293.5l2.416,2.5a1.953,1.953,0,1,0,2.806-2.717Zm0,0" transform="translate(-318.526 -259.875)" fill="#3876ba"/>
</svg>
